<?xml version="1.0" encoding="utf-8"?>
<svg id="master-artboard" viewBox="0 0 2335.59716796875 971.3036499023438" version="1.1" xmlns="http://www.w3.org/2000/svg" x="0px" y="0px" style="enable-background:new 0 0 336 235.2;" width="2335.59716796875px" height="971.3036499023438px"><rect id="ee-background" x="0" y="0" width="2335.59716796875" height="971.3036499023438" style="fill: white; fill-opacity: 0; pointer-events: none;"/><defs><linearGradient id="gradient-0" gradientUnits="userSpaceOnUse" x1="457.45069885253906" y1="358" x2="457.45069885253906" y2="390.68957901000977">
                <stop offset="0" style="stop-color: #333333"/>
                <stop offset="1" style="stop-color: #000000"/>
              </linearGradient><radialGradient id="gradient-1" gradientUnits="objectBoundingBox" cx="0.5" cy="0.5" r="0.5">
                <stop offset="0" style="stop-color: #333333"/>
                <stop offset="1" style="stop-color: #000000"/>
              </radialGradient></defs>





















































































































































<g transform="matrix(5.064630031585693, 0, 0, 5.064630031585693, -1748.9066162109373, -2558.036376953125)"><g transform="matrix(1, 0, 0, 1, 5.684341886080802e-14, 0)">
	
	
	<g>
		<path class="st0" d="M449.9,564l0.1,1l-1.5,0.3l-0.2,2.2h1.8l2.4-0.2l1.2-1.5l-1.3-0.5l-0.7-0.8l-1.1-1.8l-0.5-2.5l-2.1,0.4&#10;&#9;&#9;&#9;l-0.6,0.9v1l1,0.7L449.9,564z M449.9,564" style="fill: rgb(0, 0, 0); opacity: 1;"/>
		<path class="st0" d="M448.2,564.8l0.1-1.4l-1.2-0.5l-1.7,0.4l-1.3,2v1.3h1.5L448.2,564.8z M448.2,564.8" style="fill: rgb(0, 0, 0); opacity: 1;"/>
		<path class="st0" d="M413.4,570.6l-0.4,1h-1.8v0.9h0.4c0,0,0,0.2,0.1,0.5l1.1-0.1l0.7-0.4l0.2-0.9l0.9-0.1l0.3-0.7l-0.8-0.2&#10;&#9;&#9;&#9;L413.4,570.6z M413.4,570.6" style="fill: rgb(0, 0, 0); opacity: 1;"/>
		<path class="st0" d="M408.8,572.2l-0.1,0.9l1.3-0.1l0.1-0.9l-0.8-0.6L408.8,572.2z M408.8,572.2" style="fill: rgb(0, 0, 0); opacity: 1;"/>
		<path class="st0" d="M487.1,601.3c0-2-0.1-4-0.3-6c-0.6-6.5-2.2-12.8-4.5-18.6c-0.2-0.4-0.3-0.9-0.5-1.3&#10;&#9;&#9;&#9;c-3.1-7.4-7.5-14.1-12.8-19.8c-0.3-0.4-0.7-0.7-1.1-1.1c-1-1-2-2.1-3.1-3.1c-12.2-11.1-28.3-17.9-46.1-17.9&#10;&#9;&#9;&#9;c-17.9,0-34.2,6.9-46.4,18.1c-2.8,2.6-5.5,5.5-7.8,8.5c-9,11.6-14.3,26.1-14.3,41.8c0,37.8,30.7,68.5,68.5,68.5&#10;&#9;&#9;&#9;c26.6,0,49.6-15.2,61-37.4c2.4-4.7,4.3-9.8,5.6-15.1c0.3-1.3,0.6-2.7,0.9-4.1c0.7-3.9,1.1-7.9,1.1-12&#10;&#9;&#9;&#9;C487.1,601.7,487.1,601.5,487.1,601.3L487.1,601.3z M474.2,573.9l0.4-0.5c0.5,1,1,2,1.5,3.1l-0.6,0l-1.2,0.2V573.9z M464.3,562&#10;&#9;&#9;&#9;l0-3.1c1.1,1.1,2.1,2.3,3.1,3.5l-1.2,1.8l-4.3,0l-0.3-0.9L464.3,562z M381.7,554.4v-0.1h1.4l0.1-0.5h2.3v1l-0.6,0.9h-3.1V554.4z&#10;&#9;&#9;&#9; M383.9,557.4c0,0,1.4-0.2,1.5-0.2c0.1,0,0,1.4,0,1.4l-3.1,0.2l-0.6-0.7L383.9,557.4z M478.6,584.6h-5l-3.1-2.3l-3.2,0.3v2h-1&#10;&#9;&#9;&#9;l-1.1-0.8l-5.6-1.4v-3.6l-7.1,0.6l-2.2,1.2h-2.8l-1.4-0.2l-3.4,1.9v3.5l-6.9,5l0.6,2.1h1.4l-0.4,2l-1,0.4l-0.1,5.3l6,6.8h2.6&#10;&#9;&#9;&#9;l0.2-0.4h4.7l1.3-1.2h2.7l1.5,1.5l4,0.4l-0.5,5.3l4.4,7.8l-2.3,4.4l0.2,2.1l1.8,1.8v5l2.4,3.2v4.2h2.1&#10;&#9;&#9;&#9;c-11.5,14.2-29.1,23.2-48.7,23.2c-34.7,0-62.8-28.2-62.8-62.9c0-8.7,1.8-17,5-24.6v-2l2.3-2.7c0.8-1.5,1.6-2.9,2.5-4.3l0.1,1.1&#10;&#9;&#9;&#9;l-2.6,3.2c-0.8,1.5-1.6,3.1-2.2,4.7v3.6l2.6,1.3v5l2.5,4.3l2,0.3l0.3-1.5l-2.4-3.7l-0.5-3.6h1.4l0.6,3.7l3.5,5.1l-0.9,1.6l2.2,3.4&#10;&#9;&#9;&#9;l5.5,1.3v-0.9l2.2,0.3l-0.2,1.6l1.7,0.3l2.7,0.7l3.8,4.3l4.8,0.4l0.5,3.9l-3.3,2.3l-0.2,3.5l-0.5,2.1l4.8,6l0.4,2&#10;&#9;&#9;&#9;c0,0,1.7,0.5,1.9,0.5c0.2,0,3.9,2.8,3.9,2.8v10.8l1.3,0.4l-0.9,5l2.2,2.9l-0.4,4.9l2.9,5.1l3.7,3.2l3.7,0.1l0.4-1.2l-2.7-2.3&#10;&#9;&#9;&#9;l0.2-1.1l0.5-1.4l0.1-1.4l-1.9-0.1l-0.9-1.2l1.5-1.5l0.2-1.1l-1.7-0.5l0.1-1l2.5-0.4l3.7-1.8l1.3-2.3l3.9-5l-0.9-3.9l1.2-2.1&#10;&#9;&#9;&#9;l3.6,0.1l2.4-1.9l0.8-7.6l2.7-3.4l0.5-2.2l-2.5-0.8l-1.6-2.7l-5.5-0.1l-4.4-1.7l-0.2-3.1l-1.5-2.6l-4-0.1l-2.3-3.6l-2-1l-0.1,1.1&#10;&#9;&#9;&#9;l-3.7,0.2l-1.4-1.9l-3.9-0.8l-3.2,3.7l-5-0.8l-0.4-5.7l-3.7-0.6l1.5-2.8l-0.4-1.6l-4.8,3.2l-3-0.4l-1.1-2.4l0.6-2.4l1.7-3.1&#10;&#9;&#9;&#9;l3.8-1.9h7.4l0,2.3l2.7,1.2l-0.2-3.9l1.9-1.9l3.9-2.5l0.3-1.8l3.9-4l4.1-2.3l-0.4-0.3l2.8-2.6l1,0.3l0.5,0.6l1.1-1.2l0.3-0.1&#10;&#9;&#9;&#9;l-1.2-0.2l-1.2-0.4v-1.1l0.6-0.5h1.4l0.6,0.3l0.5,1.1l0.7-0.1v-0.1l0.2,0.1l1.9-0.3l0.3-1l1.1,0.3v1l-1,0.7l0.2,1.1l3.5,1.1l0,0&#10;&#9;&#9;&#9;l0.8-0.1l0.1-1.5l-2.8-1.2l-0.2-0.7l2.3-0.8l0.1-2.2l-2.4-1.5l-0.2-3.7l-3.3,1.6H413l0.3-2.8l-4.5-1.1l-1.9,1.4v4.3l-3.3,1&#10;&#9;&#9;&#9;l-1.3,2.8l-1.5,0.2v-3.6l-3.1-0.4l-1.6-1l-0.6-2.3l5.6-3.3l2.8-0.8l0.3,1.8l1.5-0.1l0.1-0.9l1.6-0.2l0-0.3l-0.7-0.3l-0.2-1l2-0.2&#10;&#9;&#9;&#9;l1.2-1.2l0.1-0.1h0l0.4-0.4l4.1-0.5l1.8,1.6l-4.8,2.5l6.1,1.4l0.8-2h2.7l0.9-1.8l-1.9-0.5V551l-5.9-2.6l-4.1,0.5l-2.3,1.2l0.2,2.9&#10;&#9;&#9;&#9;l-2.4-0.4l-0.4-1.6l2.3-2.1l-4.2-0.2l-1.2,0.4l-0.5,1.4l1.6,0.3l-0.3,1.6l-2.7,0.2l-0.4,1l-3.9,0.1c0,0-0.1-2.2-0.3-2.2&#10;&#9;&#9;&#9;c-0.2,0,3-0.1,3-0.1l2.3-2.3l-1.3-0.6l-1.7,1.6l-2.8-0.2l-1.7-2.3h-3.5l-3.7,2.8h3.4l0.3,1l-0.9,0.8l3.8,0.1l0.6,1.4l-4.2-0.2&#10;&#9;&#9;&#9;l-0.2-1l-2.7-0.6l-1.4-0.8l-3.2,0c10.4-7.6,23.1-12,36.9-12c15.9,0,30.4,5.9,41.5,15.7l-0.7,1.3l-2.9,1.1l-1.2,1.3l0.3,1.6&#10;&#9;&#9;&#9;l1.5,0.2l0.9,2.3l2.6-1l0.4,3h-0.8l-2.1-0.3l-2.4,0.4l-2.3,3.2l-3.3,0.5l-0.5,2.8l1.4,0.3l-0.4,1.8l-3.2-0.6l-3,0.6l-0.6,1.6&#10;&#9;&#9;&#9;l0.5,3.5l1.7,0.8l2.9,0l2-0.2l0.6-1.6l3.1-4l2,0.4l2-1.8l0.4,1.4l4.9,3.3l-0.6,0.8l-2.2-0.1l0.9,1.2l1.4,0.3l1.6-0.7l0-1.9&#10;&#9;&#9;&#9;l0.7-0.4l-0.6-0.6l-3.3-1.8l-0.9-2.4h2.7l0.9,0.9l2.4,2l0.1,2.4l2.4,2.6l0.9-3.5l1.7-0.9l0.3,2.9l1.7,1.8l3.3-0.1&#10;&#9;&#9;&#9;c0.6,1.6,1.2,3.3,1.7,5L478.6,584.6z M387.5,564.6l1.6-0.8l1.5,0.4l-0.5,2l-1.6,0.5L387.5,564.6z M396.2,569.3v1.3h-3.8l-1.4-0.4&#10;&#9;&#9;&#9;l0.4-0.9l1.8-0.7h2.5v0.7H396.2z M398,571.1v1.2L397,573l-1.2,0.2v-2.1H398z M396.9,570.6v-1.5l1.3,1.2L396.9,570.6z M397.5,573.6&#10;&#9;&#9;&#9;v1.2l-0.9,0.9h-2l0.3-1.4l0.9-0.1l0.2-0.5L397.5,573.6z M392.5,571.1h2.1l-2.7,3.7l-1.1-0.6l0.2-1.6L392.5,571.1z M401,573.2v1.2&#10;&#9;&#9;&#9;h-2l-0.5-0.8v-1.1h0.2L401,573.2z M399.2,571.5l0.6-0.6l1,0.6l-0.8,0.6L399.2,571.5z M479.6,587.8l0.2-0.2&#10;&#9;&#9;&#9;c0.1,0.3,0.2,0.7,0.2,1.1L479.6,587.8z M479.6,587.8" style="fill: rgb(0, 0, 0); opacity: 1;"/>
		<path class="st0" d="M360.8,575.4v2c0.7-1.6,1.4-3.2,2.3-4.7L360.8,575.4z M360.8,575.4" style="fill: rgb(0, 0, 0); opacity: 1;"/>
	</g>
</g></g><g transform="matrix(1.3397464752197266, 0.5853171348571777, -0.5853171348571777, 1.3397464752197266, 386.5444641113282, -1086.4334716796877)"><g transform="matrix(1, 0, 0, 1, 1.1368683772161603e-13, 0)"><g transform="matrix(1, 0, 0, 1, -68.63700866699213, -13.428979873657227)">
	<g>
		<g>
			<path class="st1" d="M636,765.7c-0.1-0.1-0.3-0.3-0.4-0.4c-1.9-2.3-1.5-5.7,0.8-7.5l27.6-21.7c2.3-1.9,5.7-1.5,7.6,0.8&#10;&#9;&#9;&#9;&#9;c1.9,2.3,1.5,5.7-0.8,7.6l-27.7,21.7C641,767.8,637.9,767.6,636,765.7z" style="fill: rgb(0, 0, 0); opacity: 1;"/>
		</g>
		<path class="st1" d="M722,762.5l-7.7-7.7l-45.1,64.7c-8.8,8.4-22.8,8.3-31.4-0.3l-23.6-23.6c-8.7-8.7-8.8-22.7-0.3-31.5l63-46.8&#10;&#9;&#9;&#9;l-7.7-7.7l-62,46.1c-0.2,0.2-0.4,0.3-0.6,0.5c-12.9,12.9-12.9,34,0,46.9l23.6,23.6c12.9,12.9,34,12.9,46.9,0&#10;&#9;&#9;&#9;c0.2-0.2,0.4-0.5,0.6-0.7L722,762.5z" style="fill: rgb(0, 0, 0); opacity: 1;"/>
		<g>
			<path class="st1" d="M736.5,682.8c-4,4-10.5,4-14.6,0c-4-4-4-10.5,0-14.6c4-4,10.5-4,14.6,0C740.5,672.2,740.5,678.8,736.5,682.8&#10;&#9;&#9;&#9;&#9;z" style="fill: rgb(0, 0, 0); opacity: 1;"/>
		</g>
		<g>
			<path class="st1" d="M766.4,712.7c-4.3,4.3-11.3,4.3-15.7,0c-4.3-4.3-4.3-11.3,0-15.7c4.3-4.3,11.3-4.3,15.7,0&#10;&#9;&#9;&#9;&#9;C770.7,701.4,770.7,708.4,766.4,712.7z" style="fill: rgb(0, 0, 0); opacity: 1;"/>
		</g>
		<g>
			<path class="st1" d="M727.1,721.3c-4.6,4.6-12,4.6-16.5,0c-4.6-4.6-4.6-12,0-16.5c4.6-4.6,12-4.6,16.5,0&#10;&#9;&#9;&#9;&#9;C731.7,709.3,731.7,716.7,727.1,721.3z" style="fill: rgb(0, 0, 0); opacity: 1;"/>
		</g>
		<g>
			<path class="st1" d="M760.1,754.2c-4.6,4.6-12,4.6-16.5,0c-4.6-4.6-4.6-12,0-16.5c4.6-4.6,12-4.6,16.5,0&#10;&#9;&#9;&#9;&#9;C764.6,742.2,764.6,749.6,760.1,754.2z" style="fill: rgb(0, 0, 0); opacity: 1;"/>
		</g>
		<g>
			<path class="st1" d="M695.3,689.5c-4.6,4.6-12,4.6-16.5,0c-4.6-4.6-4.6-12,0-16.5c4.6-4.6,12-4.6,16.5,0&#10;&#9;&#9;&#9;&#9;C699.9,677.5,699.9,684.9,695.3,689.5z" style="fill: rgb(0, 0, 0); opacity: 1;"/>
		</g>
		<path class="st1" d="M773.5,659.9c-39.6-39.6-104.1-39.6-143.7,0c-2,2-3.8,4-5.6,6.1c-1.8,2.1-1.7,5.3,0.3,7.3l3.9,3.9l12,12&#10;&#9;&#9;&#9;l0.3,0.3l14,14l72.7,72.7l18,18l1,1l13.6,13.6c2,2,5.1,2.1,7.3,0.3c2.1-1.8,4.1-3.6,6.1-5.6C813,764,813.1,699.5,773.5,659.9z&#10;&#9;&#9;&#9; M764.1,797.7l-10-10l-1.8-1.8L649.1,682.8l-1.1-1.1l-12.3-12.3c0.6-0.6,1.1-1.2,1.7-1.8c35.4-35.4,93.1-35.4,128.5,0&#10;&#9;&#9;&#9;c35.4,35.4,35.4,93.1,0,128.5C765.3,796.6,764.7,797.2,764.1,797.7z" style="fill: rgb(0, 0, 0); opacity: 1;"/>
	</g>
</g></g></g><g transform="matrix(1.089945673909056, 0.00016740040586670066, -0.00016740040586670066, 1.089945673909056, -57.67425840287069, -663.4822545266691)"><g transform="matrix(1, 0, 0, 1, 1.1368683772161603e-13, 0)"><g transform="matrix(1, 0, 0, 1, -68.63700866699213, -13.428979873657227)">
	<g>
		<g>
			<path class="st1" d="M636,765.7c-0.1-0.1-0.3-0.3-0.4-0.4c-1.9-2.3-1.5-5.7,0.8-7.5l27.6-21.7c2.3-1.9,5.7-1.5,7.6,0.8&#10;&#9;&#9;&#9;&#9;c1.9,2.3,1.5,5.7-0.8,7.6l-27.7,21.7C641,767.8,637.9,767.6,636,765.7z" style="fill: rgb(0, 0, 0); opacity: 1;"/>
		</g>
		<path class="st1" d="M722,762.5l-7.7-7.7l-45.1,64.7c-8.8,8.4-22.8,8.3-31.4-0.3l-23.6-23.6c-8.7-8.7-8.8-22.7-0.3-31.5l63-46.8&#10;&#9;&#9;&#9;l-7.7-7.7l-62,46.1c-0.2,0.2-0.4,0.3-0.6,0.5c-12.9,12.9-12.9,34,0,46.9l23.6,23.6c12.9,12.9,34,12.9,46.9,0&#10;&#9;&#9;&#9;c0.2-0.2,0.4-0.5,0.6-0.7L722,762.5z" style="fill: rgb(0, 0, 0); opacity: 1;"/>
		<g>
			<path class="st1" d="M736.5,682.8c-4,4-10.5,4-14.6,0c-4-4-4-10.5,0-14.6c4-4,10.5-4,14.6,0C740.5,672.2,740.5,678.8,736.5,682.8&#10;&#9;&#9;&#9;&#9;z" style="fill: rgb(0, 0, 0); opacity: 1;"/>
		</g>
		<g>
			<path class="st1" d="M766.4,712.7c-4.3,4.3-11.3,4.3-15.7,0c-4.3-4.3-4.3-11.3,0-15.7c4.3-4.3,11.3-4.3,15.7,0&#10;&#9;&#9;&#9;&#9;C770.7,701.4,770.7,708.4,766.4,712.7z" style="fill: rgb(0, 0, 0); opacity: 1;"/>
		</g>
		<g>
			<path class="st1" d="M727.1,721.3c-4.6,4.6-12,4.6-16.5,0c-4.6-4.6-4.6-12,0-16.5c4.6-4.6,12-4.6,16.5,0&#10;&#9;&#9;&#9;&#9;C731.7,709.3,731.7,716.7,727.1,721.3z" style="fill: rgb(0, 0, 0); opacity: 1;"/>
		</g>
		<g>
			<path class="st1" d="M760.1,754.2c-4.6,4.6-12,4.6-16.5,0c-4.6-4.6-4.6-12,0-16.5c4.6-4.6,12-4.6,16.5,0&#10;&#9;&#9;&#9;&#9;C764.6,742.2,764.6,749.6,760.1,754.2z" style="fill: rgb(0, 0, 0); opacity: 1;"/>
		</g>
		<g>
			<path class="st1" d="M695.3,689.5c-4.6,4.6-12,4.6-16.5,0c-4.6-4.6-4.6-12,0-16.5c4.6-4.6,12-4.6,16.5,0&#10;&#9;&#9;&#9;&#9;C699.9,677.5,699.9,684.9,695.3,689.5z" style="fill: rgb(0, 0, 0); opacity: 1;"/>
		</g>
		<path class="st1" d="M773.5,659.9c-39.6-39.6-104.1-39.6-143.7,0c-2,2-3.8,4-5.6,6.1c-1.8,2.1-1.7,5.3,0.3,7.3l3.9,3.9l12,12&#10;&#9;&#9;&#9;l0.3,0.3l14,14l72.7,72.7l18,18l1,1l13.6,13.6c2,2,5.1,2.1,7.3,0.3c2.1-1.8,4.1-3.6,6.1-5.6C813,764,813.1,699.5,773.5,659.9z&#10;&#9;&#9;&#9; M764.1,797.7l-10-10l-1.8-1.8L649.1,682.8l-1.1-1.1l-12.3-12.3c0.6-0.6,1.1-1.2,1.7-1.8c35.4-35.4,93.1-35.4,128.5,0&#10;&#9;&#9;&#9;c35.4,35.4,35.4,93.1,0,128.5C765.3,796.6,764.7,797.2,764.1,797.7z" style="fill: rgb(0, 0, 0); opacity: 1;"/>
	</g>
</g></g></g><g transform="matrix(0.7506311535835267, -0.37596735358238226, 0.37596735358238226, 0.7506311535835267, -292.781400948762, -219.21707153320278)"><g transform="matrix(1, 0, 0, 1, 1.1368683772161603e-13, 0)"><g transform="matrix(1, 0, 0, 1, -68.63700866699213, -13.428979873657227)">
	<g>
		<g>
			<path class="st1" d="M636,765.7c-0.1-0.1-0.3-0.3-0.4-0.4c-1.9-2.3-1.5-5.7,0.8-7.5l27.6-21.7c2.3-1.9,5.7-1.5,7.6,0.8&#10;&#9;&#9;&#9;&#9;c1.9,2.3,1.5,5.7-0.8,7.6l-27.7,21.7C641,767.8,637.9,767.6,636,765.7z" style="fill: rgb(0, 0, 0); opacity: 1;"/>
		</g>
		<path class="st1" d="M722,762.5l-7.7-7.7l-45.1,64.7c-8.8,8.4-22.8,8.3-31.4-0.3l-23.6-23.6c-8.7-8.7-8.8-22.7-0.3-31.5l63-46.8&#10;&#9;&#9;&#9;l-7.7-7.7l-62,46.1c-0.2,0.2-0.4,0.3-0.6,0.5c-12.9,12.9-12.9,34,0,46.9l23.6,23.6c12.9,12.9,34,12.9,46.9,0&#10;&#9;&#9;&#9;c0.2-0.2,0.4-0.5,0.6-0.7L722,762.5z" style="fill: rgb(0, 0, 0); opacity: 1;"/>
		<g>
			<path class="st1" d="M736.5,682.8c-4,4-10.5,4-14.6,0c-4-4-4-10.5,0-14.6c4-4,10.5-4,14.6,0C740.5,672.2,740.5,678.8,736.5,682.8&#10;&#9;&#9;&#9;&#9;z" style="fill: rgb(0, 0, 0); opacity: 1;"/>
		</g>
		<g>
			<path class="st1" d="M766.4,712.7c-4.3,4.3-11.3,4.3-15.7,0c-4.3-4.3-4.3-11.3,0-15.7c4.3-4.3,11.3-4.3,15.7,0&#10;&#9;&#9;&#9;&#9;C770.7,701.4,770.7,708.4,766.4,712.7z" style="fill: rgb(0, 0, 0); opacity: 1;"/>
		</g>
		<g>
			<path class="st1" d="M727.1,721.3c-4.6,4.6-12,4.6-16.5,0c-4.6-4.6-4.6-12,0-16.5c4.6-4.6,12-4.6,16.5,0&#10;&#9;&#9;&#9;&#9;C731.7,709.3,731.7,716.7,727.1,721.3z" style="fill: rgb(0, 0, 0); opacity: 1;"/>
		</g>
		<g>
			<path class="st1" d="M760.1,754.2c-4.6,4.6-12,4.6-16.5,0c-4.6-4.6-4.6-12,0-16.5c4.6-4.6,12-4.6,16.5,0&#10;&#9;&#9;&#9;&#9;C764.6,742.2,764.6,749.6,760.1,754.2z" style="fill: rgb(0, 0, 0); opacity: 1;"/>
		</g>
		<g>
			<path class="st1" d="M695.3,689.5c-4.6,4.6-12,4.6-16.5,0c-4.6-4.6-4.6-12,0-16.5c4.6-4.6,12-4.6,16.5,0&#10;&#9;&#9;&#9;&#9;C699.9,677.5,699.9,684.9,695.3,689.5z" style="fill: rgb(0, 0, 0); opacity: 1;"/>
		</g>
		<path class="st1" d="M773.5,659.9c-39.6-39.6-104.1-39.6-143.7,0c-2,2-3.8,4-5.6,6.1c-1.8,2.1-1.7,5.3,0.3,7.3l3.9,3.9l12,12&#10;&#9;&#9;&#9;l0.3,0.3l14,14l72.7,72.7l18,18l1,1l13.6,13.6c2,2,5.1,2.1,7.3,0.3c2.1-1.8,4.1-3.6,6.1-5.6C813,764,813.1,699.5,773.5,659.9z&#10;&#9;&#9;&#9; M764.1,797.7l-10-10l-1.8-1.8L649.1,682.8l-1.1-1.1l-12.3-12.3c0.6-0.6,1.1-1.2,1.7-1.8c35.4-35.4,93.1-35.4,128.5,0&#10;&#9;&#9;&#9;c35.4,35.4,35.4,93.1,0,128.5C765.3,796.6,764.7,797.2,764.1,797.7z" style="fill: rgb(0, 0, 0); opacity: 1;"/>
	</g>
</g></g></g><path d="M 317.6341247558594 342.3999938964844 C 315.7541198730469 342.3999938964844 314.2674560546875 343.02667236328125 313.17413330078125 344.2799987792969 C 312.08746337890625 345.5333251953125 311.54412841796875 347.25 311.54412841796875 349.42999267578125 C 311.54412841796875 351.6766662597656 312.06744384765625 353.4100036621094 313.1141357421875 354.6300048828125 C 314.1674499511719 355.8500061035156 315.6674499511719 356.4599914550781 317.6141357421875 356.4599914550781 C 318.8074645996094 356.4599914550781 320.1707763671875 356.2466735839844 321.7041320800781 355.82000732421875 L 321.7041320800781 357.57000732421875 C 320.5174560546875 358.010009765625 319.05078125 358.2300109863281 317.3041076660156 358.2300109863281 C 314.78411865234375 358.2300109863281 312.83746337890625 357.4666748046875 311.464111328125 355.94000244140625 C 310.0907897949219 354.40667724609375 309.40411376953125 352.2300109863281 309.40411376953125 349.4100036621094 C 309.40411376953125 347.6433410644531 309.7374572753906 346.0966796875 310.40411376953125 344.7699890136719 C 311.0641174316406 343.4433288574219 312.0141296386719 342.4200134277344 313.2541198730469 341.70001220703125 C 314.50079345703125 340.9800109863281 315.96746826171875 340.6199951171875 317.65411376953125 340.6199951171875 C 319.4541320800781 340.6199951171875 321.0274658203125 340.95001220703125 322.3741149902344 341.6099853515625 L 321.52410888671875 343.32000732421875 C 320.23077392578125 342.7066650390625 318.9341125488281 342.3999938964844 317.6341247558594 342.3999938964844 ZM 326.971435546875 345.1600036621094 L 326.971435546875 353.489990234375 C 326.971435546875 354.5366516113281 327.21142578125 355.3166809082031 327.69140625 355.8299865722656 C 328.1647644042969 356.3500061035156 328.9080810546875 356.6099853515625 329.9214172363281 356.6099853515625 C 331.2680969238281 356.6099853515625 332.2514343261719 356.239990234375 332.8714294433594 355.5 C 333.4914245605469 354.76666259765625 333.8014221191406 353.57000732421875 333.8014221191406 351.9100036621094 L 333.8014221191406 345.1600036621094 L 335.7514343261719 345.1600036621094 L 335.7514343261719 358 L 334.14141845703125 358 L 333.8614196777344 356.2799987792969 L 333.76141357421875 356.2799987792969 C 333.3614196777344 356.913330078125 332.8080749511719 357.39666748046875 332.1014099121094 357.7300109863281 C 331.3947448730469 358.0633239746094 330.58807373046875 358.2300109863281 329.6814270019531 358.2300109863281 C 328.11474609375 358.2300109863281 326.94476318359375 357.8599853515625 326.1714172363281 357.1199951171875 C 325.39141845703125 356.3800048828125 325.0014343261719 355.1933288574219 325.0014343261719 353.55999755859375 L 325.0014343261719 345.1600036621094 L 326.971435546875 345.1600036621094 ZM 345.8516845703125 344.95001220703125 C 347.538330078125 344.95001220703125 348.84832763671875 345.5233459472656 349.78167724609375 346.6700134277344 C 350.7149963378906 347.8233337402344 351.1816711425781 349.4566650390625 351.1816711425781 351.57000732421875 C 351.1816711425781 353.6766662597656 350.711669921875 355.3133239746094 349.77166748046875 356.4800109863281 C 348.8316650390625 357.64666748046875 347.5250244140625 358.2300109863281 345.8516845703125 358.2300109863281 C 345.0183410644531 358.2300109863281 344.2550048828125 358.07666015625 343.5616760253906 357.7699890136719 C 342.86834716796875 357.4633483886719 342.288330078125 356.989990234375 341.8216857910156 356.3500061035156 L 341.6816711425781 356.3500061035156 L 341.27166748046875 358 L 339.8716735839844 358 L 339.8716735839844 339.7699890136719 L 341.8216857910156 339.7699890136719 L 341.8216857910156 344.20001220703125 C 341.8216857910156 345.1866760253906 341.788330078125 346.07666015625 341.7216796875 346.8699951171875 L 341.8216857910156 346.8699951171875 C 342.72833251953125 345.5899963378906 344.0716857910156 344.95001220703125 345.8516845703125 344.95001220703125 M 345.5716857910156 346.57000732421875 C 344.2449951171875 346.57000732421875 343.288330078125 346.9533386230469 342.7016906738281 347.7200012207031 C 342.1150207519531 348.4800109863281 341.8216857910156 349.7633361816406 341.8216857910156 351.57000732421875 C 341.8216857910156 353.3699951171875 342.1216735839844 354.6600036621094 342.7216796875 355.44000244140625 C 343.3216857910156 356.2200012207031 344.2850036621094 356.6099853515625 345.6116638183594 356.6099853515625 C 346.8116760253906 356.6099853515625 347.70501708984375 356.17333984375 348.29168701171875 355.29998779296875 C 348.87835693359375 354.4266662597656 349.1716613769531 353.17333984375 349.1716613769531 351.5400085449219 C 349.1716613769531 349.8733215332031 348.87835693359375 348.6266784667969 348.29168701171875 347.79998779296875 C 347.70501708984375 346.9800109863281 346.79833984375 346.57000732421875 345.5716857910156 346.57000732421875 ZM 360.0101013183594 358.2300109863281 C 358.110107421875 358.2300109863281 356.610107421875 357.6533203125 355.5101013183594 356.5 C 354.4167785644531 355.3466796875 353.8701171875 353.739990234375 353.8701171875 351.67999267578125 C 353.8701171875 349.61334228515625 354.3800964355469 347.9700012207031 355.4001159667969 346.75 C 356.42010498046875 345.5299987792969 357.7867736816406 344.9200134277344 359.5001220703125 344.9200134277344 C 361.1134338378906 344.9200134277344 362.38677978515625 345.45001220703125 363.3200988769531 346.510009765625 C 364.2601013183594 347.57000732421875 364.7301025390625 348.9666748046875 364.7301025390625 350.70001220703125 L 364.7301025390625 351.92999267578125 L 355.8800964355469 351.92999267578125 C 355.92010498046875 353.4366760253906 356.3034362792969 354.5799865722656 357.0301208496094 355.3599853515625 C 357.7501220703125 356.14666748046875 358.76678466796875 356.5400085449219 360.0801086425781 356.5400085449219 C 361.4601135253906 356.5400085449219 362.8267822265625 356.25 364.18011474609375 355.6700134277344 L 364.18011474609375 357.3999938964844 C 363.4934387207031 357.70001220703125 362.84344482421875 357.913330078125 362.2301025390625 358.0400085449219 C 361.6167907714844 358.1666564941406 360.87677001953125 358.2300109863281 360.0101013183594 358.2300109863281 M 359.4801025390625 346.54998779296875 C 358.44677734375 346.54998779296875 357.6234436035156 346.88665771484375 357.0101013183594 347.55999755859375 C 356.39678955078125 348.23333740234375 356.0367736816406 349.163330078125 355.93011474609375 350.3500061035156 L 362.6501159667969 350.3500061035156 C 362.6501159667969 349.1233215332031 362.3734436035156 348.1833190917969 361.8200988769531 347.5299987792969 C 361.2734375 346.8766784667969 360.4934387207031 346.54998779296875 359.4801025390625 346.54998779296875 ZM 376.8356018066406 358 L 376.8356018066406 349.69000244140625 C 376.8356018066406 348.6433410644531 376.59893798828125 347.86334228515625 376.1256103515625 347.3500061035156 C 375.6455993652344 346.8299865722656 374.89892578125 346.57000732421875 373.8855895996094 346.57000732421875 C 372.5389404296875 346.57000732421875 371.55560302734375 346.9333190917969 370.93560791015625 347.6600036621094 C 370.3089294433594 348.38665771484375 369.99560546875 349.586669921875 369.99560546875 351.260009765625 L 369.99560546875 358 L 368.04559326171875 358 L 368.04559326171875 345.1600036621094 L 369.6256103515625 345.1600036621094 L 369.9455871582031 346.9100036621094 L 370.03558349609375 346.9100036621094 C 370.43560791015625 346.27667236328125 370.99560546875 345.78668212890625 371.7156066894531 345.44000244140625 C 372.43560791015625 345.09332275390625 373.235595703125 344.9200134277344 374.1156005859375 344.9200134277344 C 375.6622619628906 344.9200134277344 376.82891845703125 345.2933349609375 377.6156005859375 346.0400085449219 C 378.3955993652344 346.78668212890625 378.78558349609375 347.9800109863281 378.78558349609375 349.6199951171875 L 378.78558349609375 358 L 376.8356018066406 358 ZM 391.0658264160156 354.5 C 391.0658264160156 355.6933288574219 390.619140625 356.61334228515625 389.725830078125 357.260009765625 C 388.8391418457031 357.90667724609375 387.5891418457031 358.2300109863281 385.975830078125 358.2300109863281 C 384.27581787109375 358.2300109863281 382.94915771484375 357.9633483886719 381.9958190917969 357.42999267578125 L 381.9958190917969 355.6199951171875 C 382.6091613769531 355.9333190917969 383.2691650390625 356.17999267578125 383.975830078125 356.3599853515625 C 384.6824951171875 356.5400085449219 385.3658142089844 356.6300048828125 386.02581787109375 356.6300048828125 C 387.0391540527344 356.6300048828125 387.81915283203125 356.4666748046875 388.3658142089844 356.1400146484375 C 388.9124755859375 355.82000732421875 389.1858215332031 355.32666015625 389.1858215332031 354.6600036621094 C 389.1858215332031 354.1600036621094 388.9691467285156 353.73333740234375 388.53582763671875 353.3800048828125 C 388.10247802734375 353.0199890136719 387.2591552734375 352.6000061035156 386.0058288574219 352.1199951171875 C 384.8058166503906 351.67333984375 383.955810546875 351.2833251953125 383.455810546875 350.95001220703125 C 382.94915771484375 350.6166687011719 382.5724792480469 350.239990234375 382.3258056640625 349.82000732421875 C 382.07916259765625 349.3999938964844 381.955810546875 348.89666748046875 381.955810546875 348.30999755859375 C 381.955810546875 347.2633361816406 382.3824768066406 346.4366760253906 383.2358093261719 345.8299865722656 C 384.0891418457031 345.22332763671875 385.2558288574219 344.9200134277344 386.7358093261719 344.9200134277344 C 388.12249755859375 344.9200134277344 389.475830078125 345.2033386230469 390.7958068847656 345.7699890136719 L 390.1058349609375 347.3500061035156 C 388.8125 346.8166809082031 387.6424865722656 346.54998779296875 386.5958251953125 346.54998779296875 C 385.6758117675781 346.54998779296875 384.98248291015625 346.6933288574219 384.51580810546875 346.9800109863281 C 384.04248046875 347.2733459472656 383.8058166503906 347.67333984375 383.8058166503906 348.17999267578125 C 383.8058166503906 348.52667236328125 383.89581298828125 348.82000732421875 384.0758056640625 349.05999755859375 C 384.2491455078125 349.29998779296875 384.5325012207031 349.5299987792969 384.9258117675781 349.75 C 385.3125 349.9700012207031 386.0625 350.28668212890625 387.1758117675781 350.70001220703125 C 388.6958312988281 351.2533264160156 389.72247314453125 351.80999755859375 390.2558288574219 352.3699951171875 C 390.7958068847656 352.9366760253906 391.0658264160156 353.64666748046875 391.0658264160156 354.5 ZM 396.1742248535156 358 L 394.2242126464844 358 L 394.2242126464844 345.1600036621094 L 396.1742248535156 345.1600036621094 L 396.1742248535156 358 M 394.064208984375 341.67999267578125 C 394.064208984375 341.23333740234375 394.1742248535156 340.90667724609375 394.39422607421875 340.70001220703125 C 394.6075439453125 340.49334716796875 394.8808898925781 340.3900146484375 395.2142028808594 340.3900146484375 C 395.5275573730469 340.3900146484375 395.79754638671875 340.49334716796875 396.0242004394531 340.70001220703125 C 396.2508850097656 340.913330078125 396.3642272949219 341.239990234375 396.3642272949219 341.67999267578125 C 396.3642272949219 342.11334228515625 396.2508850097656 342.4366760253906 396.0242004394531 342.6499938964844 C 395.79754638671875 342.8699951171875 395.5275573730469 342.9800109863281 395.2142028808594 342.9800109863281 C 394.8808898925781 342.9800109863281 394.6075439453125 342.8699951171875 394.39422607421875 342.6499938964844 C 394.1742248535156 342.4366760253906 394.064208984375 342.11334228515625 394.064208984375 341.67999267578125 ZM 408.58367919921875 354.5 C 408.58367919921875 355.6933288574219 408.1369934082031 356.61334228515625 407.2436828613281 357.260009765625 C 406.35699462890625 357.90667724609375 405.10699462890625 358.2300109863281 403.4936828613281 358.2300109863281 C 401.7936706542969 358.2300109863281 400.4670104980469 357.9633483886719 399.513671875 357.42999267578125 L 399.513671875 355.6199951171875 C 400.12701416015625 355.9333190917969 400.7870178222656 356.17999267578125 401.4936828613281 356.3599853515625 C 402.2003479003906 356.5400085449219 402.8836669921875 356.6300048828125 403.5436706542969 356.6300048828125 C 404.5570068359375 356.6300048828125 405.3370056152344 356.4666748046875 405.8836669921875 356.1400146484375 C 406.4303283691406 355.82000732421875 406.70367431640625 355.32666015625 406.70367431640625 354.6600036621094 C 406.70367431640625 354.1600036621094 406.48699951171875 353.73333740234375 406.0536804199219 353.3800048828125 C 405.6203308105469 353.0199890136719 404.7770080566406 352.6000061035156 403.523681640625 352.1199951171875 C 402.32366943359375 351.67333984375 401.4736633300781 351.2833251953125 400.9736633300781 350.95001220703125 C 400.4670104980469 350.6166687011719 400.09033203125 350.239990234375 399.8436584472656 349.82000732421875 C 399.5970153808594 349.3999938964844 399.4736633300781 348.89666748046875 399.4736633300781 348.30999755859375 C 399.4736633300781 347.2633361816406 399.90032958984375 346.4366760253906 400.753662109375 345.8299865722656 C 401.60699462890625 345.22332763671875 402.773681640625 344.9200134277344 404.253662109375 344.9200134277344 C 405.6403503417969 344.9200134277344 406.9936828613281 345.2033386230469 408.31365966796875 345.7699890136719 L 407.6236877441406 347.3500061035156 C 406.3303527832031 346.8166809082031 405.16033935546875 346.54998779296875 404.1136779785156 346.54998779296875 C 403.19366455078125 346.54998779296875 402.5003356933594 346.6933288574219 402.0336608886719 346.9800109863281 C 401.5603332519531 347.2733459472656 401.32366943359375 347.67333984375 401.32366943359375 348.17999267578125 C 401.32366943359375 348.52667236328125 401.4136657714844 348.82000732421875 401.5936584472656 349.05999755859375 C 401.7669982910156 349.29998779296875 402.05035400390625 349.5299987792969 402.44366455078125 349.75 C 402.8303527832031 349.9700012207031 403.5803527832031 350.28668212890625 404.69366455078125 350.70001220703125 C 406.21368408203125 351.2533264160156 407.2403259277344 351.80999755859375 407.773681640625 352.3699951171875 C 408.31365966796875 352.9366760253906 408.58367919921875 353.64666748046875 408.58367919921875 354.5 ZM 411.4656677246094 356.760009765625 C 411.4656677246094 356.23333740234375 411.5856628417969 355.836669921875 411.82568359375 355.57000732421875 C 412.065673828125 355.2966613769531 412.4056701660156 355.1600036621094 412.8456726074219 355.1600036621094 C 413.29901123046875 355.1600036621094 413.65234375 355.2966613769531 413.9056701660156 355.57000732421875 C 414.1656799316406 355.836669921875 414.295654296875 356.23333740234375 414.295654296875 356.760009765625 C 414.295654296875 357.26666259765625 414.1656799316406 357.65667724609375 413.9056701660156 357.92999267578125 C 413.6456604003906 358.2033386230469 413.2923278808594 358.3399963378906 412.8456726074219 358.3399963378906 C 412.45233154296875 358.3399963378906 412.1223449707031 358.2166748046875 411.8556823730469 357.9700012207031 C 411.5956726074219 357.72332763671875 411.4656677246094 357.32000732421875 411.4656677246094 356.760009765625 ZM 424.111328125 358.2300109863281 C 423.2779846191406 358.2300109863281 422.5146484375 358.07666015625 421.8213195800781 357.7699890136719 C 421.12799072265625 357.4633483886719 420.5479736328125 356.989990234375 420.0813293457031 356.3500061035156 L 419.9413146972656 356.3500061035156 C 420.03466796875 357.0966796875 420.0813293457031 357.8066711425781 420.0813293457031 358.4800109863281 L 420.0813293457031 363.7699890136719 L 418.1313171386719 363.7699890136719 L 418.1313171386719 345.1600036621094 L 419.7113342285156 345.1600036621094 L 419.9813232421875 346.9100036621094 L 420.0813293457031 346.9100036621094 C 420.5813293457031 346.2099914550781 421.16131591796875 345.7033386230469 421.8213195800781 345.3900146484375 C 422.48797607421875 345.07666015625 423.2513122558594 344.9200134277344 424.111328125 344.9200134277344 C 425.8113098144531 344.9200134277344 427.1246643066406 345.5033264160156 428.05133056640625 346.6700134277344 C 428.9779968261719 347.8299865722656 429.4413146972656 349.46331787109375 429.4413146972656 351.57000732421875 C 429.4413146972656 353.6766662597656 428.9713134765625 355.3133239746094 428.03131103515625 356.4800109863281 C 427.09130859375 357.64666748046875 425.78466796875 358.2300109863281 424.111328125 358.2300109863281 M 423.8313293457031 346.57000732421875 C 422.5179748535156 346.57000732421875 421.5679931640625 346.9333190917969 420.9813232421875 347.6600036621094 C 420.3946533203125 348.38665771484375 420.09466552734375 349.5433349609375 420.0813293457031 351.1300048828125 L 420.0813293457031 351.57000732421875 C 420.0813293457031 353.3699951171875 420.3813171386719 354.6600036621094 420.9813232421875 355.44000244140625 C 421.5813293457031 356.2200012207031 422.5446472167969 356.6099853515625 423.8713073730469 356.6099853515625 C 424.9846496582031 356.6099853515625 425.8546447753906 356.1600036621094 426.4813232421875 355.260009765625 C 427.1146545410156 354.3599853515625 427.4313049316406 353.1199951171875 427.4313049316406 351.5400085449219 C 427.4313049316406 349.94000244140625 427.1146545410156 348.71331787109375 426.4813232421875 347.8599853515625 C 425.8546447753906 347 424.9713134765625 346.57000732421875 423.8313293457031 346.57000732421875 ZM 434.7861328125 358 L 432.83612060546875 358 L 432.83612060546875 339.7699890136719 L 434.7861328125 339.7699890136719 L 434.7861328125 358 Z" transform="matrix(11.464508056640625, 0, 0, 11.464508056640625, -2757.90869140625, -3489.8994140625)" style="fill: rgb(0, 0, 0); white-space: pre; color: rgb(255, 255, 255); stroke: rgb(0, 0, 0); stroke-width: 2; paint-order: stroke; stroke-opacity: 1; fill-opacity: 1; -webkit-text-stroke: 0px rgb(0, 0, 0);"/></svg>