<?xml version="1.0" encoding="utf-8"?>
<svg id="master-artboard" viewBox="0 0 32 32" version="1.1" xmlns="http://www.w3.org/2000/svg" x="0px" y="0px" style="enable-background:new 0 0 336 235.2;" width="32px" height="32px"><rect id="ee-background" x="0" y="0" width="32" height="32" style="fill: white; fill-opacity: 0; pointer-events: none;"/><defs><style id="ee-google-fonts">@import url(https://fonts.googleapis.com/css?family=Audiowide:400);</style></defs>





















































































































































<g transform="matrix(0.35833329350489296, 0, 0, 0.35833329350489296, -21.949992643423865, -20.225002509553725)"><g id="g-1" transform="matrix(1, 0, 0, 1, 0, 0)">
	<g id="g-2">
		<path class="st0" d="M58,49h100v100H58V49z" style="fill: rgb(255, 245, 242);"/>
	</g>
</g></g><g transform="matrix(0.07904356718063354, 0, 0, 0.07904356718063354, -0.9912001490592957, 2.146237850189209)"><path class="st1" d="M180.2,298.6c-1.5,0.9-2.9,1.9-4.5,2.8c-5.9,3.5-9.3,3.7-13.1-2.9c-1.1-1.9-1.8-4.2-2-6.4&#10;&#9;c-0.6-7.9-4.6-13.8-10.1-19.2c-3.5-3.5-6.7-7.6-9.1-11.9c-1.7-3.1-3.7-6.6-2.3-10.6c2-5.6,3.9-11.2,6.2-16.7&#10;&#9;c4.1-9.3,8.4-18.6,12.9-27.8c2-4.1,2.4-8.2,2.3-12.6c-0.1-3.6-1.6-5.9-4.8-7.4c-3.4-1.5-5.8-3.8-7.3-7.3c-1.3-3.1-3.6-4.8-7.4-3.8&#10;&#9;c-8.8,2.1-17.2,0.7-25.3-3.1c-7.6-3.6-15.1-3.9-22.5,1c-1.9,1.2-4.1,1.9-6.2,2.8c-0.2-2.5-0.4-5-0.4-7.4c0-1,0.7-1.9,1.1-2.9&#10;&#9;c1-2.4,2-4.8,3.1-7.6c-3.8,0.9-7.1,2.2-10.4,2.2c-5.6,0-11.7,0.4-16.8-1.5c-7.7-2.9-14.5-8-20.2-14.2c-5.4-5.9-9.5-12.5-10.9-20.5&#10;&#9;c-1.8-10.3,2.3-18.8,9.3-25.4c7.5-7,16.4-12.5,24.5-18.9c3.1-2.4,6-5.2,8.6-8.1c3.3-3.8,3.5-7.9,0.9-12.4c-2.5-4.3-6.1-6.3-11-6.3&#10;&#9;c-1.3,0-2.7,0.2-4,0.2c-2.4,0-4.9-0.6-5.3-3.1c-0.2-1.4,1.5-3,2.2-4.6c0.8-1.6,1.7-3.2,2.1-4.8c0.4-1.3,0.2-2.8,0.2-4.2&#10;&#9;c1.7,0.2,3.5,0,5,0.6c2.8,1,5.4,2.5,8,3.8c3.7,1.8,8,3,10.9,5.6c13.6,12.5,16.9,24.2,5.5,38.6c-5.5,7-13,12.4-19.5,18.6&#10;&#9;c-1.7,1.6-3.6,3.3-4.6,5.3c-2.1,4.4,1.3,9.4,6.2,9.3c7.1-0.2,13.4-2.1,17.8-8.4c1.5-2.1,4.2-3.5,6.5-5c3.1-2,7.3-3.1,9.2-5.8&#10;&#9;c5-7.4,11-12.9,19.5-15.9c4.5-1.6,8.1-5.6,13.4-5.3c6.4,0.3,12.9,0.4,19.3,0.9c2.8,0.2,5.6,1,8.2,1.9c7.8,2.7,13.7,8,19,14&#10;&#9;c3.3,3.8,6.9,6.8,12.1,7.6c5.9,0.9,11.7,2.3,17.6,3.1c2.9,0.4,6,0.7,8.9,0.3c8-1.1,15.9-2.6,23.9-3.9c6-1,12-2.1,18-3.2&#10;&#9;c3.5-0.6,7-1.4,10.5-1.8c5.8-0.6,11,1.9,16.5,3.2c15,3.4,28.2,10.4,39.6,20.3c17.6,15.1,32,32.5,36.8,56.3&#10;&#9;c1.2,6.1,3.5,12.7,7.3,17.5c7.5,9.4,13.6,19.7,20.3,29.7c5.3,7.9,5,15.7-0.6,22c-0.5,0.6-1.4,0.8-2,1.2c-0.1-0.7-0.5-1.5-0.4-2.2&#10;&#9;c0.6-3.9-0.1-7.1-2.9-10.3c-1.9-2.2-3.2-5.5-3.6-8.4c-0.8-5.8-3.1-10.7-6.6-15.3c-5.6-7.4-12.4-14-16-22.9c-0.2-0.5-1.1-0.6-1.1-0.6&#10;&#9;c-1.6,9.9-2.7,19.9-5,29.5c-2.6,10.9,0,20.4,6.5,28.9c5.9,7.8,12.4,15.1,18.3,22.9c2,2.6,3.8,5.8,4.4,9c1.4,7.8,2,15.7,2.9,23.5&#10;&#9;c0.2,1.9,0.3,3.9,0.9,5.7c1.9,5.3-0.8,9.4-6.5,9.6c-1.3,0-2.7,0.1-4,0.4c-3,0.5-6,1.4-9.1,1.6c-4.6,0.4-9.2,0.6-13.8,0.4&#10;&#9;c-1.6-0.1-4.1-1.3-4.5-2.5c-0.9-2.9-0.9-5.9,1.4-8.8c6.5-8,6.6-17.1,2.9-26.2c-2.8-6.9-8.7-11.5-14.6-15.7&#10;&#9;c-9.1-6.5-20.5-9.8-27-19.7c-0.1-0.2-0.5-0.2-1.3-0.4c-1.2,1.7-2.6,3.4-3.6,5.3c-2.2,4.4-4.2,8.9-6,13.5c-2.2,5.6-4.1,11.3-6,17&#10;&#9;c-1.2,3.5-1.5,7.6-3.5,10.6c-2.9,4.4-3,8.8-2.8,13.6c0.3,5.7-5.8,10.1-11.4,8.7c-2.6-0.6-5.2-1.1-7.9-1.2&#10;&#9;c-5.2-0.2-10.5-0.1-15.7-0.1c-4.2,0-5.4-1.4-5-5.4c0.4-3.7,1.9-6.7,4.6-9.4c5.9-5.8,10.8-12.3,13.2-20.3c1.8-5.9,3.7-11.9,5.1-17.9&#10;&#9;c1.1-4.6,2-9.4,2-14.1c-0.1-10-0.5-10.1-10.6-10.3c-3.6-0.1-7.2-0.1-10.8-0.2c-1.3,0-2.8,0.1-4-0.4c-8.1-3.2-16.2-6.4-24.2-9.9&#10;&#9;c-3.6-1.6-4.8-1.6-6,2c-1,3.2-1.8,6.6-1.9,9.9c-0.3,6.9-0.2,13.8,0,20.7c0.2,10.4-1.5,20.4-5,30.3c-2.2,6.2-2.9,12.3,0.6,18.6&#10;&#9;c2.3,4.1-1.4,10.4-5.9,11.7c-9.3,2.7-18.7,1.6-28.1,1.4c-3.3-0.1-6.6-1.9-7.9-5.6c-1.2-3.5,0.3-6.4,2.7-8.9c1.6-1.7,3.1-3.4,4.6-5.1&#10;&#9;C180.7,299.3,180.4,298.9,180.2,298.6z M169.7,250.6c-0.6,1-0.1,3.2,0.7,4.3c2.1,3.5,4.7,6.7,6.9,10.2c2.1,3.2,4.7,5.1,8.7,5&#10;&#9;c2.8,0,3.4-1.3,2.8-3.7c-1.8-7.1-3.6-14.1-5.4-21.2c-0.5-1.9-0.9-3.7-1.6-6.4C176.6,242.1,172.6,245.9,169.7,250.6z" style="fill: rgb(255, 69, 243); opacity: 1; stroke: rgb(70, 67, 68); stroke-width: 8;" transform="matrix(1, 0, 0, 1, 0, 0)"/></g></svg>