<?xml version="1.0" encoding="utf-8"?>
<svg id="master-artboard" viewBox="0 0 32 32" version="1.1" xmlns="http://www.w3.org/2000/svg" x="0px" y="0px" style="enable-background:new 0 0 336 235.2;" width="32px" height="32px"><rect id="ee-background" x="0" y="0" width="32" height="32" style="fill: white; fill-opacity: 0; pointer-events: none;"/><defs><style id="ee-google-fonts">@import url(https://fonts.googleapis.com/css?family=Audiowide:400);</style></defs>





















































































































































<g transform="matrix(0.16455897688865662, 0, 0, 0.16455897688865662, -21.73937225341797, -121.44593048095703)"><g transform="matrix(1, 0, 0, 1, 1.1368683772161603e-13, 0)">
		<path class="st0" d="M200.9,785.4H254c4.1,0,7.5-3.4,7.5-7.5l0,0c0-4.1-3.4-7.5-7.5-7.5H246h-37h-8.1c-4.1,0-7.5,3.4-7.5,7.5l0,0&#10;&#9;&#9;&#9;C193.3,782,196.7,785.4,200.9,785.4L200.9,785.4z" style="fill-rule: evenodd; clip-rule: evenodd; fill: rgb(255, 99, 216); opacity: 1; stroke: rgb(0, 0, 0); stroke-width: 5;"/>
		<path d="M 262.8999938964844 786.7999877929688 L 263 786.7999877929688 L 263 786.7000122070312 L 262.8999938964844 786.7999877929688 Z" class="st0" style="fill-rule: evenodd; clip-rule: evenodd; fill: rgb(255, 99, 216); opacity: 1; stroke: rgb(0, 0, 0); stroke-width: 5;"/>
		<path class="st0" d="M246.1,865.7h17.5c2.4,0,4.3-1.9,4.3-4.3v-15.9c-3.1-4.2-5.5-10.2-1.6-12.7c6,14.5,20.3,24.8,37,24.8h13.2&#10;&#9;&#9;&#9;c2.4,0,4.3-1.9,4.3-4.3V782c0-2.4-1.9-4.3-4.3-4.3h-13.2c-19.3,0-35.5,13.8-39.2,32c-5.3-2.9-3.3-7.8-1.3-12&#10;&#9;&#9;&#9;c0.6-1.2,1.3-2.4,2-3.6c-0.9-2.2-2-4.2-3.3-6.2c-2.1,1.5-4.7,2.5-7.5,2.5h-53.2c-2.5,0-4.9-0.7-6.8-2c-1.1,1.8-2.1,3.7-3,5.8&#10;&#9;&#9;&#9;c0.7,1.2,1.4,2.3,2,3.6c2,4.1,4,9-1.3,12c-3.7-18.2-19.9-32-39.2-32h-13.2c-2.4,0-4.3,1.9-4.3,4.3v71.3c0,2.4,1.9,4.3,4.3,4.3&#10;&#9;&#9;&#9;h13.2c16.6,0,31-10.3,37-24.8c3.9,2.5,1.5,8.6-1.6,12.7v15.9c0,2.4,1.9,4.3,4.3,4.3h17.5V839c0-1.4,1.1-2.5,2.6-2.5&#10;&#9;&#9;&#9;c1.4,0,2.6,1.1,2.6,2.5v61.1c0,16.1,13.2,29.2,29.2,29.2c16.1,0,29.2-13.2,29.2-29.2v-14.3c0-4.7-3.8-8.5-8.6-8.5&#10;&#9;&#9;&#9;c-4.7,0-8.6,3.8-8.6,8.5v9.8c0,4.2-3.4,7.6-7.6,7.6c-4.2,0-7.6-3.4-7.6-7.6V839c0-1.4,1.1-2.5,2.6-2.5c1.4,0,2.6,1.1,2.6,2.5&#10;&#9;&#9;&#9;V865.7L246.1,865.7z M154.9,790.2c9.5,0,18.2,3.7,24.7,9.8c3.4,3.1,4.3,6.3,2.2,10.8c-5.4-9.3-15.5-15.5-26.9-15.5h-7.5&#10;&#9;&#9;&#9;C148.1,791.8,150.4,790.2,154.9,790.2L154.9,790.2z M300.9,790.2c-9.5,0-18.2,3.7-24.7,9.8c-3.4,3.1-4.3,6.3-2.2,10.8&#10;&#9;&#9;&#9;c5.4-9.3,15.5-15.5,26.9-15.5h7.5C307.7,791.8,305.5,790.2,300.9,790.2L300.9,790.2z M207,820.5c2.2,0,3.9,1.7,3.9,3.9&#10;&#9;&#9;&#9;c0,2.2-1.7,3.9-3.9,3.9c-2.2,0-3.9-1.7-3.9-3.9C203.1,822.2,204.8,820.5,207,820.5L207,820.5z M248.9,820.5c2.2,0,3.9,1.7,3.9,3.9&#10;&#9;&#9;&#9;c0,2.2-1.7,3.9-3.9,3.9c-2.2,0-3.9-1.7-3.9-3.9C245,822.2,246.7,820.5,248.9,820.5L248.9,820.5z" style="fill-rule: evenodd; clip-rule: evenodd; fill: rgb(255, 99, 216); opacity: 1; stroke: rgb(0, 0, 0); stroke-width: 5;"/>
		<path class="st0" d="M208.9,765.2H246c4.1,0,7.5-3.4,7.5-7.5l0,0c0-4.2-3.4-7.5-7.5-7.5h-37c-4.1,0-7.5,3.4-7.5,7.5l0,0&#10;&#9;&#9;&#9;C201.4,761.8,204.8,765.1,208.9,765.2L208.9,765.2z" style="fill-rule: evenodd; clip-rule: evenodd; fill: rgb(255, 99, 216); opacity: 1; stroke: rgb(0, 0, 0); stroke-width: 5;"/>
		<path class="st0" d="M219.9,745H235v-4.1c0-4.1-3.4-7.5-7.5-7.5l0,0c-4.2,0-7.5,3.4-7.5,7.5V745L219.9,745z" style="fill-rule: evenodd; clip-rule: evenodd; fill: rgb(255, 99, 216); opacity: 1; stroke: rgb(0, 0, 0); stroke-width: 5;"/>
	</g></g></svg>