<?xml version="1.0" encoding="utf-8"?>
<svg id="master-artboard" viewBox="0 0 1493.9451904296875 681.3252563476562" version="1.1" xmlns="http://www.w3.org/2000/svg" x="0px" y="0px" style="enable-background:new 0 0 336 235.2;" width="1493.9451904296875px" height="681.3252563476562px"><rect id="ee-background" x="0" y="0" width="1493.9451904296875" height="681.3252563476562" style="fill: white; fill-opacity: 0; pointer-events: none;"/><defs><style id="ee-google-fonts">@import url(https://fonts.googleapis.com/css?family=Audiowide:400);</style></defs>





















































































































































<g transform="matrix(0.9406349688002538, 0.3055733054902488, -0.30557583868754257, 0.9406349688002423, 653.0840981777154, -427.49297740373004)"><g transform="matrix(1, 0, 0, 1, 1.1368683772161603e-13, 0)"><g transform="matrix(1, 0, 0, 1, -68.63700866699213, -13.428979873657227)">
	<g>
		<g>
			<path class="st1" d="M636,765.7c-0.1-0.1-0.3-0.3-0.4-0.4c-1.9-2.3-1.5-5.7,0.8-7.5l27.6-21.7c2.3-1.9,5.7-1.5,7.6,0.8&#10;&#9;&#9;&#9;&#9;c1.9,2.3,1.5,5.7-0.8,7.6l-27.7,21.7C641,767.8,637.9,767.6,636,765.7z" style="fill: rgb(255, 99, 229); opacity: 1; stroke: rgb(0, 0, 0); stroke-width: 4;"/>
		</g>
		<path class="st1" d="M722,762.5l-7.7-7.7l-45.1,64.7c-8.8,8.4-22.8,8.3-31.4-0.3l-23.6-23.6c-8.7-8.7-8.8-22.7-0.3-31.5l63-46.8&#10;&#9;&#9;&#9;l-7.7-7.7l-62,46.1c-0.2,0.2-0.4,0.3-0.6,0.5c-12.9,12.9-12.9,34,0,46.9l23.6,23.6c12.9,12.9,34,12.9,46.9,0&#10;&#9;&#9;&#9;c0.2-0.2,0.4-0.5,0.6-0.7L722,762.5z" style="fill: rgb(255, 99, 229); opacity: 1; stroke: rgb(0, 0, 0); stroke-width: 4;"/>
		<g>
			<path class="st1" d="M736.5,682.8c-4,4-10.5,4-14.6,0c-4-4-4-10.5,0-14.6c4-4,10.5-4,14.6,0C740.5,672.2,740.5,678.8,736.5,682.8&#10;&#9;&#9;&#9;&#9;z" style="fill: rgb(255, 99, 229); opacity: 1; stroke: rgb(0, 0, 0); stroke-width: 4;"/>
		</g>
		<g>
			<path class="st1" d="M766.4,712.7c-4.3,4.3-11.3,4.3-15.7,0c-4.3-4.3-4.3-11.3,0-15.7c4.3-4.3,11.3-4.3,15.7,0&#10;&#9;&#9;&#9;&#9;C770.7,701.4,770.7,708.4,766.4,712.7z" style="fill: rgb(255, 99, 229); opacity: 1; stroke: rgb(0, 0, 0); stroke-width: 4;"/>
		</g>
		<g>
			<path class="st1" d="M727.1,721.3c-4.6,4.6-12,4.6-16.5,0c-4.6-4.6-4.6-12,0-16.5c4.6-4.6,12-4.6,16.5,0&#10;&#9;&#9;&#9;&#9;C731.7,709.3,731.7,716.7,727.1,721.3z" style="fill: rgb(255, 99, 229); opacity: 1; stroke: rgb(0, 0, 0); stroke-width: 4;"/>
		</g>
		<g>
			<path class="st1" d="M760.1,754.2c-4.6,4.6-12,4.6-16.5,0c-4.6-4.6-4.6-12,0-16.5c4.6-4.6,12-4.6,16.5,0&#10;&#9;&#9;&#9;&#9;C764.6,742.2,764.6,749.6,760.1,754.2z" style="fill: rgb(255, 99, 229); opacity: 1; stroke: rgb(0, 0, 0); stroke-width: 4;"/>
		</g>
		<g>
			<path class="st1" d="M695.3,689.5c-4.6,4.6-12,4.6-16.5,0c-4.6-4.6-4.6-12,0-16.5c4.6-4.6,12-4.6,16.5,0&#10;&#9;&#9;&#9;&#9;C699.9,677.5,699.9,684.9,695.3,689.5z" style="fill: rgb(255, 99, 229); opacity: 1; stroke: rgb(0, 0, 0); stroke-width: 4;"/>
		</g>
		<path class="st1" d="M773.5,659.9c-39.6-39.6-104.1-39.6-143.7,0c-2,2-3.8,4-5.6,6.1c-1.8,2.1-1.7,5.3,0.3,7.3l3.9,3.9l12,12&#10;&#9;&#9;&#9;l0.3,0.3l14,14l72.7,72.7l18,18l1,1l13.6,13.6c2,2,5.1,2.1,7.3,0.3c2.1-1.8,4.1-3.6,6.1-5.6C813,764,813.1,699.5,773.5,659.9z&#10;&#9;&#9;&#9; M764.1,797.7l-10-10l-1.8-1.8L649.1,682.8l-1.1-1.1l-12.3-12.3c0.6-0.6,1.1-1.2,1.7-1.8c35.4-35.4,93.1-35.4,128.5,0&#10;&#9;&#9;&#9;c35.4,35.4,35.4,93.1,0,128.5C765.3,796.6,764.7,797.2,764.1,797.7z" style="fill: rgb(255, 99, 229); opacity: 1; stroke: rgb(0, 0, 0); stroke-width: 4;"/>
	</g>
</g></g></g><g transform="matrix(-0.7932141423225404, -0.3125846683979034, -0.3125832080841065, 0.79321426153183, 1893.1686313417456, 339.4711202910855)"><g transform="matrix(1, 0, 0, 1, 0, 0)">
		<g>
			<path class="st2" d="M614.6,101.5c7.8,5.3,18.5,3.3,23.8-4.6c5.3-7.8,3.3-18.5-4.6-23.8c-7.8-5.3-18.5-3.3-23.8,4.6&#10;&#9;&#9;&#9;&#9;C604.8,85.5,606.8,96.2,614.6,101.5z" style="fill: rgb(255, 254, 252); stroke: rgb(0, 0, 0); stroke-width: 3; stroke-opacity: 1; fill-opacity: 0;"/>
			<path class="st2" d="M623.1,147.8c-2.7-1.9-7.5-0.2-10.1,4c-2.1,3.5-2.7,9.2-0.4,10.8l35.2,20.8c1.8,1.1,3.6,1.2,5.1,0.8&#10;&#9;&#9;&#9;&#9;c2-0.6,3.5-2.3,4.2-4.2c0.7-2.3,0.2-5.1-2.7-6.8l-7.5-6.1l-20.9-16.9L623.1,147.8z" style="fill: rgb(255, 254, 252); stroke: rgb(0, 0, 0); stroke-width: 3; stroke-opacity: 1; fill-opacity: 0;"/>
			<path class="st2" d="M611.4,124.2c-4.8,1.6-7.8,5.4-6.7,8.5l3.9,26.6c0,0,0.2-9.2,5.6-13c3.3-2.3,7.3-2.1,7.3-2.1l0.4-17.3&#10;&#9;&#9;&#9;&#9;C620.9,123.8,616.2,122.6,611.4,124.2z" style="fill: rgb(255, 254, 252); stroke: rgb(0, 0, 0); stroke-width: 3; stroke-opacity: 1; fill-opacity: 0;"/>
			<path class="st2" d="M593.9,167.8l10.4-14.4l-2.5-21.3c-0.7-2.9,3.6-8.7,8-10.5c4.4-1.9,8.8-1.8,11.9,2.1c0,0-0.3-5.9-4.3-8.6&#10;&#9;&#9;&#9;&#9;c0,0-17.2-11.5-17.7-11.7c-3.8-1.3-6.2,3-9.6,7.9l-29.1,42.2" style="fill: rgb(255, 254, 252); stroke: rgb(0, 0, 0); stroke-width: 3; stroke-opacity: 1; fill-opacity: 0;"/>
		</g>
		<g>
			<path class="st2" d="M500.8,269.8c0,23.1,18.8,41.9,41.9,41.9c21,0,38.3-15.4,41.4-35.6c0.2-0.3,0.4-0.5,0.6-0.5l19.3,0.1&#10;&#9;&#9;&#9;&#9;l45.6-53.6l4.3,13.4c0,0-5.5,4.5-10,11.8c-4.4,7.3-7.3,17.5-5.8,26.4c2.7,16.2,10.3,28.3,27.4,34.4c1.8,0.6,3.6,0.9,5.6,1.4&#10;&#9;&#9;&#9;&#9;c11.2,2.9,27.2-1.2,36.8-10c7.7-7,11.7-16.6,12.7-23.5c0.6-3.7,1-7.3,0.6-11c-1.2-11.4-5.8-23.6-20.7-32.5&#10;&#9;&#9;&#9;&#9;c-19.5-11.7-38.5-2.3-38.4-1.8c-4.6-14.1-9.2-28.2-13.8-42.2c-0.6-1.2-0.1-2.2-0.1-2.2l-6.7-3.9c-2,1-3.1,2.6-3.2,5l5.2,16.6&#10;&#9;&#9;&#9;&#9;l-24.1-0.1l0.2,8.4l24.9,0l-25,29.1l0.3,5.4c0.1,2.4-1,5.9-3.7,7.9c-1.8,1.4-7.3,2.1-9.5,1.8l-2.9,3.4c0,0-13.4-47.7-12.2-47.7&#10;&#9;&#9;&#9;&#9;l3,0l-1-5.6l-0.5-2.8l-4.2,0l-1.3-5l-23.5-11.5c-0.8-0.3-5-2.1-5-2.1c-0.6,2.5,0.5,9.8,5,12.5c0.7,0.4,11.9-1.4,11.9-1.4l2.5,9.1&#10;&#9;&#9;&#9;&#9;l-18.6,26.3c-5.3-2.5-11.2-3.9-17.5-3.9C519.6,227.9,500.8,246.7,500.8,269.8z M658,246.9c0,0.2,1.9,4.8,2.5,6&#10;&#9;&#9;&#9;&#9;c3.6,7.2,13.3,21.1,14.1,21.2c0.1,0,1,1.5,2.8,1.6c1,0,2.4-0.1,3.5-0.9c1.6-1.1,2.7-3.1,1.6-4.4c-4.1-4.6-13.1-20.4-15.1-24&#10;&#9;&#9;&#9;&#9;c-1.7-3.9-2.1-5.6-2.1-5.6s16-8.4,31.6,1.8c15.6,10.3,16.6,29.3,10.8,40.4c-5.8,11.1-19.5,19.5-33.4,16.9&#10;&#9;&#9;&#9;&#9;c-13.9-2.6-23.6-12.5-25.4-27.8C647,256.6,658,245.7,658,246.9z M568.3,236.7l13.8-19.4l0,0l13.9,48.7l-11.6,0.1&#10;&#9;&#9;&#9;&#9;C583.4,254.2,577.3,243.7,568.3,236.7z M573.9,265.8l-26.2,0.2l14.7-20.8C568.5,250.2,572.8,257.5,573.9,265.8z M511.3,269.8&#10;&#9;&#9;&#9;&#9;c0-17.4,14.1-31.4,31.4-31.4c4,0,7.8,0.8,11.3,2.2l-18.5,26.1c-2.5,3.6-2.4,7-0.3,8.5c0.9,0.6,2,0.8,3.2,0.5l35,0.2&#10;&#9;&#9;&#9;&#9;c-2.8,14.4-15.6,25.3-30.8,25.3C525.4,301.3,511.3,287.2,511.3,269.8z" style="fill: rgb(255, 254, 252); stroke: rgb(0, 0, 0); stroke-width: 3; stroke-opacity: 1; fill-opacity: 0;"/>
			<path class="st2" d="M605.8,194.9c4.7-0.2,10.6,2.5,10.9,5.6l0.1,3.6l0.2,8.4l0.7,31.8l0.1,2.4c0.1,2.4-0.8,4.2-2.1,5.5&#10;&#9;&#9;&#9;&#9;c-1.7,1.6-4,2.1-6.3,1.8c-0.1,0-0.2,0-0.2,0c-2.7-0.6-5.1-2.6-5.2-6.4l-1.8-10.8l-4.1-24.4l-1-5.6l-0.5-2.8l-0.3-1.5&#10;&#9;&#9;&#9;&#9;C595.8,198.9,600.1,195.1,605.8,194.9z" style="fill: rgb(255, 254, 252); stroke: rgb(0, 0, 0); stroke-width: 3; stroke-opacity: 1; fill-opacity: 0;"/>
			<path class="st2" d="M559.9,155.9l32.3,14.1c-1,2.1-1.3,4-1.2,5.6c0.2,0.1,0.4,0.3,0.5,0.4l25.6,19.7c-4-3.4-12.6-5.3-17.4-2.8&#10;&#9;&#9;&#9;&#9;c-4,2.1-6.1,6.1-6.1,6.1l-6.6-3.2l-23.5-11.5c-0.8-0.3-1.5-0.7-2-1c-0.3-0.2-0.6-0.4-0.8-0.6&#10;&#9;&#9;&#9;&#9;C549.2,170.9,559.9,155.9,559.9,155.9z" style="fill: rgb(255, 254, 252); stroke: rgb(0, 0, 0); stroke-width: 3; stroke-opacity: 1; fill-opacity: 0;"/>
			<path class="st2" d="M664.8,181.3h-6.6c1.1-1.9,1-4.7-0.2-6.5c-0.1-0.1-0.1-0.1-0.2-0.2l8.1,0.4l1.1,1.4l0.4,2.1l-0.8,2.1&#10;&#9;&#9;&#9;&#9;L664.8,181.3z" style="fill: rgb(255, 254, 252); stroke: rgb(0, 0, 0); stroke-width: 3; stroke-opacity: 1; fill-opacity: 0;"/>
			<path class="st2" d="M627.7,181.7l-1-0.5l-0.6-1.4l-0.4-1.6l0.2-1.8l0.5-1.3l1-0.8l13.3,7.7C636.4,181.9,632.1,181.8,627.7,181.7&#10;&#9;&#9;&#9;&#9;z" style="fill: rgb(255, 254, 252); stroke: rgb(0, 0, 0); stroke-width: 3; stroke-opacity: 1; fill-opacity: 0;"/>
		</g>
	</g></g><g transform="matrix(0.23300053179264066, 0.04389376193284988, -0.043894592672586434, 0.23300053179264066, 926.6515414979947, 4.382825308175427)"><g transform="matrix(1, 0, 0, 1, -42.80596923828125, -130.7960205078125)">
			<path fill="#CCCCCC" d="M1092.9,776.1l-15.6-7.9c-48.5-24.5-102.8-37.5-157.1-37.5c-54.3,0-108.7,13-157.1,37.5l-8.4,4.2&#10;&#9;&#9;&#9;&#9;L646,775.9c-6.2,0.2-11,5.2-11,11.4s4.8,11.2,11,11.4l106.2,3.4l10.8,5.5C811.4,832,865.8,845,920.1,845&#10;&#9;&#9;&#9;&#9;c10.8,0,21.7-0.5,32.4-1.5c-41.3,29.6-117.2,79.9-145,79.9l-0.3,0c-18.5-0.3-31.4-4.7-34.7-8.9c-0.3-0.4-0.5-0.8-0.6-1.1&#10;&#9;&#9;&#9;&#9;c1.1-0.4,3.5-1,8.3-1.4c2.6-0.2,4.9-1.7,6.1-4c1.2-2.3,1.2-5-0.1-7.3c-4.1-7.3-9.7-11.3-15.8-11.3c-2.5,0-5.1,0.7-7.6,2&#10;&#9;&#9;&#9;&#9;c-6.9,3.7-10.6,12-9.2,20.5c1.2,7.3,8.3,25.1,46.7,31.2c2.6,0.4,5.5,0.6,8.5,0.6c0,0,0,0,0,0c59.5,0,176.4-86.1,212.8-114&#10;&#9;&#9;&#9;&#9;c12-3.7,23.9-8,35.5-12.9l2.1,69.9c0.4,11,6.1,21.3,15.2,27.5c1.8,1.2,3.9,1.9,6.1,1.9c0,0,0,0,0,0c2.8,0,5.5-1.1,7.6-3&#10;&#9;&#9;&#9;&#9;c2.2-2.1,3.4-4.9,3.4-7.9V800.2l1.2-0.6c4.4-2.3,7.2-6.7,7.2-11.7S1097.3,778.4,1092.9,776.1z M1081.4,905.8&#10;&#9;&#9;&#9;&#9;c-0.3,0.3-0.8,0.4-1.2,0.1c-6.5-4.4-10.6-11.7-10.8-19.6l-2.2-74c3.4-1.6,6.8-3.2,10.1-4.9l4.4-2.2v99.9&#10;&#9;&#9;&#9;&#9;C1081.6,905.4,1081.5,905.6,1081.4,905.8z M809,933.7c-2.4,0-4.8-0.2-6.9-0.5c-0.2,0-0.5-0.1-0.7-0.1c1.9,0.1,3.8,0.2,5.7,0.2&#10;&#9;&#9;&#9;&#9;l0.4,0c40.2,0,153.1-83.3,165.4-92.4c7.7-1.2,15.4-2.6,22.9-4.3C948.3,871.5,856.8,933.7,809,933.7&#10;&#9;&#9;&#9;&#9;C809,933.7,809,933.7,809,933.7z M763.5,907.4c0.2-3.6,2.1-6.1,4.2-7.3c1-0.6,2-0.8,2.8-0.8c1.9,0,3.6,1.5,5,3.1&#10;&#9;&#9;&#9;&#9;C769.3,903.2,765.4,904.8,763.5,907.4z M920.1,835c-52.8,0-105.5-12.6-152.6-36.4l-15.6-7.9c-1.1-0.5-1.7-1.6-1.7-2.8&#10;&#9;&#9;&#9;&#9;s0.7-2.3,1.7-2.8l15.6-7.9c47.1-23.8,99.9-36.4,152.6-36.4c52.8,0,105.5,12.6,152.6,36.4l15.6,7.9c1.1,0.5,1.7,1.6,1.7,2.8&#10;&#9;&#9;&#9;&#9;s-0.7,2.3-1.7,2.8l-15.6,7.9C1025.6,822.4,972.9,835,920.1,835z M645,787.3c0-0.7,0.6-1.3,1.3-1.4l94.8-3c-0.6,1.5-1,3.2-1,5&#10;&#9;&#9;&#9;&#9;c0,1.3,0.2,2.6,0.6,3.8l-94.4-3C645.5,788.6,645,788,645,787.3z" style="fill: rgb(51, 51, 51);"/>
			<path fill="#CCCCCC" d="M1047,778.1l-11.4-5.8c-35.6-18-75.6-27.6-115.5-27.6c-39.9,0-79.9,9.5-115.5,27.6l-11.4,5.8&#10;&#9;&#9;&#9;&#9;c-3.1,1.6-5.2,4.4-5.8,7.7c0,0.1,0,0.1-0.1,0.2c0,0,0,0,0,0.1c0,0.2-0.1,0.4-0.1,0.5c-0.1,0.4-0.1,0.8-0.1,1.2&#10;&#9;&#9;&#9;&#9;c0,4.2,2.3,7.9,6,9.8l11.4,5.8c35.6,18,75.6,27.6,115.5,27.6c39.9,0,79.9-9.5,115.5-27.6l11.4-5.8c3.7-1.9,6-5.6,6-9.8&#10;&#9;&#9;&#9;&#9;c0-1-0.1-2.1-0.4-3C1051.8,781.9,1049.8,779.5,1047,778.1z M1042.5,788.7l-11.4,5.8c-31.8,16.1-67.3,25.2-102.9,26.3&#10;&#9;&#9;&#9;&#9;c34-2.4,67.5-11.6,97.9-26.9l11.4-5.8c1.1-0.6,2.1-1.3,2.9-2.2l2.1,1.1c0.3,0.2,0.5,0.5,0.5,0.9&#10;&#9;&#9;&#9;&#9;C1043,788.2,1042.8,788.5,1042.5,788.7z M1030,780.7l-8.4,4.3c-34.2,17.3-72.6,26.5-111,26.5c-38,0-75.9-9-109.9-25.9l8.4-4.3&#10;&#9;&#9;&#9;&#9;c34.2-17.3,72.6-26.5,111-26.5C958.1,754.7,996,763.7,1030,780.7z" style="fill: rgb(51, 51, 51);"/>
			<path fill="#CCCCCC" d="M920.1,808.9c11.6,0,21.1-9.5,21.1-21.1c0-11.6-9.5-21.1-21.1-21.1c-11.6,0-21.1,9.5-21.1,21.1&#10;&#9;&#9;&#9;&#9;C899,799.5,908.5,808.9,920.1,808.9z M920.1,776.8c6.1,0,11.1,5,11.1,11.1c0,6.1-5,11.1-11.1,11.1c-6.1,0-11.1-5-11.1-11.1&#10;&#9;&#9;&#9;&#9;C909,781.7,914,776.8,920.1,776.8z" style="fill: rgb(51, 51, 51);"/>
			<path fill="#CCCCCC" d="M1103.8,759.2c-0.7-0.7-18.5-16.5-53.4-32C1019.5,713.4,968.2,697,899,697c-1.7,0-3.4,0-5,0h-0.3&#10;&#9;&#9;&#9;&#9;c-42.5,0-79,12.4-102.2,22.7c-19.9,8.9-33.5,17.8-38.6,21.3l-111.4,3c-4.8,0.1-8.6,4.1-8.5,8.9c0.1,4.7,4,8.5,8.7,8.5l114.3-3&#10;&#9;&#9;&#9;&#9;l1.2,0c1,0,2-0.4,2.9-1l0.9-0.7c0.6-0.4,57.6-42.3,132.8-42.3l0.3,0c68.4-0.8,118.8,15.2,148.8,28.5&#10;&#9;&#9;&#9;&#9;c32.2,14.3,49.1,29.1,49.2,29.2c1.6,1.4,3.7,2.2,5.8,2.2c2.5,0,4.8-1,6.5-2.9c1.6-1.7,2.3-4,2.2-6.3&#10;&#9;&#9;&#9;&#9;C1106.5,762.9,1105.5,760.8,1103.8,759.2z" style="fill: rgb(51, 51, 51);"/>
		</g></g><g transform="matrix(2.8187456635178507, 0.33467521522175303, -0.3346791789255905, 2.8187447098435157, 1174.2911477486145, -3021.583751798949)"><g id="Layer_2_41_" transform="matrix(1, 0, 0, 1, 0, 0)">
	<g id="Layer_1-2_39_">
		<g>
			<path class="st0" d="M160.2,1162H49.8l55.2-96.6L160.2,1162z M60.2,1156h89.7l-44.8-78.5L60.2,1156z" style="fill: rgb(0, 0, 0); stroke: rgb(0, 0, 0); stroke-width: 0;"/>
		</g>
	</g>
</g></g><g transform="matrix(0.9436508417129517, -0.40831130743026733, 0.40831661224365234, 0.9436508417129517, 381.85273685521713, 54.94125190026821)"><g transform="matrix(1, 0, 0, 1, 1.1368683772161603e-13, 0)"><g transform="matrix(1, 0, 0, 1, -68.63700866699213, -13.428979873657227)">
	<g>
		<g>
			<path class="st1" d="M636,765.7c-0.1-0.1-0.3-0.3-0.4-0.4c-1.9-2.3-1.5-5.7,0.8-7.5l27.6-21.7c2.3-1.9,5.7-1.5,7.6,0.8&#10;&#9;&#9;&#9;&#9;c1.9,2.3,1.5,5.7-0.8,7.6l-27.7,21.7C641,767.8,637.9,767.6,636,765.7z" style="fill: rgb(0, 0, 0); opacity: 1; fill-opacity: 1; stroke-opacity: 0; stroke: rgb(0, 0, 0); stroke-width: 2;"/>
		</g>
		<path class="st1" d="M722,762.5l-7.7-7.7l-45.1,64.7c-8.8,8.4-22.8,8.3-31.4-0.3l-23.6-23.6c-8.7-8.7-8.8-22.7-0.3-31.5l63-46.8&#10;&#9;&#9;&#9;l-7.7-7.7l-62,46.1c-0.2,0.2-0.4,0.3-0.6,0.5c-12.9,12.9-12.9,34,0,46.9l23.6,23.6c12.9,12.9,34,12.9,46.9,0&#10;&#9;&#9;&#9;c0.2-0.2,0.4-0.5,0.6-0.7L722,762.5z" style="fill: rgb(0, 0, 0); opacity: 1; fill-opacity: 1; stroke-opacity: 0; stroke: rgb(0, 0, 0); stroke-width: 2;"/>
		<g>
			<path class="st1" d="M736.5,682.8c-4,4-10.5,4-14.6,0c-4-4-4-10.5,0-14.6c4-4,10.5-4,14.6,0C740.5,672.2,740.5,678.8,736.5,682.8&#10;&#9;&#9;&#9;&#9;z" style="fill: rgb(0, 0, 0); opacity: 1; fill-opacity: 1; stroke-opacity: 0; stroke: rgb(0, 0, 0); stroke-width: 2;"/>
		</g>
		<g>
			<path class="st1" d="M766.4,712.7c-4.3,4.3-11.3,4.3-15.7,0c-4.3-4.3-4.3-11.3,0-15.7c4.3-4.3,11.3-4.3,15.7,0&#10;&#9;&#9;&#9;&#9;C770.7,701.4,770.7,708.4,766.4,712.7z" style="fill: rgb(0, 0, 0); opacity: 1; fill-opacity: 1; stroke-opacity: 0; stroke: rgb(0, 0, 0); stroke-width: 2;"/>
		</g>
		<g>
			<path class="st1" d="M727.1,721.3c-4.6,4.6-12,4.6-16.5,0c-4.6-4.6-4.6-12,0-16.5c4.6-4.6,12-4.6,16.5,0&#10;&#9;&#9;&#9;&#9;C731.7,709.3,731.7,716.7,727.1,721.3z" style="fill: rgb(0, 0, 0); opacity: 1; fill-opacity: 1; stroke-opacity: 0; stroke: rgb(0, 0, 0); stroke-width: 2;"/>
		</g>
		<g>
			<path class="st1" d="M760.1,754.2c-4.6,4.6-12,4.6-16.5,0c-4.6-4.6-4.6-12,0-16.5c4.6-4.6,12-4.6,16.5,0&#10;&#9;&#9;&#9;&#9;C764.6,742.2,764.6,749.6,760.1,754.2z" style="fill: rgb(0, 0, 0); opacity: 1; fill-opacity: 1; stroke-opacity: 0; stroke: rgb(0, 0, 0); stroke-width: 2;"/>
		</g>
		<g>
			<path class="st1" d="M695.3,689.5c-4.6,4.6-12,4.6-16.5,0c-4.6-4.6-4.6-12,0-16.5c4.6-4.6,12-4.6,16.5,0&#10;&#9;&#9;&#9;&#9;C699.9,677.5,699.9,684.9,695.3,689.5z" style="fill: rgb(0, 0, 0); opacity: 1; fill-opacity: 1; stroke-opacity: 0; stroke: rgb(0, 0, 0); stroke-width: 2;"/>
		</g>
		<path class="st1" d="M773.5,659.9c-39.6-39.6-104.1-39.6-143.7,0c-2,2-3.8,4-5.6,6.1c-1.8,2.1-1.7,5.3,0.3,7.3l3.9,3.9l12,12&#10;&#9;&#9;&#9;l0.3,0.3l14,14l72.7,72.7l18,18l1,1l13.6,13.6c2,2,5.1,2.1,7.3,0.3c2.1-1.8,4.1-3.6,6.1-5.6C813,764,813.1,699.5,773.5,659.9z&#10;&#9;&#9;&#9; M764.1,797.7l-10-10l-1.8-1.8L649.1,682.8l-1.1-1.1l-12.3-12.3c0.6-0.6,1.1-1.2,1.7-1.8c35.4-35.4,93.1-35.4,128.5,0&#10;&#9;&#9;&#9;c35.4,35.4,35.4,93.1,0,128.5C765.3,796.6,764.7,797.2,764.1,797.7z" style="fill: rgb(0, 0, 0); opacity: 1; fill-opacity: 1; stroke-opacity: 0; stroke: rgb(0, 0, 0); stroke-width: 2;"/>
	</g>
</g></g></g><g transform="matrix(0.29210105538368225, 0.7000752687454224, -0.700086236000061, 0.29210105538368225, 1162.3016987345336, -334.7233782030834)"><g transform="matrix(1, 0, 0, 1, 1.1368683772161603e-13, 0)"><g transform="matrix(1, 0, 0, 1, -68.63700866699213, -13.428979873657227)">
	<g>
		<g>
			<path class="st1" d="M636,765.7c-0.1-0.1-0.3-0.3-0.4-0.4c-1.9-2.3-1.5-5.7,0.8-7.5l27.6-21.7c2.3-1.9,5.7-1.5,7.6,0.8&#10;&#9;&#9;&#9;&#9;c1.9,2.3,1.5,5.7-0.8,7.6l-27.7,21.7C641,767.8,637.9,767.6,636,765.7z" style="fill: rgb(0, 0, 0); opacity: 1; fill-opacity: 1; stroke-opacity: 0; stroke: rgb(0, 0, 0); stroke-width: 2;"/>
		</g>
		<path class="st1" d="M722,762.5l-7.7-7.7l-45.1,64.7c-8.8,8.4-22.8,8.3-31.4-0.3l-23.6-23.6c-8.7-8.7-8.8-22.7-0.3-31.5l63-46.8&#10;&#9;&#9;&#9;l-7.7-7.7l-62,46.1c-0.2,0.2-0.4,0.3-0.6,0.5c-12.9,12.9-12.9,34,0,46.9l23.6,23.6c12.9,12.9,34,12.9,46.9,0&#10;&#9;&#9;&#9;c0.2-0.2,0.4-0.5,0.6-0.7L722,762.5z" style="fill: rgb(0, 0, 0); opacity: 1; fill-opacity: 1; stroke-opacity: 0; stroke: rgb(0, 0, 0); stroke-width: 2;"/>
		<g>
			<path class="st1" d="M736.5,682.8c-4,4-10.5,4-14.6,0c-4-4-4-10.5,0-14.6c4-4,10.5-4,14.6,0C740.5,672.2,740.5,678.8,736.5,682.8&#10;&#9;&#9;&#9;&#9;z" style="fill: rgb(0, 0, 0); opacity: 1; fill-opacity: 1; stroke-opacity: 0; stroke: rgb(0, 0, 0); stroke-width: 2;"/>
		</g>
		<g>
			<path class="st1" d="M766.4,712.7c-4.3,4.3-11.3,4.3-15.7,0c-4.3-4.3-4.3-11.3,0-15.7c4.3-4.3,11.3-4.3,15.7,0&#10;&#9;&#9;&#9;&#9;C770.7,701.4,770.7,708.4,766.4,712.7z" style="fill: rgb(0, 0, 0); opacity: 1; fill-opacity: 1; stroke-opacity: 0; stroke: rgb(0, 0, 0); stroke-width: 2;"/>
		</g>
		<g>
			<path class="st1" d="M727.1,721.3c-4.6,4.6-12,4.6-16.5,0c-4.6-4.6-4.6-12,0-16.5c4.6-4.6,12-4.6,16.5,0&#10;&#9;&#9;&#9;&#9;C731.7,709.3,731.7,716.7,727.1,721.3z" style="fill: rgb(0, 0, 0); opacity: 1; fill-opacity: 1; stroke-opacity: 0; stroke: rgb(0, 0, 0); stroke-width: 2;"/>
		</g>
		<g>
			<path class="st1" d="M760.1,754.2c-4.6,4.6-12,4.6-16.5,0c-4.6-4.6-4.6-12,0-16.5c4.6-4.6,12-4.6,16.5,0&#10;&#9;&#9;&#9;&#9;C764.6,742.2,764.6,749.6,760.1,754.2z" style="fill: rgb(0, 0, 0); opacity: 1; fill-opacity: 1; stroke-opacity: 0; stroke: rgb(0, 0, 0); stroke-width: 2;"/>
		</g>
		<g>
			<path class="st1" d="M695.3,689.5c-4.6,4.6-12,4.6-16.5,0c-4.6-4.6-4.6-12,0-16.5c4.6-4.6,12-4.6,16.5,0&#10;&#9;&#9;&#9;&#9;C699.9,677.5,699.9,684.9,695.3,689.5z" style="fill: rgb(0, 0, 0); opacity: 1; fill-opacity: 1; stroke-opacity: 0; stroke: rgb(0, 0, 0); stroke-width: 2;"/>
		</g>
		<path class="st1" d="M773.5,659.9c-39.6-39.6-104.1-39.6-143.7,0c-2,2-3.8,4-5.6,6.1c-1.8,2.1-1.7,5.3,0.3,7.3l3.9,3.9l12,12&#10;&#9;&#9;&#9;l0.3,0.3l14,14l72.7,72.7l18,18l1,1l13.6,13.6c2,2,5.1,2.1,7.3,0.3c2.1-1.8,4.1-3.6,6.1-5.6C813,764,813.1,699.5,773.5,659.9z&#10;&#9;&#9;&#9; M764.1,797.7l-10-10l-1.8-1.8L649.1,682.8l-1.1-1.1l-12.3-12.3c0.6-0.6,1.1-1.2,1.7-1.8c35.4-35.4,93.1-35.4,128.5,0&#10;&#9;&#9;&#9;c35.4,35.4,35.4,93.1,0,128.5C765.3,796.6,764.7,797.2,764.1,797.7z" style="fill: rgb(0, 0, 0); opacity: 1; fill-opacity: 1; stroke-opacity: 0; stroke: rgb(0, 0, 0); stroke-width: 2;"/>
	</g>
</g></g></g><g transform="matrix(-0.2107537715123505, 0.5023451080056708, -0.5023522992819743, -0.21075503426622524, 1294.3463400062349, -5.939541667293923)"><g transform="matrix(1, 0, 0, 1, 1.1368683772161603e-13, 0)"><g transform="matrix(1, 0, 0, 1, -68.63700866699213, -13.428979873657227)">
	<g>
		<g>
			<path class="st1" d="M636,765.7c-0.1-0.1-0.3-0.3-0.4-0.4c-1.9-2.3-1.5-5.7,0.8-7.5l27.6-21.7c2.3-1.9,5.7-1.5,7.6,0.8&#10;&#9;&#9;&#9;&#9;c1.9,2.3,1.5,5.7-0.8,7.6l-27.7,21.7C641,767.8,637.9,767.6,636,765.7z" style="fill: rgb(0, 0, 0); opacity: 1; fill-opacity: 1; stroke-opacity: 0; stroke: rgb(0, 0, 0); stroke-width: 2;"/>
		</g>
		<path class="st1" d="M722,762.5l-7.7-7.7l-45.1,64.7c-8.8,8.4-22.8,8.3-31.4-0.3l-23.6-23.6c-8.7-8.7-8.8-22.7-0.3-31.5l63-46.8&#10;&#9;&#9;&#9;l-7.7-7.7l-62,46.1c-0.2,0.2-0.4,0.3-0.6,0.5c-12.9,12.9-12.9,34,0,46.9l23.6,23.6c12.9,12.9,34,12.9,46.9,0&#10;&#9;&#9;&#9;c0.2-0.2,0.4-0.5,0.6-0.7L722,762.5z" style="fill: rgb(0, 0, 0); opacity: 1; fill-opacity: 1; stroke-opacity: 0; stroke: rgb(0, 0, 0); stroke-width: 2;"/>
		<g>
			<path class="st1" d="M736.5,682.8c-4,4-10.5,4-14.6,0c-4-4-4-10.5,0-14.6c4-4,10.5-4,14.6,0C740.5,672.2,740.5,678.8,736.5,682.8&#10;&#9;&#9;&#9;&#9;z" style="fill: rgb(0, 0, 0); opacity: 1; fill-opacity: 1; stroke-opacity: 0; stroke: rgb(0, 0, 0); stroke-width: 2;"/>
		</g>
		<g>
			<path class="st1" d="M766.4,712.7c-4.3,4.3-11.3,4.3-15.7,0c-4.3-4.3-4.3-11.3,0-15.7c4.3-4.3,11.3-4.3,15.7,0&#10;&#9;&#9;&#9;&#9;C770.7,701.4,770.7,708.4,766.4,712.7z" style="fill: rgb(0, 0, 0); opacity: 1; fill-opacity: 1; stroke-opacity: 0; stroke: rgb(0, 0, 0); stroke-width: 2;"/>
		</g>
		<g>
			<path class="st1" d="M727.1,721.3c-4.6,4.6-12,4.6-16.5,0c-4.6-4.6-4.6-12,0-16.5c4.6-4.6,12-4.6,16.5,0&#10;&#9;&#9;&#9;&#9;C731.7,709.3,731.7,716.7,727.1,721.3z" style="fill: rgb(0, 0, 0); opacity: 1; fill-opacity: 1; stroke-opacity: 0; stroke: rgb(0, 0, 0); stroke-width: 2;"/>
		</g>
		<g>
			<path class="st1" d="M760.1,754.2c-4.6,4.6-12,4.6-16.5,0c-4.6-4.6-4.6-12,0-16.5c4.6-4.6,12-4.6,16.5,0&#10;&#9;&#9;&#9;&#9;C764.6,742.2,764.6,749.6,760.1,754.2z" style="fill: rgb(0, 0, 0); opacity: 1; fill-opacity: 1; stroke-opacity: 0; stroke: rgb(0, 0, 0); stroke-width: 2;"/>
		</g>
		<g>
			<path class="st1" d="M695.3,689.5c-4.6,4.6-12,4.6-16.5,0c-4.6-4.6-4.6-12,0-16.5c4.6-4.6,12-4.6,16.5,0&#10;&#9;&#9;&#9;&#9;C699.9,677.5,699.9,684.9,695.3,689.5z" style="fill: rgb(0, 0, 0); opacity: 1; fill-opacity: 1; stroke-opacity: 0; stroke: rgb(0, 0, 0); stroke-width: 2;"/>
		</g>
		<path class="st1" d="M773.5,659.9c-39.6-39.6-104.1-39.6-143.7,0c-2,2-3.8,4-5.6,6.1c-1.8,2.1-1.7,5.3,0.3,7.3l3.9,3.9l12,12&#10;&#9;&#9;&#9;l0.3,0.3l14,14l72.7,72.7l18,18l1,1l13.6,13.6c2,2,5.1,2.1,7.3,0.3c2.1-1.8,4.1-3.6,6.1-5.6C813,764,813.1,699.5,773.5,659.9z&#10;&#9;&#9;&#9; M764.1,797.7l-10-10l-1.8-1.8L649.1,682.8l-1.1-1.1l-12.3-12.3c0.6-0.6,1.1-1.2,1.7-1.8c35.4-35.4,93.1-35.4,128.5,0&#10;&#9;&#9;&#9;c35.4,35.4,35.4,93.1,0,128.5C765.3,796.6,764.7,797.2,764.1,797.7z" style="fill: rgb(0, 0, 0); opacity: 1; fill-opacity: 1; stroke-opacity: 0; stroke: rgb(0, 0, 0); stroke-width: 2;"/>
	</g>
</g></g></g></svg>