<?xml version="1.0" encoding="utf-8"?>
<svg id="master-artboard" viewBox="0 0 4275.59716796875 946.3036499023438" version="1.1" xmlns="http://www.w3.org/2000/svg" x="0px" y="0px" style="enable-background:new 0 0 336 235.2;" width="4275.59716796875px" height="946.3036499023438px"><rect id="ee-background" x="0" y="0" width="4275.59716796875" height="946.3036499023438" style="fill: white; fill-opacity: 0; pointer-events: none;"/><defs><linearGradient id="gradient-0" gradientUnits="userSpaceOnUse" x1="457.45069885253906" y1="358" x2="457.45069885253906" y2="390.68957901000977">
                <stop offset="0" style="stop-color: #333333"/>
                <stop offset="1" style="stop-color: #000000"/>
              </linearGradient><radialGradient id="gradient-1" gradientUnits="objectBoundingBox" cx="0.5" cy="0.5" r="0.5">
                <stop offset="0" style="stop-color: #333333"/>
                <stop offset="1" style="stop-color: #000000"/>
              </radialGradient></defs>





















































































































































<g transform="matrix(5.064630031585693, 0, 0, 5.064630031585693, -1748.9066162109373, -2558.036376953125)"><g transform="matrix(1, 0, 0, 1, 5.684341886080802e-14, 0)">
	
	
	<g>
		<path class="st0" d="M449.9,564l0.1,1l-1.5,0.3l-0.2,2.2h1.8l2.4-0.2l1.2-1.5l-1.3-0.5l-0.7-0.8l-1.1-1.8l-0.5-2.5l-2.1,0.4&#10;&#9;&#9;&#9;l-0.6,0.9v1l1,0.7L449.9,564z M449.9,564" style="fill: rgb(0, 0, 0); opacity: 1;"/>
		<path class="st0" d="M448.2,564.8l0.1-1.4l-1.2-0.5l-1.7,0.4l-1.3,2v1.3h1.5L448.2,564.8z M448.2,564.8" style="fill: rgb(0, 0, 0); opacity: 1;"/>
		<path class="st0" d="M413.4,570.6l-0.4,1h-1.8v0.9h0.4c0,0,0,0.2,0.1,0.5l1.1-0.1l0.7-0.4l0.2-0.9l0.9-0.1l0.3-0.7l-0.8-0.2&#10;&#9;&#9;&#9;L413.4,570.6z M413.4,570.6" style="fill: rgb(0, 0, 0); opacity: 1;"/>
		<path class="st0" d="M408.8,572.2l-0.1,0.9l1.3-0.1l0.1-0.9l-0.8-0.6L408.8,572.2z M408.8,572.2" style="fill: rgb(0, 0, 0); opacity: 1;"/>
		<path class="st0" d="M487.1,601.3c0-2-0.1-4-0.3-6c-0.6-6.5-2.2-12.8-4.5-18.6c-0.2-0.4-0.3-0.9-0.5-1.3&#10;&#9;&#9;&#9;c-3.1-7.4-7.5-14.1-12.8-19.8c-0.3-0.4-0.7-0.7-1.1-1.1c-1-1-2-2.1-3.1-3.1c-12.2-11.1-28.3-17.9-46.1-17.9&#10;&#9;&#9;&#9;c-17.9,0-34.2,6.9-46.4,18.1c-2.8,2.6-5.5,5.5-7.8,8.5c-9,11.6-14.3,26.1-14.3,41.8c0,37.8,30.7,68.5,68.5,68.5&#10;&#9;&#9;&#9;c26.6,0,49.6-15.2,61-37.4c2.4-4.7,4.3-9.8,5.6-15.1c0.3-1.3,0.6-2.7,0.9-4.1c0.7-3.9,1.1-7.9,1.1-12&#10;&#9;&#9;&#9;C487.1,601.7,487.1,601.5,487.1,601.3L487.1,601.3z M474.2,573.9l0.4-0.5c0.5,1,1,2,1.5,3.1l-0.6,0l-1.2,0.2V573.9z M464.3,562&#10;&#9;&#9;&#9;l0-3.1c1.1,1.1,2.1,2.3,3.1,3.5l-1.2,1.8l-4.3,0l-0.3-0.9L464.3,562z M381.7,554.4v-0.1h1.4l0.1-0.5h2.3v1l-0.6,0.9h-3.1V554.4z&#10;&#9;&#9;&#9; M383.9,557.4c0,0,1.4-0.2,1.5-0.2c0.1,0,0,1.4,0,1.4l-3.1,0.2l-0.6-0.7L383.9,557.4z M478.6,584.6h-5l-3.1-2.3l-3.2,0.3v2h-1&#10;&#9;&#9;&#9;l-1.1-0.8l-5.6-1.4v-3.6l-7.1,0.6l-2.2,1.2h-2.8l-1.4-0.2l-3.4,1.9v3.5l-6.9,5l0.6,2.1h1.4l-0.4,2l-1,0.4l-0.1,5.3l6,6.8h2.6&#10;&#9;&#9;&#9;l0.2-0.4h4.7l1.3-1.2h2.7l1.5,1.5l4,0.4l-0.5,5.3l4.4,7.8l-2.3,4.4l0.2,2.1l1.8,1.8v5l2.4,3.2v4.2h2.1&#10;&#9;&#9;&#9;c-11.5,14.2-29.1,23.2-48.7,23.2c-34.7,0-62.8-28.2-62.8-62.9c0-8.7,1.8-17,5-24.6v-2l2.3-2.7c0.8-1.5,1.6-2.9,2.5-4.3l0.1,1.1&#10;&#9;&#9;&#9;l-2.6,3.2c-0.8,1.5-1.6,3.1-2.2,4.7v3.6l2.6,1.3v5l2.5,4.3l2,0.3l0.3-1.5l-2.4-3.7l-0.5-3.6h1.4l0.6,3.7l3.5,5.1l-0.9,1.6l2.2,3.4&#10;&#9;&#9;&#9;l5.5,1.3v-0.9l2.2,0.3l-0.2,1.6l1.7,0.3l2.7,0.7l3.8,4.3l4.8,0.4l0.5,3.9l-3.3,2.3l-0.2,3.5l-0.5,2.1l4.8,6l0.4,2&#10;&#9;&#9;&#9;c0,0,1.7,0.5,1.9,0.5c0.2,0,3.9,2.8,3.9,2.8v10.8l1.3,0.4l-0.9,5l2.2,2.9l-0.4,4.9l2.9,5.1l3.7,3.2l3.7,0.1l0.4-1.2l-2.7-2.3&#10;&#9;&#9;&#9;l0.2-1.1l0.5-1.4l0.1-1.4l-1.9-0.1l-0.9-1.2l1.5-1.5l0.2-1.1l-1.7-0.5l0.1-1l2.5-0.4l3.7-1.8l1.3-2.3l3.9-5l-0.9-3.9l1.2-2.1&#10;&#9;&#9;&#9;l3.6,0.1l2.4-1.9l0.8-7.6l2.7-3.4l0.5-2.2l-2.5-0.8l-1.6-2.7l-5.5-0.1l-4.4-1.7l-0.2-3.1l-1.5-2.6l-4-0.1l-2.3-3.6l-2-1l-0.1,1.1&#10;&#9;&#9;&#9;l-3.7,0.2l-1.4-1.9l-3.9-0.8l-3.2,3.7l-5-0.8l-0.4-5.7l-3.7-0.6l1.5-2.8l-0.4-1.6l-4.8,3.2l-3-0.4l-1.1-2.4l0.6-2.4l1.7-3.1&#10;&#9;&#9;&#9;l3.8-1.9h7.4l0,2.3l2.7,1.2l-0.2-3.9l1.9-1.9l3.9-2.5l0.3-1.8l3.9-4l4.1-2.3l-0.4-0.3l2.8-2.6l1,0.3l0.5,0.6l1.1-1.2l0.3-0.1&#10;&#9;&#9;&#9;l-1.2-0.2l-1.2-0.4v-1.1l0.6-0.5h1.4l0.6,0.3l0.5,1.1l0.7-0.1v-0.1l0.2,0.1l1.9-0.3l0.3-1l1.1,0.3v1l-1,0.7l0.2,1.1l3.5,1.1l0,0&#10;&#9;&#9;&#9;l0.8-0.1l0.1-1.5l-2.8-1.2l-0.2-0.7l2.3-0.8l0.1-2.2l-2.4-1.5l-0.2-3.7l-3.3,1.6H413l0.3-2.8l-4.5-1.1l-1.9,1.4v4.3l-3.3,1&#10;&#9;&#9;&#9;l-1.3,2.8l-1.5,0.2v-3.6l-3.1-0.4l-1.6-1l-0.6-2.3l5.6-3.3l2.8-0.8l0.3,1.8l1.5-0.1l0.1-0.9l1.6-0.2l0-0.3l-0.7-0.3l-0.2-1l2-0.2&#10;&#9;&#9;&#9;l1.2-1.2l0.1-0.1h0l0.4-0.4l4.1-0.5l1.8,1.6l-4.8,2.5l6.1,1.4l0.8-2h2.7l0.9-1.8l-1.9-0.5V551l-5.9-2.6l-4.1,0.5l-2.3,1.2l0.2,2.9&#10;&#9;&#9;&#9;l-2.4-0.4l-0.4-1.6l2.3-2.1l-4.2-0.2l-1.2,0.4l-0.5,1.4l1.6,0.3l-0.3,1.6l-2.7,0.2l-0.4,1l-3.9,0.1c0,0-0.1-2.2-0.3-2.2&#10;&#9;&#9;&#9;c-0.2,0,3-0.1,3-0.1l2.3-2.3l-1.3-0.6l-1.7,1.6l-2.8-0.2l-1.7-2.3h-3.5l-3.7,2.8h3.4l0.3,1l-0.9,0.8l3.8,0.1l0.6,1.4l-4.2-0.2&#10;&#9;&#9;&#9;l-0.2-1l-2.7-0.6l-1.4-0.8l-3.2,0c10.4-7.6,23.1-12,36.9-12c15.9,0,30.4,5.9,41.5,15.7l-0.7,1.3l-2.9,1.1l-1.2,1.3l0.3,1.6&#10;&#9;&#9;&#9;l1.5,0.2l0.9,2.3l2.6-1l0.4,3h-0.8l-2.1-0.3l-2.4,0.4l-2.3,3.2l-3.3,0.5l-0.5,2.8l1.4,0.3l-0.4,1.8l-3.2-0.6l-3,0.6l-0.6,1.6&#10;&#9;&#9;&#9;l0.5,3.5l1.7,0.8l2.9,0l2-0.2l0.6-1.6l3.1-4l2,0.4l2-1.8l0.4,1.4l4.9,3.3l-0.6,0.8l-2.2-0.1l0.9,1.2l1.4,0.3l1.6-0.7l0-1.9&#10;&#9;&#9;&#9;l0.7-0.4l-0.6-0.6l-3.3-1.8l-0.9-2.4h2.7l0.9,0.9l2.4,2l0.1,2.4l2.4,2.6l0.9-3.5l1.7-0.9l0.3,2.9l1.7,1.8l3.3-0.1&#10;&#9;&#9;&#9;c0.6,1.6,1.2,3.3,1.7,5L478.6,584.6z M387.5,564.6l1.6-0.8l1.5,0.4l-0.5,2l-1.6,0.5L387.5,564.6z M396.2,569.3v1.3h-3.8l-1.4-0.4&#10;&#9;&#9;&#9;l0.4-0.9l1.8-0.7h2.5v0.7H396.2z M398,571.1v1.2L397,573l-1.2,0.2v-2.1H398z M396.9,570.6v-1.5l1.3,1.2L396.9,570.6z M397.5,573.6&#10;&#9;&#9;&#9;v1.2l-0.9,0.9h-2l0.3-1.4l0.9-0.1l0.2-0.5L397.5,573.6z M392.5,571.1h2.1l-2.7,3.7l-1.1-0.6l0.2-1.6L392.5,571.1z M401,573.2v1.2&#10;&#9;&#9;&#9;h-2l-0.5-0.8v-1.1h0.2L401,573.2z M399.2,571.5l0.6-0.6l1,0.6l-0.8,0.6L399.2,571.5z M479.6,587.8l0.2-0.2&#10;&#9;&#9;&#9;c0.1,0.3,0.2,0.7,0.2,1.1L479.6,587.8z M479.6,587.8" style="fill: rgb(0, 0, 0); opacity: 1;"/>
		<path class="st0" d="M360.8,575.4v2c0.7-1.6,1.4-3.2,2.3-4.7L360.8,575.4z M360.8,575.4" style="fill: rgb(0, 0, 0); opacity: 1;"/>
	</g>
</g></g><g transform="matrix(1.3397464752197266, 0.5853171348571777, -0.5853171348571777, 1.3397464752197266, 386.5444641113282, -1086.4334716796877)"><g transform="matrix(1, 0, 0, 1, 1.1368683772161603e-13, 0)"><g transform="matrix(1, 0, 0, 1, -68.63700866699213, -13.428979873657227)">
	<g>
		<g>
			<path class="st1" d="M636,765.7c-0.1-0.1-0.3-0.3-0.4-0.4c-1.9-2.3-1.5-5.7,0.8-7.5l27.6-21.7c2.3-1.9,5.7-1.5,7.6,0.8&#10;&#9;&#9;&#9;&#9;c1.9,2.3,1.5,5.7-0.8,7.6l-27.7,21.7C641,767.8,637.9,767.6,636,765.7z" style="fill: rgb(0, 0, 0); opacity: 1;"/>
		</g>
		<path class="st1" d="M722,762.5l-7.7-7.7l-45.1,64.7c-8.8,8.4-22.8,8.3-31.4-0.3l-23.6-23.6c-8.7-8.7-8.8-22.7-0.3-31.5l63-46.8&#10;&#9;&#9;&#9;l-7.7-7.7l-62,46.1c-0.2,0.2-0.4,0.3-0.6,0.5c-12.9,12.9-12.9,34,0,46.9l23.6,23.6c12.9,12.9,34,12.9,46.9,0&#10;&#9;&#9;&#9;c0.2-0.2,0.4-0.5,0.6-0.7L722,762.5z" style="fill: rgb(0, 0, 0); opacity: 1;"/>
		<g>
			<path class="st1" d="M736.5,682.8c-4,4-10.5,4-14.6,0c-4-4-4-10.5,0-14.6c4-4,10.5-4,14.6,0C740.5,672.2,740.5,678.8,736.5,682.8&#10;&#9;&#9;&#9;&#9;z" style="fill: rgb(0, 0, 0); opacity: 1;"/>
		</g>
		<g>
			<path class="st1" d="M766.4,712.7c-4.3,4.3-11.3,4.3-15.7,0c-4.3-4.3-4.3-11.3,0-15.7c4.3-4.3,11.3-4.3,15.7,0&#10;&#9;&#9;&#9;&#9;C770.7,701.4,770.7,708.4,766.4,712.7z" style="fill: rgb(0, 0, 0); opacity: 1;"/>
		</g>
		<g>
			<path class="st1" d="M727.1,721.3c-4.6,4.6-12,4.6-16.5,0c-4.6-4.6-4.6-12,0-16.5c4.6-4.6,12-4.6,16.5,0&#10;&#9;&#9;&#9;&#9;C731.7,709.3,731.7,716.7,727.1,721.3z" style="fill: rgb(0, 0, 0); opacity: 1;"/>
		</g>
		<g>
			<path class="st1" d="M760.1,754.2c-4.6,4.6-12,4.6-16.5,0c-4.6-4.6-4.6-12,0-16.5c4.6-4.6,12-4.6,16.5,0&#10;&#9;&#9;&#9;&#9;C764.6,742.2,764.6,749.6,760.1,754.2z" style="fill: rgb(0, 0, 0); opacity: 1;"/>
		</g>
		<g>
			<path class="st1" d="M695.3,689.5c-4.6,4.6-12,4.6-16.5,0c-4.6-4.6-4.6-12,0-16.5c4.6-4.6,12-4.6,16.5,0&#10;&#9;&#9;&#9;&#9;C699.9,677.5,699.9,684.9,695.3,689.5z" style="fill: rgb(0, 0, 0); opacity: 1;"/>
		</g>
		<path class="st1" d="M773.5,659.9c-39.6-39.6-104.1-39.6-143.7,0c-2,2-3.8,4-5.6,6.1c-1.8,2.1-1.7,5.3,0.3,7.3l3.9,3.9l12,12&#10;&#9;&#9;&#9;l0.3,0.3l14,14l72.7,72.7l18,18l1,1l13.6,13.6c2,2,5.1,2.1,7.3,0.3c2.1-1.8,4.1-3.6,6.1-5.6C813,764,813.1,699.5,773.5,659.9z&#10;&#9;&#9;&#9; M764.1,797.7l-10-10l-1.8-1.8L649.1,682.8l-1.1-1.1l-12.3-12.3c0.6-0.6,1.1-1.2,1.7-1.8c35.4-35.4,93.1-35.4,128.5,0&#10;&#9;&#9;&#9;c35.4,35.4,35.4,93.1,0,128.5C765.3,796.6,764.7,797.2,764.1,797.7z" style="fill: rgb(0, 0, 0); opacity: 1;"/>
	</g>
</g></g></g><g transform="matrix(1.089945673909056, 0.00016740040586670066, -0.00016740040586670066, 1.089945673909056, -57.67425840287069, -663.4822545266691)"><g transform="matrix(1, 0, 0, 1, 1.1368683772161603e-13, 0)"><g transform="matrix(1, 0, 0, 1, -68.63700866699213, -13.428979873657227)">
	<g>
		<g>
			<path class="st1" d="M636,765.7c-0.1-0.1-0.3-0.3-0.4-0.4c-1.9-2.3-1.5-5.7,0.8-7.5l27.6-21.7c2.3-1.9,5.7-1.5,7.6,0.8&#10;&#9;&#9;&#9;&#9;c1.9,2.3,1.5,5.7-0.8,7.6l-27.7,21.7C641,767.8,637.9,767.6,636,765.7z" style="fill: rgb(0, 0, 0); opacity: 1;"/>
		</g>
		<path class="st1" d="M722,762.5l-7.7-7.7l-45.1,64.7c-8.8,8.4-22.8,8.3-31.4-0.3l-23.6-23.6c-8.7-8.7-8.8-22.7-0.3-31.5l63-46.8&#10;&#9;&#9;&#9;l-7.7-7.7l-62,46.1c-0.2,0.2-0.4,0.3-0.6,0.5c-12.9,12.9-12.9,34,0,46.9l23.6,23.6c12.9,12.9,34,12.9,46.9,0&#10;&#9;&#9;&#9;c0.2-0.2,0.4-0.5,0.6-0.7L722,762.5z" style="fill: rgb(0, 0, 0); opacity: 1;"/>
		<g>
			<path class="st1" d="M736.5,682.8c-4,4-10.5,4-14.6,0c-4-4-4-10.5,0-14.6c4-4,10.5-4,14.6,0C740.5,672.2,740.5,678.8,736.5,682.8&#10;&#9;&#9;&#9;&#9;z" style="fill: rgb(0, 0, 0); opacity: 1;"/>
		</g>
		<g>
			<path class="st1" d="M766.4,712.7c-4.3,4.3-11.3,4.3-15.7,0c-4.3-4.3-4.3-11.3,0-15.7c4.3-4.3,11.3-4.3,15.7,0&#10;&#9;&#9;&#9;&#9;C770.7,701.4,770.7,708.4,766.4,712.7z" style="fill: rgb(0, 0, 0); opacity: 1;"/>
		</g>
		<g>
			<path class="st1" d="M727.1,721.3c-4.6,4.6-12,4.6-16.5,0c-4.6-4.6-4.6-12,0-16.5c4.6-4.6,12-4.6,16.5,0&#10;&#9;&#9;&#9;&#9;C731.7,709.3,731.7,716.7,727.1,721.3z" style="fill: rgb(0, 0, 0); opacity: 1;"/>
		</g>
		<g>
			<path class="st1" d="M760.1,754.2c-4.6,4.6-12,4.6-16.5,0c-4.6-4.6-4.6-12,0-16.5c4.6-4.6,12-4.6,16.5,0&#10;&#9;&#9;&#9;&#9;C764.6,742.2,764.6,749.6,760.1,754.2z" style="fill: rgb(0, 0, 0); opacity: 1;"/>
		</g>
		<g>
			<path class="st1" d="M695.3,689.5c-4.6,4.6-12,4.6-16.5,0c-4.6-4.6-4.6-12,0-16.5c4.6-4.6,12-4.6,16.5,0&#10;&#9;&#9;&#9;&#9;C699.9,677.5,699.9,684.9,695.3,689.5z" style="fill: rgb(0, 0, 0); opacity: 1;"/>
		</g>
		<path class="st1" d="M773.5,659.9c-39.6-39.6-104.1-39.6-143.7,0c-2,2-3.8,4-5.6,6.1c-1.8,2.1-1.7,5.3,0.3,7.3l3.9,3.9l12,12&#10;&#9;&#9;&#9;l0.3,0.3l14,14l72.7,72.7l18,18l1,1l13.6,13.6c2,2,5.1,2.1,7.3,0.3c2.1-1.8,4.1-3.6,6.1-5.6C813,764,813.1,699.5,773.5,659.9z&#10;&#9;&#9;&#9; M764.1,797.7l-10-10l-1.8-1.8L649.1,682.8l-1.1-1.1l-12.3-12.3c0.6-0.6,1.1-1.2,1.7-1.8c35.4-35.4,93.1-35.4,128.5,0&#10;&#9;&#9;&#9;c35.4,35.4,35.4,93.1,0,128.5C765.3,796.6,764.7,797.2,764.1,797.7z" style="fill: rgb(0, 0, 0); opacity: 1;"/>
	</g>
</g></g></g><g transform="matrix(0.7506311535835267, -0.37596735358238226, 0.37596735358238226, 0.7506311535835267, -292.781400948762, -219.21707153320278)"><g transform="matrix(1, 0, 0, 1, 1.1368683772161603e-13, 0)"><g transform="matrix(1, 0, 0, 1, -68.63700866699213, -13.428979873657227)">
	<g>
		<g>
			<path class="st1" d="M636,765.7c-0.1-0.1-0.3-0.3-0.4-0.4c-1.9-2.3-1.5-5.7,0.8-7.5l27.6-21.7c2.3-1.9,5.7-1.5,7.6,0.8&#10;&#9;&#9;&#9;&#9;c1.9,2.3,1.5,5.7-0.8,7.6l-27.7,21.7C641,767.8,637.9,767.6,636,765.7z" style="fill: rgb(0, 0, 0); opacity: 1;"/>
		</g>
		<path class="st1" d="M722,762.5l-7.7-7.7l-45.1,64.7c-8.8,8.4-22.8,8.3-31.4-0.3l-23.6-23.6c-8.7-8.7-8.8-22.7-0.3-31.5l63-46.8&#10;&#9;&#9;&#9;l-7.7-7.7l-62,46.1c-0.2,0.2-0.4,0.3-0.6,0.5c-12.9,12.9-12.9,34,0,46.9l23.6,23.6c12.9,12.9,34,12.9,46.9,0&#10;&#9;&#9;&#9;c0.2-0.2,0.4-0.5,0.6-0.7L722,762.5z" style="fill: rgb(0, 0, 0); opacity: 1;"/>
		<g>
			<path class="st1" d="M736.5,682.8c-4,4-10.5,4-14.6,0c-4-4-4-10.5,0-14.6c4-4,10.5-4,14.6,0C740.5,672.2,740.5,678.8,736.5,682.8&#10;&#9;&#9;&#9;&#9;z" style="fill: rgb(0, 0, 0); opacity: 1;"/>
		</g>
		<g>
			<path class="st1" d="M766.4,712.7c-4.3,4.3-11.3,4.3-15.7,0c-4.3-4.3-4.3-11.3,0-15.7c4.3-4.3,11.3-4.3,15.7,0&#10;&#9;&#9;&#9;&#9;C770.7,701.4,770.7,708.4,766.4,712.7z" style="fill: rgb(0, 0, 0); opacity: 1;"/>
		</g>
		<g>
			<path class="st1" d="M727.1,721.3c-4.6,4.6-12,4.6-16.5,0c-4.6-4.6-4.6-12,0-16.5c4.6-4.6,12-4.6,16.5,0&#10;&#9;&#9;&#9;&#9;C731.7,709.3,731.7,716.7,727.1,721.3z" style="fill: rgb(0, 0, 0); opacity: 1;"/>
		</g>
		<g>
			<path class="st1" d="M760.1,754.2c-4.6,4.6-12,4.6-16.5,0c-4.6-4.6-4.6-12,0-16.5c4.6-4.6,12-4.6,16.5,0&#10;&#9;&#9;&#9;&#9;C764.6,742.2,764.6,749.6,760.1,754.2z" style="fill: rgb(0, 0, 0); opacity: 1;"/>
		</g>
		<g>
			<path class="st1" d="M695.3,689.5c-4.6,4.6-12,4.6-16.5,0c-4.6-4.6-4.6-12,0-16.5c4.6-4.6,12-4.6,16.5,0&#10;&#9;&#9;&#9;&#9;C699.9,677.5,699.9,684.9,695.3,689.5z" style="fill: rgb(0, 0, 0); opacity: 1;"/>
		</g>
		<path class="st1" d="M773.5,659.9c-39.6-39.6-104.1-39.6-143.7,0c-2,2-3.8,4-5.6,6.1c-1.8,2.1-1.7,5.3,0.3,7.3l3.9,3.9l12,12&#10;&#9;&#9;&#9;l0.3,0.3l14,14l72.7,72.7l18,18l1,1l13.6,13.6c2,2,5.1,2.1,7.3,0.3c2.1-1.8,4.1-3.6,6.1-5.6C813,764,813.1,699.5,773.5,659.9z&#10;&#9;&#9;&#9; M764.1,797.7l-10-10l-1.8-1.8L649.1,682.8l-1.1-1.1l-12.3-12.3c0.6-0.6,1.1-1.2,1.7-1.8c35.4-35.4,93.1-35.4,128.5,0&#10;&#9;&#9;&#9;c35.4,35.4,35.4,93.1,0,128.5C765.3,796.6,764.7,797.2,764.1,797.7z" style="fill: rgb(0, 0, 0); opacity: 1;"/>
	</g>
</g></g></g><path d="M 321.16412353515625 345.8599853515625 C 321.16412353515625 347.59332275390625 320.57080078125 348.9266662597656 319.3841247558594 349.8599853515625 C 318.2041320800781 350.7933349609375 316.51080322265625 351.260009765625 314.3041076660156 351.260009765625 L 312.29412841796875 351.260009765625 L 312.29412841796875 358 L 310.3041076660156 358 L 310.3041076660156 340.8699951171875 L 314.7441101074219 340.8699951171875 C 319.02410888671875 340.8699951171875 321.16412353515625 342.5333251953125 321.16412353515625 345.8599853515625 M 312.29412841796875 349.54998779296875 L 314.0841369628906 349.54998779296875 C 315.8507995605469 349.54998779296875 317.12744140625 349.26666259765625 317.91412353515625 348.70001220703125 C 318.70745849609375 348.1266784667969 319.1041259765625 347.2099914550781 319.1041259765625 345.95001220703125 C 319.1041259765625 344.8166809082031 318.73077392578125 343.97332763671875 317.984130859375 343.4200134277344 C 317.2441101074219 342.8666687011719 316.08746337890625 342.5899963378906 314.5141296386719 342.5899963378906 L 312.29412841796875 342.5899963378906 L 312.29412841796875 349.54998779296875 ZM 326.4009094238281 358 L 324.4508972167969 358 L 324.4508972167969 339.7699890136719 L 326.4009094238281 339.7699890136719 L 326.4009094238281 358 ZM 338.42034912109375 358 L 338.0303649902344 356.1700134277344 L 337.94036865234375 356.1700134277344 C 337.30035400390625 356.9766540527344 336.6603698730469 357.5233459472656 336.0203552246094 357.80999755859375 C 335.38702392578125 358.0899963378906 334.59368896484375 358.2300109863281 333.6403503417969 358.2300109863281 C 332.3670349121094 358.2300109863281 331.370361328125 357.9033203125 330.6503601074219 357.25 C 329.9237060546875 356.5966796875 329.56036376953125 355.663330078125 329.56036376953125 354.45001220703125 C 329.56036376953125 351.8566589355469 331.6336975097656 350.4966735839844 335.7803649902344 350.3699951171875 L 337.9603576660156 350.29998779296875 L 337.9603576660156 349.5 C 337.9603576660156 348.49334716796875 337.7436828613281 347.75 337.31036376953125 347.2699890136719 C 336.87701416015625 346.7900085449219 336.1836853027344 346.54998779296875 335.2303466796875 346.54998779296875 C 334.1636962890625 346.54998779296875 332.9537048339844 346.8800048828125 331.6003723144531 347.5400085449219 L 331.0003662109375 346.04998779296875 C 331.6336975097656 345.7033386230469 332.3270263671875 345.4333190917969 333.0803527832031 345.239990234375 C 333.83367919921875 345.0466613769531 334.5903625488281 344.95001220703125 335.3503723144531 344.95001220703125 C 336.8836975097656 344.95001220703125 338.01702880859375 345.28668212890625 338.7503662109375 345.9599914550781 C 339.4903564453125 346.6400146484375 339.8603515625 347.7300109863281 339.8603515625 349.2300109863281 L 339.8603515625 358 L 338.42034912109375 358 M 334.0303649902344 356.6300048828125 C 335.2370300292969 356.6300048828125 336.18701171875 356.2966613769531 336.88037109375 355.6300048828125 C 337.5736999511719 354.9700012207031 337.92034912109375 354.0400085449219 337.92034912109375 352.8399963378906 L 337.92034912109375 351.67999267578125 L 335.9703674316406 351.7699890136719 C 334.4237060546875 351.8233337402344 333.31036376953125 352.0633239746094 332.63037109375 352.489990234375 C 331.9436950683594 352.9100036621094 331.6003723144531 353.57000732421875 331.6003723144531 354.4700012207031 C 331.6003723144531 355.1766662597656 331.8136901855469 355.7133483886719 332.2403564453125 356.0799865722656 C 332.6670227050781 356.4466552734375 333.2637023925781 356.6300048828125 334.0303649902344 356.6300048828125 ZM 352.6595153808594 358 L 352.6595153808594 349.69000244140625 C 352.6595153808594 348.6433410644531 352.4228515625 347.86334228515625 351.94952392578125 347.3500061035156 C 351.4695129394531 346.8299865722656 350.72283935546875 346.57000732421875 349.7095031738281 346.57000732421875 C 348.36285400390625 346.57000732421875 347.3795166015625 346.9333190917969 346.759521484375 347.6600036621094 C 346.1328430175781 348.38665771484375 345.81951904296875 349.586669921875 345.81951904296875 351.260009765625 L 345.81951904296875 358 L 343.8695068359375 358 L 343.8695068359375 345.1600036621094 L 345.44952392578125 345.1600036621094 L 345.7695007324219 346.9100036621094 L 345.8594970703125 346.9100036621094 C 346.259521484375 346.27667236328125 346.81951904296875 345.78668212890625 347.5395202636719 345.44000244140625 C 348.259521484375 345.09332275390625 349.05950927734375 344.9200134277344 349.93951416015625 344.9200134277344 C 351.4861755371094 344.9200134277344 352.65283203125 345.2933349609375 353.43951416015625 346.0400085449219 C 354.2195129394531 346.78668212890625 354.6094970703125 347.9800109863281 354.6094970703125 349.6199951171875 L 354.6094970703125 358 L 352.6595153808594 358 ZM 364.0297546386719 358.2300109863281 C 362.1297607421875 358.2300109863281 360.6297607421875 357.6533203125 359.5297546386719 356.5 C 358.4364318847656 355.3466796875 357.8897705078125 353.739990234375 357.8897705078125 351.67999267578125 C 357.8897705078125 349.61334228515625 358.3997497558594 347.9700012207031 359.4197692871094 346.75 C 360.43975830078125 345.5299987792969 361.8064270019531 344.9200134277344 363.519775390625 344.9200134277344 C 365.1330871582031 344.9200134277344 366.40643310546875 345.45001220703125 367.3397521972656 346.510009765625 C 368.2797546386719 347.57000732421875 368.749755859375 348.9666748046875 368.749755859375 350.70001220703125 L 368.749755859375 351.92999267578125 L 359.8997497558594 351.92999267578125 C 359.93975830078125 353.4366760253906 360.3230895996094 354.5799865722656 361.0497741699219 355.3599853515625 C 361.769775390625 356.14666748046875 362.78643798828125 356.5400085449219 364.0997619628906 356.5400085449219 C 365.4797668457031 356.5400085449219 366.846435546875 356.25 368.19976806640625 355.6700134277344 L 368.19976806640625 357.3999938964844 C 367.5130920410156 357.70001220703125 366.86309814453125 357.913330078125 366.249755859375 358.0400085449219 C 365.6364440917969 358.1666564941406 364.89642333984375 358.2300109863281 364.0297546386719 358.2300109863281 M 363.499755859375 346.54998779296875 C 362.4664306640625 346.54998779296875 361.6430969238281 346.88665771484375 361.0297546386719 347.55999755859375 C 360.41644287109375 348.23333740234375 360.0564270019531 349.163330078125 359.94976806640625 350.3500061035156 L 366.6697692871094 350.3500061035156 C 366.6697692871094 349.1233215332031 366.3930969238281 348.1833190917969 365.8397521972656 347.5299987792969 C 365.2930908203125 346.8766784667969 364.5130920410156 346.54998779296875 363.499755859375 346.54998779296875 ZM 376.2152404785156 356.6300048828125 C 376.5619201660156 356.6300048828125 376.895263671875 356.60333251953125 377.2152404785156 356.54998779296875 C 377.5352478027344 356.5033264160156 377.78857421875 356.45001220703125 377.9752502441406 356.3900146484375 L 377.9752502441406 357.8800048828125 C 377.76190185546875 357.9866638183594 377.451904296875 358.07000732421875 377.0452575683594 358.1300048828125 C 376.6319274902344 358.1966552734375 376.26190185546875 358.2300109863281 375.93524169921875 358.2300109863281 C 373.4485778808594 358.2300109863281 372.20526123046875 356.92333984375 372.20526123046875 354.30999755859375 L 372.20526123046875 346.6700134277344 L 370.365234375 346.6700134277344 L 370.365234375 345.7300109863281 L 372.20526123046875 344.9200134277344 L 373.0252380371094 342.17999267578125 L 374.1552429199219 342.17999267578125 L 374.1552429199219 345.1600036621094 L 377.88525390625 345.1600036621094 L 377.88525390625 346.6700134277344 L 374.1552429199219 346.6700134277344 L 374.1552429199219 354.2300109863281 C 374.1552429199219 355.0033264160156 374.3385925292969 355.5966796875 374.70526123046875 356.010009765625 C 375.0719299316406 356.42333984375 375.57525634765625 356.6300048828125 376.2152404785156 356.6300048828125 ZM 379.4570617675781 352.4599914550781 L 379.4570617675781 350.67999267578125 L 385.217041015625 350.67999267578125 L 385.217041015625 352.4599914550781 L 379.4570617675781 352.4599914550781 ZM 399.3501281738281 351.57000732421875 C 399.3501281738281 353.663330078125 398.8234558105469 355.2966613769531 397.7701416015625 356.4700012207031 C 396.71014404296875 357.6433410644531 395.25347900390625 358.2300109863281 393.400146484375 358.2300109863281 C 392.2467956542969 358.2300109863281 391.226806640625 357.9633483886719 390.34014892578125 357.42999267578125 C 389.4468078613281 356.8900146484375 388.7568054199219 356.1166687011719 388.2701416015625 355.1099853515625 C 387.7901306152344 354.0966796875 387.5501403808594 352.9166564941406 387.5501403808594 351.57000732421875 C 387.5501403808594 349.4766540527344 388.0734558105469 347.84332275390625 389.1201477050781 346.6700134277344 C 390.16680908203125 345.5033264160156 391.6201477050781 344.9200134277344 393.4801330566406 344.9200134277344 C 395.2734680175781 344.9200134277344 396.70013427734375 345.51666259765625 397.7601318359375 346.7099914550781 C 398.82012939453125 347.9100036621094 399.3501281738281 349.5299987792969 399.3501281738281 351.57000732421875 M 389.56011962890625 351.57000732421875 C 389.56011962890625 353.2099914550781 389.89013671875 354.4599914550781 390.5501403808594 355.32000732421875 C 391.2034606933594 356.17999267578125 392.16680908203125 356.6099853515625 393.44012451171875 356.6099853515625 C 394.7134704589844 356.6099853515625 395.6801452636719 356.17999267578125 396.34014892578125 355.32000732421875 C 397.0001220703125 354.4666748046875 397.33013916015625 353.2166748046875 397.33013916015625 351.57000732421875 C 397.33013916015625 349.9366760253906 397.0001220703125 348.6966552734375 396.34014892578125 347.8500061035156 C 395.6801452636719 346.9966735839844 394.706787109375 346.57000732421875 393.4201354980469 346.57000732421875 C 392.14678955078125 346.57000732421875 391.1867980957031 346.989990234375 390.5401306152344 347.8299865722656 C 389.8868103027344 348.663330078125 389.56011962890625 349.9100036621094 389.56011962890625 351.57000732421875 ZM 408.5441589355469 346.6700134277344 L 405.2741394042969 346.6700134277344 L 405.2741394042969 358 L 403.33416748046875 358 L 403.33416748046875 346.6700134277344 L 401.0341491699219 346.6700134277344 L 401.0341491699219 345.7900085449219 L 403.33416748046875 345.0899963378906 L 403.33416748046875 344.3699951171875 C 403.33416748046875 341.2166748046875 404.7108154296875 339.6400146484375 407.4641418457031 339.6400146484375 C 408.1441650390625 339.6400146484375 408.9408264160156 339.77667236328125 409.8541564941406 340.04998779296875 L 409.3541564941406 341.6099853515625 C 408.60748291015625 341.36334228515625 407.9674987792969 341.239990234375 407.43414306640625 341.239990234375 C 406.7008056640625 341.239990234375 406.157470703125 341.48333740234375 405.80413818359375 341.9700012207031 C 405.4508056640625 342.46331787109375 405.2741394042969 343.2466735839844 405.2741394042969 344.32000732421875 L 405.2741394042969 345.1600036621094 L 408.5441589355469 345.1600036621094 L 408.5441589355469 346.6700134277344 ZM 409.8079528808594 352.4599914550781 L 409.8079528808594 350.67999267578125 L 415.56793212890625 350.67999267578125 L 415.56793212890625 352.4599914550781 L 409.8079528808594 352.4599914550781 ZM 434.9810485839844 358 L 434.9810485839844 349.6400146484375 C 434.9810485839844 348.6199951171875 434.764404296875 347.85333251953125 434.3310546875 347.3399963378906 C 433.89105224609375 346.82666015625 433.2110595703125 346.57000732421875 432.2910461425781 346.57000732421875 C 431.0777282714844 346.57000732421875 430.1810607910156 346.9200134277344 429.6010437011719 347.6199951171875 C 429.0277099609375 348.3133239746094 428.7410583496094 349.3833312988281 428.7410583496094 350.8299865722656 L 428.7410583496094 358 L 426.7910461425781 358 L 426.7910461425781 349.6400146484375 C 426.7910461425781 348.6199951171875 426.57440185546875 347.85333251953125 426.14105224609375 347.3399963378906 C 425.7010498046875 346.82666015625 425.0177307128906 346.57000732421875 424.091064453125 346.57000732421875 C 422.8710632324219 346.57000732421875 421.97772216796875 346.9366760253906 421.4110412597656 347.6700134277344 C 420.8443908691406 348.4033203125 420.5610656738281 349.6000061035156 420.5610656738281 351.260009765625 L 420.5610656738281 358 L 418.6110534667969 358 L 418.6110534667969 345.1600036621094 L 420.1910705566406 345.1600036621094 L 420.51104736328125 346.9100036621094 L 420.6010437011719 346.9100036621094 C 420.9743957519531 346.2900085449219 421.494384765625 345.8033447265625 422.1610412597656 345.45001220703125 C 422.8277282714844 345.0966796875 423.57440185546875 344.9200134277344 424.40106201171875 344.9200134277344 C 426.40771484375 344.9200134277344 427.7210693359375 345.64666748046875 428.341064453125 347.1000061035156 L 428.4310607910156 347.1000061035156 C 428.8177185058594 346.4266662597656 429.3743896484375 345.89666748046875 430.1010437011719 345.510009765625 C 430.8277282714844 345.1166687011719 431.6543884277344 344.9200134277344 432.5810546875 344.9200134277344 C 434.0343933105469 344.9200134277344 435.1210632324219 345.2933349609375 435.841064453125 346.0400085449219 C 436.5677185058594 346.78668212890625 436.9310607910156 347.9800109863281 436.9310607910156 349.6199951171875 L 436.9310607910156 358 L 434.9810485839844 358 ZM 442.7635803222656 345.1600036621094 L 442.7635803222656 353.489990234375 C 442.7635803222656 354.5366516113281 443.0035705566406 355.3166809082031 443.4835510253906 355.8299865722656 C 443.9569091796875 356.3500061035156 444.7002258300781 356.6099853515625 445.71356201171875 356.6099853515625 C 447.06024169921875 356.6099853515625 448.0435791015625 356.239990234375 448.66357421875 355.5 C 449.2835693359375 354.76666259765625 449.59356689453125 353.57000732421875 449.59356689453125 351.9100036621094 L 449.59356689453125 345.1600036621094 L 451.5435791015625 345.1600036621094 L 451.5435791015625 358 L 449.9335632324219 358 L 449.653564453125 356.2799987792969 L 449.5535583496094 356.2799987792969 C 449.153564453125 356.913330078125 448.6002197265625 357.39666748046875 447.8935546875 357.7300109863281 C 447.1868896484375 358.0633239746094 446.3802185058594 358.2300109863281 445.47357177734375 358.2300109863281 C 443.9068908691406 358.2300109863281 442.7369079589844 357.8599853515625 441.96356201171875 357.1199951171875 C 441.1835632324219 356.3800048828125 440.7935791015625 355.1933288574219 440.7935791015625 353.55999755859375 L 440.7935791015625 345.1600036621094 L 442.7635803222656 345.1600036621094 ZM 463.9538269042969 354.5 C 463.9538269042969 355.6933288574219 463.50714111328125 356.61334228515625 462.61383056640625 357.260009765625 C 461.7271423339844 357.90667724609375 460.4771423339844 358.2300109863281 458.86383056640625 358.2300109863281 C 457.163818359375 358.2300109863281 455.837158203125 357.9633483886719 454.8838195800781 357.42999267578125 L 454.8838195800781 355.6199951171875 C 455.4971618652344 355.9333190917969 456.15716552734375 356.17999267578125 456.86383056640625 356.3599853515625 C 457.57049560546875 356.5400085449219 458.2538146972656 356.6300048828125 458.913818359375 356.6300048828125 C 459.9271545410156 356.6300048828125 460.7071533203125 356.4666748046875 461.2538146972656 356.1400146484375 C 461.80047607421875 355.82000732421875 462.0738220214844 355.32666015625 462.0738220214844 354.6600036621094 C 462.0738220214844 354.1600036621094 461.8571472167969 353.73333740234375 461.423828125 353.3800048828125 C 460.990478515625 353.0199890136719 460.14715576171875 352.6000061035156 458.8938293457031 352.1199951171875 C 457.6938171386719 351.67333984375 456.84381103515625 351.2833251953125 456.34381103515625 350.95001220703125 C 455.837158203125 350.6166687011719 455.4604797363281 350.239990234375 455.21380615234375 349.82000732421875 C 454.9671630859375 349.3999938964844 454.84381103515625 348.89666748046875 454.84381103515625 348.30999755859375 C 454.84381103515625 347.2633361816406 455.2704772949219 346.4366760253906 456.1238098144531 345.8299865722656 C 456.9771423339844 345.22332763671875 458.1438293457031 344.9200134277344 459.6238098144531 344.9200134277344 C 461.010498046875 344.9200134277344 462.36383056640625 345.2033386230469 463.6838073730469 345.7699890136719 L 462.99383544921875 347.3500061035156 C 461.70050048828125 346.8166809082031 460.5304870605469 346.54998779296875 459.48382568359375 346.54998779296875 C 458.5638122558594 346.54998779296875 457.8704833984375 346.6933288574219 457.40380859375 346.9800109863281 C 456.93048095703125 347.2733459472656 456.6938171386719 347.67333984375 456.6938171386719 348.17999267578125 C 456.6938171386719 348.52667236328125 456.7838134765625 348.82000732421875 456.96380615234375 349.05999755859375 C 457.13714599609375 349.29998779296875 457.4205017089844 349.5299987792969 457.8138122558594 349.75 C 458.20050048828125 349.9700012207031 458.95050048828125 350.28668212890625 460.0638122558594 350.70001220703125 C 461.5838317871094 351.2533264160156 462.6104736328125 351.80999755859375 463.1438293457031 352.3699951171875 C 463.6838073730469 352.9366760253906 463.9538269042969 353.64666748046875 463.9538269042969 354.5 ZM 475.9058532714844 358 L 475.9058532714844 349.69000244140625 C 475.9058532714844 348.6433410644531 475.669189453125 347.86334228515625 475.19586181640625 347.3500061035156 C 474.7158508300781 346.8299865722656 473.96917724609375 346.57000732421875 472.9558410644531 346.57000732421875 C 471.6025085449219 346.57000732421875 470.6158447265625 346.94000244140625 469.995849609375 347.67999267578125 C 469.3758544921875 348.413330078125 469.06585693359375 349.6166687011719 469.06585693359375 351.2900085449219 L 469.06585693359375 358 L 467.1158447265625 358 L 467.1158447265625 339.7699890136719 L 469.06585693359375 339.7699890136719 L 469.06585693359375 345.2900085449219 C 469.06585693359375 345.95001220703125 469.0325012207031 346.5 468.9658508300781 346.94000244140625 L 469.0858459472656 346.94000244140625 C 469.4725036621094 346.32000732421875 470.0191650390625 345.8333435058594 470.7258605957031 345.4800109863281 C 471.4325256347656 345.1266784667969 472.2391662597656 344.95001220703125 473.1458435058594 344.95001220703125 C 474.7125244140625 344.95001220703125 475.8891906738281 345.32000732421875 476.67584228515625 346.05999755859375 C 477.4625244140625 346.8066711425781 477.8558349609375 347.99334716796875 477.8558349609375 349.6199951171875 L 477.8558349609375 358 L 475.9058532714844 358 ZM 487.70611572265625 344.9200134277344 C 488.2794494628906 344.9200134277344 488.7927551269531 344.9666748046875 489.24609375 345.05999755859375 L 488.9761047363281 346.8699951171875 C 488.4427795410156 346.75 487.9727783203125 346.69000244140625 487.56610107421875 346.69000244140625 C 486.5260925292969 346.69000244140625 485.6394348144531 347.11334228515625 484.9060974121094 347.9599914550781 C 484.1661071777344 348.79998779296875 483.7961120605469 349.8500061035156 483.7961120605469 351.1099853515625 L 483.7961120605469 358 L 481.8460998535156 358 L 481.8460998535156 345.1600036621094 L 483.45611572265625 345.1600036621094 L 483.6761169433594 347.5400085449219 L 483.76611328125 347.5400085449219 C 484.24609375 346.70001220703125 484.82275390625 346.0533447265625 485.49609375 345.6000061035156 C 486.16278076171875 345.14666748046875 486.8994445800781 344.9200134277344 487.70611572265625 344.9200134277344 ZM 502.7308349609375 351.57000732421875 C 502.7308349609375 353.663330078125 502.20416259765625 355.2966613769531 501.1508483886719 356.4700012207031 C 500.0908508300781 357.6433410644531 498.6341857910156 358.2300109863281 496.7808532714844 358.2300109863281 C 495.62750244140625 358.2300109863281 494.6075134277344 357.9633483886719 493.7208557128906 357.42999267578125 C 492.8275146484375 356.8900146484375 492.13751220703125 356.1166687011719 491.6508483886719 355.1099853515625 C 491.17083740234375 354.0966796875 490.93084716796875 352.9166564941406 490.93084716796875 351.57000732421875 C 490.93084716796875 349.4766540527344 491.45416259765625 347.84332275390625 492.5008544921875 346.6700134277344 C 493.5475158691406 345.5033264160156 495.0008544921875 344.9200134277344 496.86083984375 344.9200134277344 C 498.6541748046875 344.9200134277344 500.0808410644531 345.51666259765625 501.1408386230469 346.7099914550781 C 502.2008361816406 347.9100036621094 502.7308349609375 349.5299987792969 502.7308349609375 351.57000732421875 M 492.9408264160156 351.57000732421875 C 492.9408264160156 353.2099914550781 493.2708435058594 354.4599914550781 493.93084716796875 355.32000732421875 C 494.58416748046875 356.17999267578125 495.5475158691406 356.6099853515625 496.8208312988281 356.6099853515625 C 498.09417724609375 356.6099853515625 499.06085205078125 356.17999267578125 499.7208557128906 355.32000732421875 C 500.3808288574219 354.4666748046875 500.7108459472656 353.2166748046875 500.7108459472656 351.57000732421875 C 500.7108459472656 349.9366760253906 500.3808288574219 348.6966552734375 499.7208557128906 347.8500061035156 C 499.06085205078125 346.9966735839844 498.0874938964844 346.57000732421875 496.80084228515625 346.57000732421875 C 495.5274963378906 346.57000732421875 494.5675048828125 346.989990234375 493.92083740234375 347.8299865722656 C 493.26751708984375 348.663330078125 492.9408264160156 349.9100036621094 492.9408264160156 351.57000732421875 ZM 517.2284545898438 351.57000732421875 C 517.2284545898438 353.663330078125 516.7017822265625 355.2966613769531 515.6484375 356.4700012207031 C 514.5884399414062 357.6433410644531 513.1317749023438 358.2300109863281 511.2784729003906 358.2300109863281 C 510.1251220703125 358.2300109863281 509.1051330566406 357.9633483886719 508.2184753417969 357.42999267578125 C 507.32513427734375 356.8900146484375 506.6351318359375 356.1166687011719 506.1484680175781 355.1099853515625 C 505.66845703125 354.0966796875 505.428466796875 352.9166564941406 505.428466796875 351.57000732421875 C 505.428466796875 349.4766540527344 505.9517822265625 347.84332275390625 506.99847412109375 346.6700134277344 C 508.0451354980469 345.5033264160156 509.49847412109375 344.9200134277344 511.35845947265625 344.9200134277344 C 513.1517944335938 344.9200134277344 514.5784912109375 345.51666259765625 515.6384887695312 346.7099914550781 C 516.698486328125 347.9100036621094 517.2284545898438 349.5299987792969 517.2284545898438 351.57000732421875 M 507.4384460449219 351.57000732421875 C 507.4384460449219 353.2099914550781 507.7684631347656 354.4599914550781 508.428466796875 355.32000732421875 C 509.081787109375 356.17999267578125 510.0451354980469 356.6099853515625 511.3184509277344 356.6099853515625 C 512.591796875 356.6099853515625 513.5584716796875 356.17999267578125 514.2184448242188 355.32000732421875 C 514.8784790039062 354.4666748046875 515.2084350585938 353.2166748046875 515.2084350585938 351.57000732421875 C 515.2084350585938 349.9366760253906 514.8784790039062 348.6966552734375 514.2184448242188 347.8500061035156 C 513.5584716796875 346.9966735839844 512.5851440429688 346.57000732421875 511.2984619140625 346.57000732421875 C 510.0251159667969 346.57000732421875 509.06512451171875 346.989990234375 508.41845703125 347.8299865722656 C 507.76513671875 348.663330078125 507.4384460449219 349.9100036621094 507.4384460449219 351.57000732421875 ZM 537.00244140625 358 L 537.00244140625 349.6400146484375 C 537.00244140625 348.6199951171875 536.7857666015625 347.85333251953125 536.3524780273438 347.3399963378906 C 535.9124755859375 346.82666015625 535.232421875 346.57000732421875 534.3124389648438 346.57000732421875 C 533.09912109375 346.57000732421875 532.2024536132812 346.9200134277344 531.6224365234375 347.6199951171875 C 531.0491333007812 348.3133239746094 530.762451171875 349.3833312988281 530.762451171875 350.8299865722656 L 530.762451171875 358 L 528.8124389648438 358 L 528.8124389648438 349.6400146484375 C 528.8124389648438 348.6199951171875 528.5957641601562 347.85333251953125 528.1624755859375 347.3399963378906 C 527.7224731445312 346.82666015625 527.0391235351562 346.57000732421875 526.1124267578125 346.57000732421875 C 524.8924560546875 346.57000732421875 523.9991455078125 346.9366760253906 523.4324340820312 347.6700134277344 C 522.8657836914062 348.4033203125 522.5824584960938 349.6000061035156 522.5824584960938 351.260009765625 L 522.5824584960938 358 L 520.6324462890625 358 L 520.6324462890625 345.1600036621094 L 522.2124633789062 345.1600036621094 L 522.532470703125 346.9100036621094 L 522.6224365234375 346.9100036621094 C 522.9957885742188 346.2900085449219 523.5158081054688 345.8033447265625 524.1824340820312 345.45001220703125 C 524.84912109375 345.0966796875 525.5957641601562 344.9200134277344 526.4224243164062 344.9200134277344 C 528.4291381835938 344.9200134277344 529.742431640625 345.64666748046875 530.3624267578125 347.1000061035156 L 530.4524536132812 347.1000061035156 C 530.839111328125 346.4266662597656 531.395751953125 345.89666748046875 532.1224365234375 345.510009765625 C 532.84912109375 345.1166687011719 533.67578125 344.9200134277344 534.6024780273438 344.9200134277344 C 536.0557861328125 344.9200134277344 537.1424560546875 345.2933349609375 537.8624267578125 346.0400085449219 C 538.589111328125 346.78668212890625 538.9524536132812 347.9800109863281 538.9524536132812 349.6199951171875 L 538.9524536132812 358 L 537.00244140625 358 ZM 551.2485961914062 354.5 C 551.2485961914062 355.6933288574219 550.8019409179688 356.61334228515625 549.9086303710938 357.260009765625 C 549.02197265625 357.90667724609375 547.77197265625 358.2300109863281 546.1586303710938 358.2300109863281 C 544.4586181640625 358.2300109863281 543.1319580078125 357.9633483886719 542.1786499023438 357.42999267578125 L 542.1786499023438 355.6199951171875 C 542.7919311523438 355.9333190917969 543.4519653320312 356.17999267578125 544.1586303710938 356.3599853515625 C 544.8652954101562 356.5400085449219 545.5486450195312 356.6300048828125 546.2086181640625 356.6300048828125 C 547.221923828125 356.6300048828125 548.001953125 356.4666748046875 548.5486450195312 356.1400146484375 C 549.0952758789062 355.82000732421875 549.3685913085938 355.32666015625 549.3685913085938 354.6600036621094 C 549.3685913085938 354.1600036621094 549.1519775390625 353.73333740234375 548.7186279296875 353.3800048828125 C 548.2852783203125 353.0199890136719 547.4419555664062 352.6000061035156 546.1885986328125 352.1199951171875 C 544.9886474609375 351.67333984375 544.1386108398438 351.2833251953125 543.6386108398438 350.95001220703125 C 543.1319580078125 350.6166687011719 542.7553100585938 350.239990234375 542.5086059570312 349.82000732421875 C 542.261962890625 349.3999938964844 542.1386108398438 348.89666748046875 542.1386108398438 348.30999755859375 C 542.1386108398438 347.2633361816406 542.5653076171875 346.4366760253906 543.4186401367188 345.8299865722656 C 544.27197265625 345.22332763671875 545.4385986328125 344.9200134277344 546.9186401367188 344.9200134277344 C 548.3052978515625 344.9200134277344 549.6586303710938 345.2033386230469 550.9786376953125 345.7699890136719 L 550.2886352539062 347.3500061035156 C 548.9953002929688 346.8166809082031 547.8253173828125 346.54998779296875 546.7786254882812 346.54998779296875 C 545.858642578125 346.54998779296875 545.165283203125 346.6933288574219 544.6986083984375 346.9800109863281 C 544.2252807617188 347.2733459472656 543.9886474609375 347.67333984375 543.9886474609375 348.17999267578125 C 543.9886474609375 348.52667236328125 544.07861328125 348.82000732421875 544.2586059570312 349.05999755859375 C 544.4319458007812 349.29998779296875 544.7152709960938 349.5299987792969 545.108642578125 349.75 C 545.4953002929688 349.9700012207031 546.2453002929688 350.28668212890625 547.358642578125 350.70001220703125 C 548.8786010742188 351.2533264160156 549.9052734375 351.80999755859375 550.4385986328125 352.3699951171875 C 550.9786376953125 352.9366760253906 551.2485961914062 353.64666748046875 551.2485961914062 354.5 ZM 554.1270141601562 356.760009765625 C 554.1270141601562 356.23333740234375 554.2470092773438 355.836669921875 554.4869995117188 355.57000732421875 C 554.7269897460938 355.2966613769531 555.0669555664062 355.1600036621094 555.5069580078125 355.1600036621094 C 555.9603271484375 355.1600036621094 556.3136596679688 355.2966613769531 556.5669555664062 355.57000732421875 C 556.8269653320312 355.836669921875 556.9569702148438 356.23333740234375 556.9569702148438 356.760009765625 C 556.9569702148438 357.26666259765625 556.8269653320312 357.65667724609375 556.5669555664062 357.92999267578125 C 556.3070068359375 358.2033386230469 555.9536743164062 358.3399963378906 555.5069580078125 358.3399963378906 C 555.1136474609375 358.3399963378906 554.7836303710938 358.2166748046875 554.5169677734375 357.9700012207031 C 554.2569580078125 357.72332763671875 554.1270141601562 357.32000732421875 554.1270141601562 356.760009765625 ZM 565.9326782226562 358.2300109863281 C 564.0726928710938 358.2300109863281 562.6326904296875 357.6600036621094 561.6126708984375 356.5199890136719 C 560.5926513671875 355.3733215332031 560.0826416015625 353.7533264160156 560.0826416015625 351.6600036621094 C 560.0826416015625 349.5133361816406 560.5993041992188 347.85333251953125 561.6326904296875 346.67999267578125 C 562.666015625 345.50665283203125 564.1393432617188 344.9200134277344 566.0526733398438 344.9200134277344 C 566.6726684570312 344.9200134277344 567.2926635742188 344.9866638183594 567.9126586914062 345.1199951171875 C 568.5260009765625 345.2533264160156 569.0093383789062 345.4100036621094 569.3626708984375 345.5899963378906 L 568.7626953125 347.239990234375 C 568.3359985351562 347.0666809082031 567.8693237304688 346.92333984375 567.3626708984375 346.80999755859375 C 566.8493041992188 346.6966552734375 566.3993530273438 346.6400146484375 566.0126953125 346.6400146484375 C 563.3993530273438 346.6400146484375 562.0926513671875 348.3066711425781 562.0926513671875 351.6400146484375 C 562.0926513671875 353.21331787109375 562.4126586914062 354.42333984375 563.0526733398438 355.2699890136719 C 563.6859741210938 356.1166687011719 564.6293334960938 356.5400085449219 565.8826904296875 356.5400085449219 C 566.9493408203125 356.5400085449219 568.0460205078125 356.3066711425781 569.1726684570312 355.8399963378906 L 569.1726684570312 357.57000732421875 C 568.3126831054688 358.010009765625 567.232666015625 358.2300109863281 565.9326782226562 358.2300109863281 ZM 583.3092651367188 351.57000732421875 C 583.3092651367188 353.663330078125 582.7825927734375 355.2966613769531 581.729248046875 356.4700012207031 C 580.6692504882812 357.6433410644531 579.2125854492188 358.2300109863281 577.3592529296875 358.2300109863281 C 576.2059326171875 358.2300109863281 575.1859130859375 357.9633483886719 574.2992553710938 357.42999267578125 C 573.4058837890625 356.8900146484375 572.7158813476562 356.1166687011719 572.229248046875 355.1099853515625 C 571.749267578125 354.0966796875 571.5092163085938 352.9166564941406 571.5092163085938 351.57000732421875 C 571.5092163085938 349.4766540527344 572.0325927734375 347.84332275390625 573.0792236328125 346.6700134277344 C 574.1259155273438 345.5033264160156 575.5792236328125 344.9200134277344 577.4392700195312 344.9200134277344 C 579.2325439453125 344.9200134277344 580.6592407226562 345.51666259765625 581.71923828125 346.7099914550781 C 582.7792358398438 347.9100036621094 583.3092651367188 349.5299987792969 583.3092651367188 351.57000732421875 M 573.5192260742188 351.57000732421875 C 573.5192260742188 353.2099914550781 573.8492431640625 354.4599914550781 574.5092163085938 355.32000732421875 C 575.16259765625 356.17999267578125 576.1259155273438 356.6099853515625 577.3992309570312 356.6099853515625 C 578.6725463867188 356.6099853515625 579.6392211914062 356.17999267578125 580.2992553710938 355.32000732421875 C 580.959228515625 354.4666748046875 581.2892456054688 353.2166748046875 581.2892456054688 351.57000732421875 C 581.2892456054688 349.9366760253906 580.959228515625 348.6966552734375 580.2992553710938 347.8500061035156 C 579.6392211914062 346.9966735839844 578.6658935546875 346.57000732421875 577.3792114257812 346.57000732421875 C 576.1058959960938 346.57000732421875 575.1459350585938 346.989990234375 574.499267578125 347.8299865722656 C 573.8458862304688 348.663330078125 573.5192260742188 349.9100036621094 573.5192260742188 351.57000732421875 ZM 603.0868530273438 358 L 603.0868530273438 349.6400146484375 C 603.0868530273438 348.6199951171875 602.8701782226562 347.85333251953125 602.4368896484375 347.3399963378906 C 601.9968872070312 346.82666015625 601.3168334960938 346.57000732421875 600.3968505859375 346.57000732421875 C 599.1835327148438 346.57000732421875 598.286865234375 346.9200134277344 597.7068481445312 347.6199951171875 C 597.133544921875 348.3133239746094 596.8468627929688 349.3833312988281 596.8468627929688 350.8299865722656 L 596.8468627929688 358 L 594.8968505859375 358 L 594.8968505859375 349.6400146484375 C 594.8968505859375 348.6199951171875 594.68017578125 347.85333251953125 594.2468872070312 347.3399963378906 C 593.806884765625 346.82666015625 593.12353515625 346.57000732421875 592.1968383789062 346.57000732421875 C 590.9768676757812 346.57000732421875 590.0835571289062 346.9366760253906 589.516845703125 347.6700134277344 C 588.9501953125 348.4033203125 588.6668701171875 349.6000061035156 588.6668701171875 351.260009765625 L 588.6668701171875 358 L 586.7168579101562 358 L 586.7168579101562 345.1600036621094 L 588.296875 345.1600036621094 L 588.6168823242188 346.9100036621094 L 588.7068481445312 346.9100036621094 C 589.0802001953125 346.2900085449219 589.6002197265625 345.8033447265625 590.266845703125 345.45001220703125 C 590.9335327148438 345.0966796875 591.68017578125 344.9200134277344 592.5068359375 344.9200134277344 C 594.5135498046875 344.9200134277344 595.8268432617188 345.64666748046875 596.4468383789062 347.1000061035156 L 596.536865234375 347.1000061035156 C 596.9235229492188 346.4266662597656 597.480224609375 345.89666748046875 598.2068481445312 345.510009765625 C 598.9335327148438 345.1166687011719 599.7601928710938 344.9200134277344 600.6868896484375 344.9200134277344 C 602.1401977539062 344.9200134277344 603.2268676757812 345.2933349609375 603.9468383789062 346.0400085449219 C 604.6735229492188 346.78668212890625 605.036865234375 347.9800109863281 605.036865234375 349.6199951171875 L 605.036865234375 358 L 603.0868530273438 358 Z" transform="matrix(11.464508056640625, 0, 0, 11.464508056640625, -2757.90869140625, -3489.8994140625)" style="fill: rgb(0, 0, 0); white-space: pre; color: rgb(255, 255, 255); stroke: rgb(0, 0, 0); stroke-width: 2; paint-order: stroke; stroke-opacity: 1; fill-opacity: 1; -webkit-text-stroke: 0px rgb(0, 0, 0);"/></svg>