<?xml version="1.0" encoding="utf-8"?>
<svg id="master-artboard" viewBox="0 0 3684.33447265625 868.3101196289062" version="1.1" xmlns="http://www.w3.org/2000/svg" x="0px" y="0px" style="enable-background:new 0 0 336 235.2;" width="3684.33447265625px" height="868.3101196289062px"><rect id="ee-background" x="0" y="0" width="3684.33447265625" height="868.3101196289062" style="fill: white; fill-opacity: 0; pointer-events: none;"/><defs><linearGradient id="gradient-0" gradientUnits="userSpaceOnUse" x1="457.45069885253906" y1="358" x2="457.45069885253906" y2="390.68957901000977">
                <stop offset="0" style="stop-color: #333333"/>
                <stop offset="1" style="stop-color: #000000"/>
              </linearGradient><radialGradient id="gradient-1" gradientUnits="objectBoundingBox" cx="0.5" cy="0.5" r="0.5">
                <stop offset="0" style="stop-color: #333333"/>
                <stop offset="1" style="stop-color: #000000"/>
              </radialGradient></defs>





















































































































































<path d="M 321.1641845703125 345.8599853515625 C 321.1641845703125 347.59332275390625 320.57086181640625 348.9266662597656 319.3841857910156 349.8599853515625 C 318.2041931152344 350.7933349609375 316.5108642578125 351.260009765625 314.3041687011719 351.260009765625 L 312.294189453125 351.260009765625 L 312.294189453125 358 L 310.3041687011719 358 L 310.3041687011719 340.8699951171875 L 314.7441711425781 340.8699951171875 C 319.024169921875 340.8699951171875 321.1641845703125 342.5333251953125 321.1641845703125 345.8599853515625 M 312.294189453125 349.54998779296875 L 314.0841979980469 349.54998779296875 C 315.8508605957031 349.54998779296875 317.12750244140625 349.26666259765625 317.9141845703125 348.70001220703125 C 318.70751953125 348.1266784667969 319.10418701171875 347.2099914550781 319.10418701171875 345.95001220703125 C 319.10418701171875 344.8166809082031 318.7308349609375 343.97332763671875 317.98419189453125 343.4200134277344 C 317.2441711425781 342.8666687011719 316.0875244140625 342.5899963378906 314.5141906738281 342.5899963378906 L 312.294189453125 342.5899963378906 L 312.294189453125 349.54998779296875 ZM 326.4022216796875 358 L 324.45220947265625 358 L 324.45220947265625 339.7699890136719 L 326.4022216796875 339.7699890136719 L 326.4022216796875 358 ZM 338.421142578125 358 L 338.0311584472656 356.1700134277344 L 337.941162109375 356.1700134277344 C 337.3011474609375 356.9766540527344 336.6611633300781 357.5233459472656 336.0211486816406 357.80999755859375 C 335.3878173828125 358.0899963378906 334.594482421875 358.2300109863281 333.6411437988281 358.2300109863281 C 332.3678283691406 358.2300109863281 331.37115478515625 357.9033203125 330.6511535644531 357.25 C 329.92449951171875 356.5966796875 329.5611572265625 355.663330078125 329.5611572265625 354.45001220703125 C 329.5611572265625 351.8566589355469 331.6344909667969 350.4966735839844 335.7811584472656 350.3699951171875 L 337.9611511230469 350.29998779296875 L 337.9611511230469 349.5 C 337.9611511230469 348.49334716796875 337.7444763183594 347.75 337.3111572265625 347.2699890136719 C 336.8778076171875 346.7900085449219 336.1844787597656 346.54998779296875 335.23114013671875 346.54998779296875 C 334.16448974609375 346.54998779296875 332.9544982910156 346.8800048828125 331.6011657714844 347.5400085449219 L 331.00115966796875 346.04998779296875 C 331.6344909667969 345.7033386230469 332.32781982421875 345.4333190917969 333.0811462402344 345.239990234375 C 333.83447265625 345.0466613769531 334.5911560058594 344.95001220703125 335.3511657714844 344.95001220703125 C 336.8844909667969 344.95001220703125 338.017822265625 345.28668212890625 338.75115966796875 345.9599914550781 C 339.49114990234375 346.6400146484375 339.86114501953125 347.7300109863281 339.86114501953125 349.2300109863281 L 339.86114501953125 358 L 338.421142578125 358 M 334.0311584472656 356.6300048828125 C 335.2378234863281 356.6300048828125 336.18780517578125 356.2966613769531 336.88116455078125 355.6300048828125 C 337.5744934082031 354.9700012207031 337.921142578125 354.0400085449219 337.921142578125 352.8399963378906 L 337.921142578125 351.67999267578125 L 335.9711608886719 351.7699890136719 C 334.42449951171875 351.8233337402344 333.3111572265625 352.0633239746094 332.63116455078125 352.489990234375 C 331.9444885253906 352.9100036621094 331.6011657714844 353.57000732421875 331.6011657714844 354.4700012207031 C 331.6011657714844 355.1766662597656 331.8144836425781 355.7133483886719 332.24114990234375 356.0799865722656 C 332.6678161621094 356.4466552734375 333.2644958496094 356.6300048828125 334.0311584472656 356.6300048828125 ZM 352.6583557128906 358 L 352.6583557128906 349.69000244140625 C 352.6583557128906 348.6433410644531 352.42169189453125 347.86334228515625 351.9483642578125 347.3500061035156 C 351.4683532714844 346.8299865722656 350.7216796875 346.57000732421875 349.7083435058594 346.57000732421875 C 348.3616943359375 346.57000732421875 347.37835693359375 346.9333190917969 346.75836181640625 347.6600036621094 C 346.1316833496094 348.38665771484375 345.818359375 349.586669921875 345.818359375 351.260009765625 L 345.818359375 358 L 343.86834716796875 358 L 343.86834716796875 345.1600036621094 L 345.4483642578125 345.1600036621094 L 345.7683410644531 346.9100036621094 L 345.85833740234375 346.9100036621094 C 346.25836181640625 346.27667236328125 346.818359375 345.78668212890625 347.5383605957031 345.44000244140625 C 348.25836181640625 345.09332275390625 349.058349609375 344.9200134277344 349.9383544921875 344.9200134277344 C 351.4850158691406 344.9200134277344 352.65167236328125 345.2933349609375 353.4383544921875 346.0400085449219 C 354.2183532714844 346.78668212890625 354.60833740234375 347.9800109863281 354.60833740234375 349.6199951171875 L 354.60833740234375 358 L 352.6583557128906 358 ZM 364.0299072265625 358.2300109863281 C 362.1299133300781 358.2300109863281 360.6299133300781 357.6533203125 359.5299072265625 356.5 C 358.43658447265625 355.3466796875 357.8899230957031 353.739990234375 357.8899230957031 351.67999267578125 C 357.8899230957031 349.61334228515625 358.39990234375 347.9700012207031 359.419921875 346.75 C 360.4399108886719 345.5299987792969 361.80657958984375 344.9200134277344 363.5199279785156 344.9200134277344 C 365.13323974609375 344.9200134277344 366.4065856933594 345.45001220703125 367.33990478515625 346.510009765625 C 368.2799072265625 347.57000732421875 368.7499084472656 348.9666748046875 368.7499084472656 350.70001220703125 L 368.7499084472656 351.92999267578125 L 359.89990234375 351.92999267578125 C 359.9399108886719 353.4366760253906 360.3232421875 354.5799865722656 361.0499267578125 355.3599853515625 C 361.7699279785156 356.14666748046875 362.7865905761719 356.5400085449219 364.09991455078125 356.5400085449219 C 365.47991943359375 356.5400085449219 366.8465881347656 356.25 368.1999206542969 355.6700134277344 L 368.1999206542969 357.3999938964844 C 367.51324462890625 357.70001220703125 366.8632507324219 357.913330078125 366.2499084472656 358.0400085449219 C 365.6365966796875 358.1666564941406 364.8965759277344 358.2300109863281 364.0299072265625 358.2300109863281 M 363.4999084472656 346.54998779296875 C 362.4665832519531 346.54998779296875 361.64324951171875 346.88665771484375 361.0299072265625 347.55999755859375 C 360.4165954589844 348.23333740234375 360.05657958984375 349.163330078125 359.9499206542969 350.3500061035156 L 366.669921875 350.3500061035156 C 366.669921875 349.1233215332031 366.39324951171875 348.1833190917969 365.83990478515625 347.5299987792969 C 365.2932434082031 346.8766784667969 364.51324462890625 346.54998779296875 363.4999084472656 346.54998779296875 ZM 376.2145080566406 356.6300048828125 C 376.5611877441406 356.6300048828125 376.89453125 356.60333251953125 377.2145080566406 356.54998779296875 C 377.5345153808594 356.5033264160156 377.787841796875 356.45001220703125 377.9745178222656 356.3900146484375 L 377.9745178222656 357.8800048828125 C 377.76116943359375 357.9866638183594 377.451171875 358.07000732421875 377.0445251464844 358.1300048828125 C 376.6311950683594 358.1966552734375 376.26116943359375 358.2300109863281 375.93450927734375 358.2300109863281 C 373.4478454589844 358.2300109863281 372.20452880859375 356.92333984375 372.20452880859375 354.30999755859375 L 372.20452880859375 346.6700134277344 L 370.364501953125 346.6700134277344 L 370.364501953125 345.7300109863281 L 372.20452880859375 344.9200134277344 L 373.0245056152344 342.17999267578125 L 374.1545104980469 342.17999267578125 L 374.1545104980469 345.1600036621094 L 377.884521484375 345.1600036621094 L 377.884521484375 346.6700134277344 L 374.1545104980469 346.6700134277344 L 374.1545104980469 354.2300109863281 C 374.1545104980469 355.0033264160156 374.3378601074219 355.5966796875 374.70452880859375 356.010009765625 C 375.0711975097656 356.42333984375 375.57452392578125 356.6300048828125 376.2145080566406 356.6300048828125 ZM 379.4566650390625 352.4599914550781 L 379.4566650390625 350.67999267578125 L 385.2166442871094 350.67999267578125 L 385.2166442871094 352.4599914550781 L 379.4566650390625 352.4599914550781 ZM 399.3479309082031 351.57000732421875 C 399.3479309082031 353.663330078125 398.8212585449219 355.2966613769531 397.7679443359375 356.4700012207031 C 396.70794677734375 357.6433410644531 395.25128173828125 358.2300109863281 393.39794921875 358.2300109863281 C 392.2445983886719 358.2300109863281 391.224609375 357.9633483886719 390.33795166015625 357.42999267578125 C 389.4446105957031 356.8900146484375 388.7546081542969 356.1166687011719 388.2679443359375 355.1099853515625 C 387.7879333496094 354.0966796875 387.5479431152344 352.9166564941406 387.5479431152344 351.57000732421875 C 387.5479431152344 349.4766540527344 388.0712585449219 347.84332275390625 389.1179504394531 346.6700134277344 C 390.16461181640625 345.5033264160156 391.6179504394531 344.9200134277344 393.4779357910156 344.9200134277344 C 395.2712707519531 344.9200134277344 396.69793701171875 345.51666259765625 397.7579345703125 346.7099914550781 C 398.81793212890625 347.9100036621094 399.3479309082031 349.5299987792969 399.3479309082031 351.57000732421875 M 389.55792236328125 351.57000732421875 C 389.55792236328125 353.2099914550781 389.887939453125 354.4599914550781 390.5479431152344 355.32000732421875 C 391.2012634277344 356.17999267578125 392.16461181640625 356.6099853515625 393.43792724609375 356.6099853515625 C 394.7112731933594 356.6099853515625 395.6779479980469 356.17999267578125 396.33795166015625 355.32000732421875 C 396.9979248046875 354.4666748046875 397.32794189453125 353.2166748046875 397.32794189453125 351.57000732421875 C 397.32794189453125 349.9366760253906 396.9979248046875 348.6966552734375 396.33795166015625 347.8500061035156 C 395.6779479980469 346.9966735839844 394.70458984375 346.57000732421875 393.4179382324219 346.57000732421875 C 392.14459228515625 346.57000732421875 391.1846008300781 346.989990234375 390.5379333496094 347.8299865722656 C 389.8846130371094 348.663330078125 389.55792236328125 349.9100036621094 389.55792236328125 351.57000732421875 ZM 408.5447082519531 346.6700134277344 L 405.2746887207031 346.6700134277344 L 405.2746887207031 358 L 403.334716796875 358 L 403.334716796875 346.6700134277344 L 401.0346984863281 346.6700134277344 L 401.0346984863281 345.7900085449219 L 403.334716796875 345.0899963378906 L 403.334716796875 344.3699951171875 C 403.334716796875 341.2166748046875 404.71136474609375 339.6400146484375 407.4646911621094 339.6400146484375 C 408.14471435546875 339.6400146484375 408.9413757324219 339.77667236328125 409.8547058105469 340.04998779296875 L 409.3547058105469 341.6099853515625 C 408.6080322265625 341.36334228515625 407.9680480957031 341.239990234375 407.4346923828125 341.239990234375 C 406.70135498046875 341.239990234375 406.15802001953125 341.48333740234375 405.8046875 341.9700012207031 C 405.45135498046875 342.46331787109375 405.2746887207031 343.2466735839844 405.2746887207031 344.32000732421875 L 405.2746887207031 345.1600036621094 L 408.5447082519531 345.1600036621094 L 408.5447082519531 346.6700134277344 ZM 409.8057556152344 352.4599914550781 L 409.8057556152344 350.67999267578125 L 415.56573486328125 350.67999267578125 L 415.56573486328125 352.4599914550781 L 409.8057556152344 352.4599914550781 ZM 434.9792175292969 358 L 434.9792175292969 349.6400146484375 C 434.9792175292969 348.6199951171875 434.7625732421875 347.85333251953125 434.3292236328125 347.3399963378906 C 433.88922119140625 346.82666015625 433.209228515625 346.57000732421875 432.2892150878906 346.57000732421875 C 431.0758972167969 346.57000732421875 430.1792297363281 346.9200134277344 429.5992126464844 347.6199951171875 C 429.02587890625 348.3133239746094 428.7392272949219 349.3833312988281 428.7392272949219 350.8299865722656 L 428.7392272949219 358 L 426.7892150878906 358 L 426.7892150878906 349.6400146484375 C 426.7892150878906 348.6199951171875 426.57257080078125 347.85333251953125 426.13922119140625 347.3399963378906 C 425.69921875 346.82666015625 425.0158996582031 346.57000732421875 424.0892333984375 346.57000732421875 C 422.8692321777344 346.57000732421875 421.97589111328125 346.9366760253906 421.4092102050781 347.6700134277344 C 420.8425598144531 348.4033203125 420.5592346191406 349.6000061035156 420.5592346191406 351.260009765625 L 420.5592346191406 358 L 418.6092224121094 358 L 418.6092224121094 345.1600036621094 L 420.1892395019531 345.1600036621094 L 420.50921630859375 346.9100036621094 L 420.5992126464844 346.9100036621094 C 420.9725646972656 346.2900085449219 421.4925537109375 345.8033447265625 422.1592102050781 345.45001220703125 C 422.8258972167969 345.0966796875 423.57257080078125 344.9200134277344 424.39923095703125 344.9200134277344 C 426.4058837890625 344.9200134277344 427.71923828125 345.64666748046875 428.3392333984375 347.1000061035156 L 428.4292297363281 347.1000061035156 C 428.8158874511719 346.4266662597656 429.37255859375 345.89666748046875 430.0992126464844 345.510009765625 C 430.8258972167969 345.1166687011719 431.6525573730469 344.9200134277344 432.5792236328125 344.9200134277344 C 434.0325622558594 344.9200134277344 435.1192321777344 345.2933349609375 435.8392333984375 346.0400085449219 C 436.5658874511719 346.78668212890625 436.9292297363281 347.9800109863281 436.9292297363281 349.6199951171875 L 436.9292297363281 358 L 434.9792175292969 358 ZM 442.76361083984375 345.1600036621094 L 442.76361083984375 353.489990234375 C 442.76361083984375 354.5366516113281 443.00360107421875 355.3166809082031 443.48358154296875 355.8299865722656 C 443.9569396972656 356.3500061035156 444.70025634765625 356.6099853515625 445.7135925292969 356.6099853515625 C 447.0602722167969 356.6099853515625 448.0436096191406 356.239990234375 448.6636047363281 355.5 C 449.2835998535156 354.76666259765625 449.5935974121094 353.57000732421875 449.5935974121094 351.9100036621094 L 449.5935974121094 345.1600036621094 L 451.5436096191406 345.1600036621094 L 451.5436096191406 358 L 449.93359375 358 L 449.6535949707031 356.2799987792969 L 449.5535888671875 356.2799987792969 C 449.1535949707031 356.913330078125 448.6002502441406 357.39666748046875 447.8935852050781 357.7300109863281 C 447.1869201660156 358.0633239746094 446.3802490234375 358.2300109863281 445.4736022949219 358.2300109863281 C 443.90692138671875 358.2300109863281 442.7369384765625 357.8599853515625 441.9635925292969 357.1199951171875 C 441.18359375 356.3800048828125 440.7936096191406 355.1933288574219 440.7936096191406 353.55999755859375 L 440.7936096191406 345.1600036621094 L 442.76361083984375 345.1600036621094 ZM 463.95294189453125 354.5 C 463.95294189453125 355.6933288574219 463.5062561035156 356.61334228515625 462.6129455566406 357.260009765625 C 461.72625732421875 357.90667724609375 460.47625732421875 358.2300109863281 458.8629455566406 358.2300109863281 C 457.1629333496094 358.2300109863281 455.8362731933594 357.9633483886719 454.8829345703125 357.42999267578125 L 454.8829345703125 355.6199951171875 C 455.49627685546875 355.9333190917969 456.1562805175781 356.17999267578125 456.8629455566406 356.3599853515625 C 457.5696105957031 356.5400085449219 458.2529296875 356.6300048828125 458.9129333496094 356.6300048828125 C 459.92626953125 356.6300048828125 460.7062683105469 356.4666748046875 461.2529296875 356.1400146484375 C 461.7995910644531 355.82000732421875 462.07293701171875 355.32666015625 462.07293701171875 354.6600036621094 C 462.07293701171875 354.1600036621094 461.85626220703125 353.73333740234375 461.4229431152344 353.3800048828125 C 460.9895935058594 353.0199890136719 460.1462707519531 352.6000061035156 458.8929443359375 352.1199951171875 C 457.69293212890625 351.67333984375 456.8429260253906 351.2833251953125 456.3429260253906 350.95001220703125 C 455.8362731933594 350.6166687011719 455.4595947265625 350.239990234375 455.2129211425781 349.82000732421875 C 454.9662780761719 349.3999938964844 454.8429260253906 348.89666748046875 454.8429260253906 348.30999755859375 C 454.8429260253906 347.2633361816406 455.26959228515625 346.4366760253906 456.1229248046875 345.8299865722656 C 456.97625732421875 345.22332763671875 458.1429443359375 344.9200134277344 459.6229248046875 344.9200134277344 C 461.0096130371094 344.9200134277344 462.3629455566406 345.2033386230469 463.68292236328125 345.7699890136719 L 462.9929504394531 347.3500061035156 C 461.6996154785156 346.8166809082031 460.52960205078125 346.54998779296875 459.4829406738281 346.54998779296875 C 458.56292724609375 346.54998779296875 457.8695983886719 346.6933288574219 457.4029235839844 346.9800109863281 C 456.9295959472656 347.2733459472656 456.69293212890625 347.67333984375 456.69293212890625 348.17999267578125 C 456.69293212890625 348.52667236328125 456.7829284667969 348.82000732421875 456.9629211425781 349.05999755859375 C 457.1362609863281 349.29998779296875 457.41961669921875 349.5299987792969 457.81292724609375 349.75 C 458.1996154785156 349.9700012207031 458.9496154785156 350.28668212890625 460.06292724609375 350.70001220703125 C 461.58294677734375 351.2533264160156 462.6095886230469 351.80999755859375 463.1429443359375 352.3699951171875 C 463.68292236328125 352.9366760253906 463.95294189453125 353.64666748046875 463.95294189453125 354.5 ZM 475.9019470214844 358 L 475.9019470214844 349.69000244140625 C 475.9019470214844 348.6433410644531 475.665283203125 347.86334228515625 475.19195556640625 347.3500061035156 C 474.7119445800781 346.8299865722656 473.96527099609375 346.57000732421875 472.9519348144531 346.57000732421875 C 471.5986022949219 346.57000732421875 470.6119384765625 346.94000244140625 469.991943359375 347.67999267578125 C 469.3719482421875 348.413330078125 469.06195068359375 349.6166687011719 469.06195068359375 351.2900085449219 L 469.06195068359375 358 L 467.1119384765625 358 L 467.1119384765625 339.7699890136719 L 469.06195068359375 339.7699890136719 L 469.06195068359375 345.2900085449219 C 469.06195068359375 345.95001220703125 469.0285949707031 346.5 468.9619445800781 346.94000244140625 L 469.0819396972656 346.94000244140625 C 469.4685974121094 346.32000732421875 470.0152587890625 345.8333435058594 470.7219543457031 345.4800109863281 C 471.4286193847656 345.1266784667969 472.2352600097656 344.95001220703125 473.1419372558594 344.95001220703125 C 474.7086181640625 344.95001220703125 475.8852844238281 345.32000732421875 476.67193603515625 346.05999755859375 C 477.4586181640625 346.8066711425781 477.8519287109375 347.99334716796875 477.8519287109375 349.6199951171875 L 477.8519287109375 358 L 475.9019470214844 358 ZM 487.7012939453125 344.9200134277344 C 488.2746276855469 344.9200134277344 488.7879333496094 344.9666748046875 489.24127197265625 345.05999755859375 L 488.9712829589844 346.8699951171875 C 488.4379577636719 346.75 487.96795654296875 346.69000244140625 487.561279296875 346.69000244140625 C 486.5212707519531 346.69000244140625 485.6346130371094 347.11334228515625 484.9012756347656 347.9599914550781 C 484.1612854003906 348.79998779296875 483.7912902832031 349.8500061035156 483.7912902832031 351.1099853515625 L 483.7912902832031 358 L 481.8412780761719 358 L 481.8412780761719 345.1600036621094 L 483.4512939453125 345.1600036621094 L 483.6712951660156 347.5400085449219 L 483.76129150390625 347.5400085449219 C 484.24127197265625 346.70001220703125 484.81793212890625 346.0533447265625 485.49127197265625 345.6000061035156 C 486.157958984375 345.14666748046875 486.8946228027344 344.9200134277344 487.7012939453125 344.9200134277344 ZM 502.72796630859375 351.57000732421875 C 502.72796630859375 353.663330078125 502.2012939453125 355.2966613769531 501.1479797363281 356.4700012207031 C 500.0879821777344 357.6433410644531 498.6313171386719 358.2300109863281 496.7779846191406 358.2300109863281 C 495.6246337890625 358.2300109863281 494.6046447753906 357.9633483886719 493.7179870605469 357.42999267578125 C 492.82464599609375 356.8900146484375 492.1346435546875 356.1166687011719 491.6479797363281 355.1099853515625 C 491.16796875 354.0966796875 490.927978515625 352.9166564941406 490.927978515625 351.57000732421875 C 490.927978515625 349.4766540527344 491.4512939453125 347.84332275390625 492.49798583984375 346.6700134277344 C 493.5446472167969 345.5033264160156 494.99798583984375 344.9200134277344 496.85797119140625 344.9200134277344 C 498.65130615234375 344.9200134277344 500.0779724121094 345.51666259765625 501.1379699707031 346.7099914550781 C 502.1979675292969 347.9100036621094 502.72796630859375 349.5299987792969 502.72796630859375 351.57000732421875 M 492.9379577636719 351.57000732421875 C 492.9379577636719 353.2099914550781 493.2679748535156 354.4599914550781 493.927978515625 355.32000732421875 C 494.581298828125 356.17999267578125 495.5446472167969 356.6099853515625 496.8179626464844 356.6099853515625 C 498.09130859375 356.6099853515625 499.0579833984375 356.17999267578125 499.7179870605469 355.32000732421875 C 500.3779602050781 354.4666748046875 500.7079772949219 353.2166748046875 500.7079772949219 351.57000732421875 C 500.7079772949219 349.9366760253906 500.3779602050781 348.6966552734375 499.7179870605469 347.8500061035156 C 499.0579833984375 346.9966735839844 498.0846252441406 346.57000732421875 496.7979736328125 346.57000732421875 C 495.5246276855469 346.57000732421875 494.56463623046875 346.989990234375 493.91796875 347.8299865722656 C 493.2646484375 348.663330078125 492.9379577636719 349.9100036621094 492.9379577636719 351.57000732421875 ZM 517.2247314453125 351.57000732421875 C 517.2247314453125 353.663330078125 516.6980590820312 355.2966613769531 515.6447143554688 356.4700012207031 C 514.584716796875 357.6433410644531 513.1280517578125 358.2300109863281 511.2747497558594 358.2300109863281 C 510.12139892578125 358.2300109863281 509.1014099121094 357.9633483886719 508.2147521972656 357.42999267578125 C 507.3214111328125 356.8900146484375 506.63140869140625 356.1166687011719 506.1447448730469 355.1099853515625 C 505.66473388671875 354.0966796875 505.42474365234375 352.9166564941406 505.42474365234375 351.57000732421875 C 505.42474365234375 349.4766540527344 505.94805908203125 347.84332275390625 506.9947509765625 346.6700134277344 C 508.0414123535156 345.5033264160156 509.4947509765625 344.9200134277344 511.354736328125 344.9200134277344 C 513.1480712890625 344.9200134277344 514.57470703125 345.51666259765625 515.634765625 346.7099914550781 C 516.6947631835938 347.9100036621094 517.2247314453125 349.5299987792969 517.2247314453125 351.57000732421875 M 507.4347229003906 351.57000732421875 C 507.4347229003906 353.2099914550781 507.7647399902344 354.4599914550781 508.42474365234375 355.32000732421875 C 509.07806396484375 356.17999267578125 510.0414123535156 356.6099853515625 511.3147277832031 356.6099853515625 C 512.5880737304688 356.6099853515625 513.5547485351562 356.17999267578125 514.2147216796875 355.32000732421875 C 514.874755859375 354.4666748046875 515.2047119140625 353.2166748046875 515.2047119140625 351.57000732421875 C 515.2047119140625 349.9366760253906 514.874755859375 348.6966552734375 514.2147216796875 347.8500061035156 C 513.5547485351562 346.9966735839844 512.5814208984375 346.57000732421875 511.29473876953125 346.57000732421875 C 510.0213928222656 346.57000732421875 509.0614013671875 346.989990234375 508.41473388671875 347.8299865722656 C 507.76141357421875 348.663330078125 507.4347229003906 349.9100036621094 507.4347229003906 351.57000732421875 ZM 536.999267578125 358 L 536.999267578125 349.6400146484375 C 536.999267578125 348.6199951171875 536.7825927734375 347.85333251953125 536.3493041992188 347.3399963378906 C 535.9093017578125 346.82666015625 535.229248046875 346.57000732421875 534.3092651367188 346.57000732421875 C 533.095947265625 346.57000732421875 532.1992797851562 346.9200134277344 531.6192626953125 347.6199951171875 C 531.0459594726562 348.3133239746094 530.75927734375 349.3833312988281 530.75927734375 350.8299865722656 L 530.75927734375 358 L 528.8092651367188 358 L 528.8092651367188 349.6400146484375 C 528.8092651367188 348.6199951171875 528.5925903320312 347.85333251953125 528.1593017578125 347.3399963378906 C 527.7192993164062 346.82666015625 527.0359497070312 346.57000732421875 526.1092529296875 346.57000732421875 C 524.8892822265625 346.57000732421875 523.9959716796875 346.9366760253906 523.4292602539062 347.6700134277344 C 522.8626098632812 348.4033203125 522.5792846679688 349.6000061035156 522.5792846679688 351.260009765625 L 522.5792846679688 358 L 520.6292724609375 358 L 520.6292724609375 345.1600036621094 L 522.2092895507812 345.1600036621094 L 522.529296875 346.9100036621094 L 522.6192626953125 346.9100036621094 C 522.9926147460938 346.2900085449219 523.5126342773438 345.8033447265625 524.1792602539062 345.45001220703125 C 524.845947265625 345.0966796875 525.5925903320312 344.9200134277344 526.4192504882812 344.9200134277344 C 528.4259643554688 344.9200134277344 529.7392578125 345.64666748046875 530.3592529296875 347.1000061035156 L 530.4492797851562 347.1000061035156 C 530.8359375 346.4266662597656 531.392578125 345.89666748046875 532.1192626953125 345.510009765625 C 532.845947265625 345.1166687011719 533.672607421875 344.9200134277344 534.5993041992188 344.9200134277344 C 536.0526123046875 344.9200134277344 537.1392822265625 345.2933349609375 537.8592529296875 346.0400085449219 C 538.5859375 346.78668212890625 538.9492797851562 347.9800109863281 538.9492797851562 349.6199951171875 L 538.9492797851562 358 L 536.999267578125 358 ZM 551.2435913085938 354.5 C 551.2435913085938 355.6933288574219 550.7969360351562 356.61334228515625 549.9036254882812 357.260009765625 C 549.0169677734375 357.90667724609375 547.7669677734375 358.2300109863281 546.1536254882812 358.2300109863281 C 544.45361328125 358.2300109863281 543.126953125 357.9633483886719 542.1736450195312 357.42999267578125 L 542.1736450195312 355.6199951171875 C 542.7869262695312 355.9333190917969 543.4469604492188 356.17999267578125 544.1536254882812 356.3599853515625 C 544.8602905273438 356.5400085449219 545.5436401367188 356.6300048828125 546.20361328125 356.6300048828125 C 547.2169189453125 356.6300048828125 547.9969482421875 356.4666748046875 548.5436401367188 356.1400146484375 C 549.0902709960938 355.82000732421875 549.3635864257812 355.32666015625 549.3635864257812 354.6600036621094 C 549.3635864257812 354.1600036621094 549.14697265625 353.73333740234375 548.713623046875 353.3800048828125 C 548.2802734375 353.0199890136719 547.4369506835938 352.6000061035156 546.18359375 352.1199951171875 C 544.983642578125 351.67333984375 544.1336059570312 351.2833251953125 543.6336059570312 350.95001220703125 C 543.126953125 350.6166687011719 542.7503051757812 350.239990234375 542.5036010742188 349.82000732421875 C 542.2569580078125 349.3999938964844 542.1336059570312 348.89666748046875 542.1336059570312 348.30999755859375 C 542.1336059570312 347.2633361816406 542.560302734375 346.4366760253906 543.4136352539062 345.8299865722656 C 544.2669677734375 345.22332763671875 545.43359375 344.9200134277344 546.9136352539062 344.9200134277344 C 548.30029296875 344.9200134277344 549.6536254882812 345.2033386230469 550.9736328125 345.7699890136719 L 550.2836303710938 347.3500061035156 C 548.9902954101562 346.8166809082031 547.8203125 346.54998779296875 546.7736206054688 346.54998779296875 C 545.8536376953125 346.54998779296875 545.1602783203125 346.6933288574219 544.693603515625 346.9800109863281 C 544.2202758789062 347.2733459472656 543.983642578125 347.67333984375 543.983642578125 348.17999267578125 C 543.983642578125 348.52667236328125 544.0736083984375 348.82000732421875 544.2536010742188 349.05999755859375 C 544.4269409179688 349.29998779296875 544.7102661132812 349.5299987792969 545.1036376953125 349.75 C 545.4902954101562 349.9700012207031 546.2402954101562 350.28668212890625 547.3536376953125 350.70001220703125 C 548.8735961914062 351.2533264160156 549.9002685546875 351.80999755859375 550.43359375 352.3699951171875 C 550.9736328125 352.9366760253906 551.2435913085938 353.64666748046875 551.2435913085938 354.5 Z" transform="matrix(11.464508056640625, 0, 0, 11.464508056640625, -2727.90869140625, -3567.0947265625)" style="fill: rgb(51, 51, 51); white-space: pre; color: rgb(51, 51, 51); stroke: rgb(0, 0, 0); stroke-width: 2; paint-order: stroke; stroke-opacity: 1; fill-opacity: 1;"/><g transform="matrix(5.064630031585693, 0, 0, 5.064630031585693, -1733.9066162109375, -2635.231689453125)"><g transform="matrix(1, 0, 0, 1, 5.684341886080802e-14, 0)">
	
	
	<g>
		<path class="st0" d="M449.9,564l0.1,1l-1.5,0.3l-0.2,2.2h1.8l2.4-0.2l1.2-1.5l-1.3-0.5l-0.7-0.8l-1.1-1.8l-0.5-2.5l-2.1,0.4&#10;&#9;&#9;&#9;l-0.6,0.9v1l1,0.7L449.9,564z M449.9,564" style="fill: rgb(51, 51, 51); opacity: 1;"/>
		<path class="st0" d="M448.2,564.8l0.1-1.4l-1.2-0.5l-1.7,0.4l-1.3,2v1.3h1.5L448.2,564.8z M448.2,564.8" style="fill: rgb(51, 51, 51); opacity: 1;"/>
		<path class="st0" d="M413.4,570.6l-0.4,1h-1.8v0.9h0.4c0,0,0,0.2,0.1,0.5l1.1-0.1l0.7-0.4l0.2-0.9l0.9-0.1l0.3-0.7l-0.8-0.2&#10;&#9;&#9;&#9;L413.4,570.6z M413.4,570.6" style="fill: rgb(51, 51, 51); opacity: 1;"/>
		<path class="st0" d="M408.8,572.2l-0.1,0.9l1.3-0.1l0.1-0.9l-0.8-0.6L408.8,572.2z M408.8,572.2" style="fill: rgb(51, 51, 51); opacity: 1;"/>
		<path class="st0" d="M487.1,601.3c0-2-0.1-4-0.3-6c-0.6-6.5-2.2-12.8-4.5-18.6c-0.2-0.4-0.3-0.9-0.5-1.3&#10;&#9;&#9;&#9;c-3.1-7.4-7.5-14.1-12.8-19.8c-0.3-0.4-0.7-0.7-1.1-1.1c-1-1-2-2.1-3.1-3.1c-12.2-11.1-28.3-17.9-46.1-17.9&#10;&#9;&#9;&#9;c-17.9,0-34.2,6.9-46.4,18.1c-2.8,2.6-5.5,5.5-7.8,8.5c-9,11.6-14.3,26.1-14.3,41.8c0,37.8,30.7,68.5,68.5,68.5&#10;&#9;&#9;&#9;c26.6,0,49.6-15.2,61-37.4c2.4-4.7,4.3-9.8,5.6-15.1c0.3-1.3,0.6-2.7,0.9-4.1c0.7-3.9,1.1-7.9,1.1-12&#10;&#9;&#9;&#9;C487.1,601.7,487.1,601.5,487.1,601.3L487.1,601.3z M474.2,573.9l0.4-0.5c0.5,1,1,2,1.5,3.1l-0.6,0l-1.2,0.2V573.9z M464.3,562&#10;&#9;&#9;&#9;l0-3.1c1.1,1.1,2.1,2.3,3.1,3.5l-1.2,1.8l-4.3,0l-0.3-0.9L464.3,562z M381.7,554.4v-0.1h1.4l0.1-0.5h2.3v1l-0.6,0.9h-3.1V554.4z&#10;&#9;&#9;&#9; M383.9,557.4c0,0,1.4-0.2,1.5-0.2c0.1,0,0,1.4,0,1.4l-3.1,0.2l-0.6-0.7L383.9,557.4z M478.6,584.6h-5l-3.1-2.3l-3.2,0.3v2h-1&#10;&#9;&#9;&#9;l-1.1-0.8l-5.6-1.4v-3.6l-7.1,0.6l-2.2,1.2h-2.8l-1.4-0.2l-3.4,1.9v3.5l-6.9,5l0.6,2.1h1.4l-0.4,2l-1,0.4l-0.1,5.3l6,6.8h2.6&#10;&#9;&#9;&#9;l0.2-0.4h4.7l1.3-1.2h2.7l1.5,1.5l4,0.4l-0.5,5.3l4.4,7.8l-2.3,4.4l0.2,2.1l1.8,1.8v5l2.4,3.2v4.2h2.1&#10;&#9;&#9;&#9;c-11.5,14.2-29.1,23.2-48.7,23.2c-34.7,0-62.8-28.2-62.8-62.9c0-8.7,1.8-17,5-24.6v-2l2.3-2.7c0.8-1.5,1.6-2.9,2.5-4.3l0.1,1.1&#10;&#9;&#9;&#9;l-2.6,3.2c-0.8,1.5-1.6,3.1-2.2,4.7v3.6l2.6,1.3v5l2.5,4.3l2,0.3l0.3-1.5l-2.4-3.7l-0.5-3.6h1.4l0.6,3.7l3.5,5.1l-0.9,1.6l2.2,3.4&#10;&#9;&#9;&#9;l5.5,1.3v-0.9l2.2,0.3l-0.2,1.6l1.7,0.3l2.7,0.7l3.8,4.3l4.8,0.4l0.5,3.9l-3.3,2.3l-0.2,3.5l-0.5,2.1l4.8,6l0.4,2&#10;&#9;&#9;&#9;c0,0,1.7,0.5,1.9,0.5c0.2,0,3.9,2.8,3.9,2.8v10.8l1.3,0.4l-0.9,5l2.2,2.9l-0.4,4.9l2.9,5.1l3.7,3.2l3.7,0.1l0.4-1.2l-2.7-2.3&#10;&#9;&#9;&#9;l0.2-1.1l0.5-1.4l0.1-1.4l-1.9-0.1l-0.9-1.2l1.5-1.5l0.2-1.1l-1.7-0.5l0.1-1l2.5-0.4l3.7-1.8l1.3-2.3l3.9-5l-0.9-3.9l1.2-2.1&#10;&#9;&#9;&#9;l3.6,0.1l2.4-1.9l0.8-7.6l2.7-3.4l0.5-2.2l-2.5-0.8l-1.6-2.7l-5.5-0.1l-4.4-1.7l-0.2-3.1l-1.5-2.6l-4-0.1l-2.3-3.6l-2-1l-0.1,1.1&#10;&#9;&#9;&#9;l-3.7,0.2l-1.4-1.9l-3.9-0.8l-3.2,3.7l-5-0.8l-0.4-5.7l-3.7-0.6l1.5-2.8l-0.4-1.6l-4.8,3.2l-3-0.4l-1.1-2.4l0.6-2.4l1.7-3.1&#10;&#9;&#9;&#9;l3.8-1.9h7.4l0,2.3l2.7,1.2l-0.2-3.9l1.9-1.9l3.9-2.5l0.3-1.8l3.9-4l4.1-2.3l-0.4-0.3l2.8-2.6l1,0.3l0.5,0.6l1.1-1.2l0.3-0.1&#10;&#9;&#9;&#9;l-1.2-0.2l-1.2-0.4v-1.1l0.6-0.5h1.4l0.6,0.3l0.5,1.1l0.7-0.1v-0.1l0.2,0.1l1.9-0.3l0.3-1l1.1,0.3v1l-1,0.7l0.2,1.1l3.5,1.1l0,0&#10;&#9;&#9;&#9;l0.8-0.1l0.1-1.5l-2.8-1.2l-0.2-0.7l2.3-0.8l0.1-2.2l-2.4-1.5l-0.2-3.7l-3.3,1.6H413l0.3-2.8l-4.5-1.1l-1.9,1.4v4.3l-3.3,1&#10;&#9;&#9;&#9;l-1.3,2.8l-1.5,0.2v-3.6l-3.1-0.4l-1.6-1l-0.6-2.3l5.6-3.3l2.8-0.8l0.3,1.8l1.5-0.1l0.1-0.9l1.6-0.2l0-0.3l-0.7-0.3l-0.2-1l2-0.2&#10;&#9;&#9;&#9;l1.2-1.2l0.1-0.1h0l0.4-0.4l4.1-0.5l1.8,1.6l-4.8,2.5l6.1,1.4l0.8-2h2.7l0.9-1.8l-1.9-0.5V551l-5.9-2.6l-4.1,0.5l-2.3,1.2l0.2,2.9&#10;&#9;&#9;&#9;l-2.4-0.4l-0.4-1.6l2.3-2.1l-4.2-0.2l-1.2,0.4l-0.5,1.4l1.6,0.3l-0.3,1.6l-2.7,0.2l-0.4,1l-3.9,0.1c0,0-0.1-2.2-0.3-2.2&#10;&#9;&#9;&#9;c-0.2,0,3-0.1,3-0.1l2.3-2.3l-1.3-0.6l-1.7,1.6l-2.8-0.2l-1.7-2.3h-3.5l-3.7,2.8h3.4l0.3,1l-0.9,0.8l3.8,0.1l0.6,1.4l-4.2-0.2&#10;&#9;&#9;&#9;l-0.2-1l-2.7-0.6l-1.4-0.8l-3.2,0c10.4-7.6,23.1-12,36.9-12c15.9,0,30.4,5.9,41.5,15.7l-0.7,1.3l-2.9,1.1l-1.2,1.3l0.3,1.6&#10;&#9;&#9;&#9;l1.5,0.2l0.9,2.3l2.6-1l0.4,3h-0.8l-2.1-0.3l-2.4,0.4l-2.3,3.2l-3.3,0.5l-0.5,2.8l1.4,0.3l-0.4,1.8l-3.2-0.6l-3,0.6l-0.6,1.6&#10;&#9;&#9;&#9;l0.5,3.5l1.7,0.8l2.9,0l2-0.2l0.6-1.6l3.1-4l2,0.4l2-1.8l0.4,1.4l4.9,3.3l-0.6,0.8l-2.2-0.1l0.9,1.2l1.4,0.3l1.6-0.7l0-1.9&#10;&#9;&#9;&#9;l0.7-0.4l-0.6-0.6l-3.3-1.8l-0.9-2.4h2.7l0.9,0.9l2.4,2l0.1,2.4l2.4,2.6l0.9-3.5l1.7-0.9l0.3,2.9l1.7,1.8l3.3-0.1&#10;&#9;&#9;&#9;c0.6,1.6,1.2,3.3,1.7,5L478.6,584.6z M387.5,564.6l1.6-0.8l1.5,0.4l-0.5,2l-1.6,0.5L387.5,564.6z M396.2,569.3v1.3h-3.8l-1.4-0.4&#10;&#9;&#9;&#9;l0.4-0.9l1.8-0.7h2.5v0.7H396.2z M398,571.1v1.2L397,573l-1.2,0.2v-2.1H398z M396.9,570.6v-1.5l1.3,1.2L396.9,570.6z M397.5,573.6&#10;&#9;&#9;&#9;v1.2l-0.9,0.9h-2l0.3-1.4l0.9-0.1l0.2-0.5L397.5,573.6z M392.5,571.1h2.1l-2.7,3.7l-1.1-0.6l0.2-1.6L392.5,571.1z M401,573.2v1.2&#10;&#9;&#9;&#9;h-2l-0.5-0.8v-1.1h0.2L401,573.2z M399.2,571.5l0.6-0.6l1,0.6l-0.8,0.6L399.2,571.5z M479.6,587.8l0.2-0.2&#10;&#9;&#9;&#9;c0.1,0.3,0.2,0.7,0.2,1.1L479.6,587.8z M479.6,587.8" style="fill: rgb(51, 51, 51); opacity: 1;"/>
		<path class="st0" d="M360.8,575.4v2c0.7-1.6,1.4-3.2,2.3-4.7L360.8,575.4z M360.8,575.4" style="fill: rgb(51, 51, 51); opacity: 1;"/>
	</g>
</g></g></svg>