<?xml version="1.0" encoding="utf-8"?>
<svg id="master-artboard" viewBox="0 0 32 32" version="1.1" xmlns="http://www.w3.org/2000/svg" x="0px" y="0px" style="enable-background:new 0 0 336 235.2;" width="32px" height="32px"><rect id="ee-background" x="0" y="0" width="32" height="32" style="fill: white; fill-opacity: 0; pointer-events: none;"/><defs><style id="ee-google-fonts">@import url(https://fonts.googleapis.com/css?family=Audiowide:400);</style></defs>





















































































































































<g transform="matrix(0.09645147621631622, -0.09672515094280243, 0.09672515094280243, 0.09645147621631622, -114.23227691650392, 7.118397712707505)"><g transform="matrix(1, 0, 0, 1, 1.1368683772161603e-13, 0)"><g transform="matrix(1, 0, 0, 1, -68.63700866699213, -13.428979873657227)">
	<g>
		<g>
			<path class="st1" d="M636,765.7c-0.1-0.1-0.3-0.3-0.4-0.4c-1.9-2.3-1.5-5.7,0.8-7.5l27.6-21.7c2.3-1.9,5.7-1.5,7.6,0.8&#10;&#9;&#9;&#9;&#9;c1.9,2.3,1.5,5.7-0.8,7.6l-27.7,21.7C641,767.8,637.9,767.6,636,765.7z" style="fill: rgb(51, 51, 51); opacity: 1;"/>
		</g>
		<path class="st1" d="M722,762.5l-7.7-7.7l-45.1,64.7c-8.8,8.4-22.8,8.3-31.4-0.3l-23.6-23.6c-8.7-8.7-8.8-22.7-0.3-31.5l63-46.8&#10;&#9;&#9;&#9;l-7.7-7.7l-62,46.1c-0.2,0.2-0.4,0.3-0.6,0.5c-12.9,12.9-12.9,34,0,46.9l23.6,23.6c12.9,12.9,34,12.9,46.9,0&#10;&#9;&#9;&#9;c0.2-0.2,0.4-0.5,0.6-0.7L722,762.5z" style="fill: rgb(51, 51, 51); opacity: 1;"/>
		<g>
			<path class="st1" d="M736.5,682.8c-4,4-10.5,4-14.6,0c-4-4-4-10.5,0-14.6c4-4,10.5-4,14.6,0C740.5,672.2,740.5,678.8,736.5,682.8&#10;&#9;&#9;&#9;&#9;z" style="fill: rgb(51, 51, 51); opacity: 1;"/>
		</g>
		<g>
			<path class="st1" d="M766.4,712.7c-4.3,4.3-11.3,4.3-15.7,0c-4.3-4.3-4.3-11.3,0-15.7c4.3-4.3,11.3-4.3,15.7,0&#10;&#9;&#9;&#9;&#9;C770.7,701.4,770.7,708.4,766.4,712.7z" style="fill: rgb(51, 51, 51); opacity: 1;"/>
		</g>
		<g>
			<path class="st1" d="M727.1,721.3c-4.6,4.6-12,4.6-16.5,0c-4.6-4.6-4.6-12,0-16.5c4.6-4.6,12-4.6,16.5,0&#10;&#9;&#9;&#9;&#9;C731.7,709.3,731.7,716.7,727.1,721.3z" style="fill: rgb(51, 51, 51); opacity: 1;"/>
		</g>
		<g>
			<path class="st1" d="M760.1,754.2c-4.6,4.6-12,4.6-16.5,0c-4.6-4.6-4.6-12,0-16.5c4.6-4.6,12-4.6,16.5,0&#10;&#9;&#9;&#9;&#9;C764.6,742.2,764.6,749.6,760.1,754.2z" style="fill: rgb(51, 51, 51); opacity: 1;"/>
		</g>
		<g>
			<path class="st1" d="M695.3,689.5c-4.6,4.6-12,4.6-16.5,0c-4.6-4.6-4.6-12,0-16.5c4.6-4.6,12-4.6,16.5,0&#10;&#9;&#9;&#9;&#9;C699.9,677.5,699.9,684.9,695.3,689.5z" style="fill: rgb(51, 51, 51); opacity: 1;"/>
		</g>
		<path class="st1" d="M773.5,659.9c-39.6-39.6-104.1-39.6-143.7,0c-2,2-3.8,4-5.6,6.1c-1.8,2.1-1.7,5.3,0.3,7.3l3.9,3.9l12,12&#10;&#9;&#9;&#9;l0.3,0.3l14,14l72.7,72.7l18,18l1,1l13.6,13.6c2,2,5.1,2.1,7.3,0.3c2.1-1.8,4.1-3.6,6.1-5.6C813,764,813.1,699.5,773.5,659.9z&#10;&#9;&#9;&#9; M764.1,797.7l-10-10l-1.8-1.8L649.1,682.8l-1.1-1.1l-12.3-12.3c0.6-0.6,1.1-1.2,1.7-1.8c35.4-35.4,93.1-35.4,128.5,0&#10;&#9;&#9;&#9;c35.4,35.4,35.4,93.1,0,128.5C765.3,796.6,764.7,797.2,764.1,797.7z" style="fill: rgb(51, 51, 51); opacity: 1;"/>
	</g>
</g></g></g></svg>