<?xml version="1.0" encoding="utf-8"?>
<svg id="master-artboard" viewBox="0 0 3835.596923828125 941.3036499023438" version="1.1" xmlns="http://www.w3.org/2000/svg" x="0px" y="0px" style="enable-background:new 0 0 336 235.2;" width="3835.596923828125px" height="941.3036499023438px"><rect id="ee-background" x="0" y="0" width="3835.596923828125" height="941.3036499023438" style="fill: white; fill-opacity: 0; pointer-events: none;"/><defs><linearGradient id="gradient-0" gradientUnits="userSpaceOnUse" x1="457.45069885253906" y1="358" x2="457.45069885253906" y2="390.68957901000977">
                <stop offset="0" style="stop-color: #333333"/>
                <stop offset="1" style="stop-color: #000000"/>
              </linearGradient><radialGradient id="gradient-1" gradientUnits="objectBoundingBox" cx="0.5" cy="0.5" r="0.5">
                <stop offset="0" style="stop-color: #333333"/>
                <stop offset="1" style="stop-color: #000000"/>
              </radialGradient></defs>





















































































































































<path d="M 321.1641540527344 345.8599853515625 C 321.1641540527344 347.59332275390625 320.5708312988281 348.9266662597656 319.3841552734375 349.8599853515625 C 318.20416259765625 350.7933349609375 316.5108337402344 351.260009765625 314.30413818359375 351.260009765625 L 312.2941589355469 351.260009765625 L 312.2941589355469 358 L 310.30413818359375 358 L 310.30413818359375 340.8699951171875 L 314.744140625 340.8699951171875 C 319.0241394042969 340.8699951171875 321.1641540527344 342.5333251953125 321.1641540527344 345.8599853515625 M 312.2941589355469 349.54998779296875 L 314.08416748046875 349.54998779296875 C 315.850830078125 349.54998779296875 317.1274719238281 349.26666259765625 317.9141540527344 348.70001220703125 C 318.7074890136719 348.1266784667969 319.1041564941406 347.2099914550781 319.1041564941406 345.95001220703125 C 319.1041564941406 344.8166809082031 318.7308349609375 343.97332763671875 317.9841613769531 343.4200134277344 C 317.244140625 342.8666687011719 316.0874938964844 342.5899963378906 314.51416015625 342.5899963378906 L 312.2941589355469 342.5899963378906 L 312.2941589355469 349.54998779296875 ZM 326.4009094238281 358 L 324.4508972167969 358 L 324.4508972167969 339.7699890136719 L 326.4009094238281 339.7699890136719 L 326.4009094238281 358 ZM 338.4212646484375 358 L 338.0312805175781 356.1700134277344 L 337.9412841796875 356.1700134277344 C 337.30126953125 356.9766540527344 336.6612854003906 357.5233459472656 336.0212707519531 357.80999755859375 C 335.387939453125 358.0899963378906 334.5946044921875 358.2300109863281 333.6412658691406 358.2300109863281 C 332.3679504394531 358.2300109863281 331.37127685546875 357.9033203125 330.6512756347656 357.25 C 329.92462158203125 356.5966796875 329.561279296875 355.663330078125 329.561279296875 354.45001220703125 C 329.561279296875 351.8566589355469 331.6346130371094 350.4966735839844 335.7812805175781 350.3699951171875 L 337.9612731933594 350.29998779296875 L 337.9612731933594 349.5 C 337.9612731933594 348.49334716796875 337.7445983886719 347.75 337.311279296875 347.2699890136719 C 336.8779296875 346.7900085449219 336.1846008300781 346.54998779296875 335.23126220703125 346.54998779296875 C 334.16461181640625 346.54998779296875 332.9546203613281 346.8800048828125 331.6012878417969 347.5400085449219 L 331.00128173828125 346.04998779296875 C 331.6346130371094 345.7033386230469 332.32794189453125 345.4333190917969 333.0812683105469 345.239990234375 C 333.8345947265625 345.0466613769531 334.5912780761719 344.95001220703125 335.3512878417969 344.95001220703125 C 336.8846130371094 344.95001220703125 338.0179443359375 345.28668212890625 338.75128173828125 345.9599914550781 C 339.49127197265625 346.6400146484375 339.86126708984375 347.7300109863281 339.86126708984375 349.2300109863281 L 339.86126708984375 358 L 338.4212646484375 358 M 334.0312805175781 356.6300048828125 C 335.2379455566406 356.6300048828125 336.18792724609375 356.2966613769531 336.88128662109375 355.6300048828125 C 337.5746154785156 354.9700012207031 337.9212646484375 354.0400085449219 337.9212646484375 352.8399963378906 L 337.9212646484375 351.67999267578125 L 335.9712829589844 351.7699890136719 C 334.42462158203125 351.8233337402344 333.311279296875 352.0633239746094 332.63128662109375 352.489990234375 C 331.9446105957031 352.9100036621094 331.6012878417969 353.57000732421875 331.6012878417969 354.4700012207031 C 331.6012878417969 355.1766662597656 331.8146057128906 355.7133483886719 332.24127197265625 356.0799865722656 C 332.6679382324219 356.4466552734375 333.2646179199219 356.6300048828125 334.0312805175781 356.6300048828125 ZM 352.6595458984375 358 L 352.6595458984375 349.69000244140625 C 352.6595458984375 348.6433410644531 352.4228820800781 347.86334228515625 351.9495544433594 347.3500061035156 C 351.46954345703125 346.8299865722656 350.7228698730469 346.57000732421875 349.70953369140625 346.57000732421875 C 348.3628845214844 346.57000732421875 347.3795471191406 346.9333190917969 346.7595520019531 347.6600036621094 C 346.13287353515625 348.38665771484375 345.8195495605469 349.586669921875 345.8195495605469 351.260009765625 L 345.8195495605469 358 L 343.8695373535156 358 L 343.8695373535156 345.1600036621094 L 345.4495544433594 345.1600036621094 L 345.76953125 346.9100036621094 L 345.8595275878906 346.9100036621094 C 346.2595520019531 346.27667236328125 346.8195495605469 345.78668212890625 347.53955078125 345.44000244140625 C 348.2595520019531 345.09332275390625 349.0595397949219 344.9200134277344 349.9395446777344 344.9200134277344 C 351.4862060546875 344.9200134277344 352.6528625488281 345.2933349609375 353.4395446777344 346.0400085449219 C 354.21954345703125 346.78668212890625 354.6095275878906 347.9800109863281 354.6095275878906 349.6199951171875 L 354.6095275878906 358 L 352.6595458984375 358 ZM 364.0297546386719 358.2300109863281 C 362.1297607421875 358.2300109863281 360.6297607421875 357.6533203125 359.5297546386719 356.5 C 358.4364318847656 355.3466796875 357.8897705078125 353.739990234375 357.8897705078125 351.67999267578125 C 357.8897705078125 349.61334228515625 358.3997497558594 347.9700012207031 359.4197692871094 346.75 C 360.43975830078125 345.5299987792969 361.8064270019531 344.9200134277344 363.519775390625 344.9200134277344 C 365.1330871582031 344.9200134277344 366.40643310546875 345.45001220703125 367.3397521972656 346.510009765625 C 368.2797546386719 347.57000732421875 368.749755859375 348.9666748046875 368.749755859375 350.70001220703125 L 368.749755859375 351.92999267578125 L 359.8997497558594 351.92999267578125 C 359.93975830078125 353.4366760253906 360.3230895996094 354.5799865722656 361.0497741699219 355.3599853515625 C 361.769775390625 356.14666748046875 362.78643798828125 356.5400085449219 364.0997619628906 356.5400085449219 C 365.4797668457031 356.5400085449219 366.846435546875 356.25 368.19976806640625 355.6700134277344 L 368.19976806640625 357.3999938964844 C 367.5130920410156 357.70001220703125 366.86309814453125 357.913330078125 366.249755859375 358.0400085449219 C 365.6364440917969 358.1666564941406 364.89642333984375 358.2300109863281 364.0297546386719 358.2300109863281 M 363.499755859375 346.54998779296875 C 362.4664306640625 346.54998779296875 361.6430969238281 346.88665771484375 361.0297546386719 347.55999755859375 C 360.41644287109375 348.23333740234375 360.0564270019531 349.163330078125 359.94976806640625 350.3500061035156 L 366.6697692871094 350.3500061035156 C 366.6697692871094 349.1233215332031 366.3930969238281 348.1833190917969 365.8397521972656 347.5299987792969 C 365.2930908203125 346.8766784667969 364.5130920410156 346.54998779296875 363.499755859375 346.54998779296875 ZM 376.2125244140625 356.6300048828125 C 376.5592041015625 356.6300048828125 376.8925476074219 356.60333251953125 377.2125244140625 356.54998779296875 C 377.53253173828125 356.5033264160156 377.7858581542969 356.45001220703125 377.9725341796875 356.3900146484375 L 377.9725341796875 357.8800048828125 C 377.7591857910156 357.9866638183594 377.4491882324219 358.07000732421875 377.04254150390625 358.1300048828125 C 376.62921142578125 358.1966552734375 376.2591857910156 358.2300109863281 375.9325256347656 358.2300109863281 C 373.44586181640625 358.2300109863281 372.2025451660156 356.92333984375 372.2025451660156 354.30999755859375 L 372.2025451660156 346.6700134277344 L 370.3625183105469 346.6700134277344 L 370.3625183105469 345.7300109863281 L 372.2025451660156 344.9200134277344 L 373.02252197265625 342.17999267578125 L 374.15252685546875 342.17999267578125 L 374.15252685546875 345.1600036621094 L 377.8825378417969 345.1600036621094 L 377.8825378417969 346.6700134277344 L 374.15252685546875 346.6700134277344 L 374.15252685546875 354.2300109863281 C 374.15252685546875 355.0033264160156 374.33587646484375 355.5966796875 374.7025451660156 356.010009765625 C 375.0692138671875 356.42333984375 375.5725402832031 356.6300048828125 376.2125244140625 356.6300048828125 ZM 379.4570617675781 352.4599914550781 L 379.4570617675781 350.67999267578125 L 385.217041015625 350.67999267578125 L 385.217041015625 352.4599914550781 L 379.4570617675781 352.4599914550781 ZM 399.3492431640625 351.57000732421875 C 399.3492431640625 353.663330078125 398.82257080078125 355.2966613769531 397.7692565917969 356.4700012207031 C 396.7092590332031 357.6433410644531 395.2525939941406 358.2300109863281 393.3992614746094 358.2300109863281 C 392.24591064453125 358.2300109863281 391.2259216308594 357.9633483886719 390.3392639160156 357.42999267578125 C 389.4459228515625 356.8900146484375 388.75592041015625 356.1166687011719 388.2692565917969 355.1099853515625 C 387.78924560546875 354.0966796875 387.54925537109375 352.9166564941406 387.54925537109375 351.57000732421875 C 387.54925537109375 349.4766540527344 388.07257080078125 347.84332275390625 389.1192626953125 346.6700134277344 C 390.1659240722656 345.5033264160156 391.6192626953125 344.9200134277344 393.479248046875 344.9200134277344 C 395.2725830078125 344.9200134277344 396.6992492675781 345.51666259765625 397.7592468261719 346.7099914550781 C 398.8192443847656 347.9100036621094 399.3492431640625 349.5299987792969 399.3492431640625 351.57000732421875 M 389.5592346191406 351.57000732421875 C 389.5592346191406 353.2099914550781 389.8892517089844 354.4599914550781 390.54925537109375 355.32000732421875 C 391.20257568359375 356.17999267578125 392.1659240722656 356.6099853515625 393.4392395019531 356.6099853515625 C 394.71258544921875 356.6099853515625 395.67926025390625 356.17999267578125 396.3392639160156 355.32000732421875 C 396.9992370605469 354.4666748046875 397.3292541503906 353.2166748046875 397.3292541503906 351.57000732421875 C 397.3292541503906 349.9366760253906 396.9992370605469 348.6966552734375 396.3392639160156 347.8500061035156 C 395.67926025390625 346.9966735839844 394.7059020996094 346.57000732421875 393.41925048828125 346.57000732421875 C 392.1459045410156 346.57000732421875 391.1859130859375 346.989990234375 390.53924560546875 347.8299865722656 C 389.88592529296875 348.663330078125 389.5592346191406 349.9100036621094 389.5592346191406 351.57000732421875 ZM 408.5450744628906 346.6700134277344 L 405.2750549316406 346.6700134277344 L 405.2750549316406 358 L 403.3350830078125 358 L 403.3350830078125 346.6700134277344 L 401.0350646972656 346.6700134277344 L 401.0350646972656 345.7900085449219 L 403.3350830078125 345.0899963378906 L 403.3350830078125 344.3699951171875 C 403.3350830078125 341.2166748046875 404.71173095703125 339.6400146484375 407.4650573730469 339.6400146484375 C 408.14508056640625 339.6400146484375 408.9417419433594 339.77667236328125 409.8550720214844 340.04998779296875 L 409.3550720214844 341.6099853515625 C 408.6083984375 341.36334228515625 407.9684143066406 341.239990234375 407.43505859375 341.239990234375 C 406.70172119140625 341.239990234375 406.15838623046875 341.48333740234375 405.8050537109375 341.9700012207031 C 405.45172119140625 342.46331787109375 405.2750549316406 343.2466735839844 405.2750549316406 344.32000732421875 L 405.2750549316406 345.1600036621094 L 408.5450744628906 345.1600036621094 L 408.5450744628906 346.6700134277344 ZM 409.80615234375 352.4599914550781 L 409.80615234375 350.67999267578125 L 415.5661315917969 350.67999267578125 L 415.5661315917969 352.4599914550781 L 409.80615234375 352.4599914550781 ZM 434.97833251953125 358 L 434.97833251953125 349.6400146484375 C 434.97833251953125 348.6199951171875 434.76165771484375 347.85333251953125 434.3283386230469 347.3399963378906 C 433.8883361816406 346.82666015625 433.2083435058594 346.57000732421875 432.288330078125 346.57000732421875 C 431.07501220703125 346.57000732421875 430.1783447265625 346.9200134277344 429.59832763671875 347.6199951171875 C 429.0249938964844 348.3133239746094 428.73834228515625 349.3833312988281 428.73834228515625 350.8299865722656 L 428.73834228515625 358 L 426.788330078125 358 L 426.788330078125 349.6400146484375 C 426.788330078125 348.6199951171875 426.5716857910156 347.85333251953125 426.1383361816406 347.3399963378906 C 425.6983337402344 346.82666015625 425.0150146484375 346.57000732421875 424.0883483886719 346.57000732421875 C 422.86834716796875 346.57000732421875 421.9750061035156 346.9366760253906 421.4083251953125 347.6700134277344 C 420.8416748046875 348.4033203125 420.558349609375 349.6000061035156 420.558349609375 351.260009765625 L 420.558349609375 358 L 418.60833740234375 358 L 418.60833740234375 345.1600036621094 L 420.1883544921875 345.1600036621094 L 420.5083312988281 346.9100036621094 L 420.59832763671875 346.9100036621094 C 420.9716796875 346.2900085449219 421.4916687011719 345.8033447265625 422.1583251953125 345.45001220703125 C 422.82501220703125 345.0966796875 423.5716857910156 344.9200134277344 424.3983459472656 344.9200134277344 C 426.4049987792969 344.9200134277344 427.7183532714844 345.64666748046875 428.3383483886719 347.1000061035156 L 428.4283447265625 347.1000061035156 C 428.81500244140625 346.4266662597656 429.3716735839844 345.89666748046875 430.09832763671875 345.510009765625 C 430.82501220703125 345.1166687011719 431.65167236328125 344.9200134277344 432.5783386230469 344.9200134277344 C 434.03167724609375 344.9200134277344 435.11834716796875 345.2933349609375 435.8383483886719 346.0400085449219 C 436.56500244140625 346.78668212890625 436.9283447265625 347.9800109863281 436.9283447265625 349.6199951171875 L 436.9283447265625 358 L 434.97833251953125 358 ZM 442.7626953125 345.1600036621094 L 442.7626953125 353.489990234375 C 442.7626953125 354.5366516113281 443.002685546875 355.3166809082031 443.482666015625 355.8299865722656 C 443.9560241699219 356.3500061035156 444.6993408203125 356.6099853515625 445.7126770019531 356.6099853515625 C 447.0593566894531 356.6099853515625 448.0426940917969 356.239990234375 448.6626892089844 355.5 C 449.2826843261719 354.76666259765625 449.5926818847656 353.57000732421875 449.5926818847656 351.9100036621094 L 449.5926818847656 345.1600036621094 L 451.5426940917969 345.1600036621094 L 451.5426940917969 358 L 449.93267822265625 358 L 449.6526794433594 356.2799987792969 L 449.55267333984375 356.2799987792969 C 449.1526794433594 356.913330078125 448.5993347167969 357.39666748046875 447.8926696777344 357.7300109863281 C 447.1860046386719 358.0633239746094 446.37933349609375 358.2300109863281 445.4726867675781 358.2300109863281 C 443.906005859375 358.2300109863281 442.73602294921875 357.8599853515625 441.9626770019531 357.1199951171875 C 441.18267822265625 356.3800048828125 440.7926940917969 355.1933288574219 440.7926940917969 353.55999755859375 L 440.7926940917969 345.1600036621094 L 442.7626953125 345.1600036621094 ZM 463.9529113769531 354.5 C 463.9529113769531 355.6933288574219 463.5062255859375 356.61334228515625 462.6129150390625 357.260009765625 C 461.7262268066406 357.90667724609375 460.4762268066406 358.2300109863281 458.8629150390625 358.2300109863281 C 457.16290283203125 358.2300109863281 455.83624267578125 357.9633483886719 454.8829040527344 357.42999267578125 L 454.8829040527344 355.6199951171875 C 455.4962463378906 355.9333190917969 456.15625 356.17999267578125 456.8629150390625 356.3599853515625 C 457.569580078125 356.5400085449219 458.2528991699219 356.6300048828125 458.91290283203125 356.6300048828125 C 459.9262390136719 356.6300048828125 460.70623779296875 356.4666748046875 461.2528991699219 356.1400146484375 C 461.799560546875 355.82000732421875 462.0729064941406 355.32666015625 462.0729064941406 354.6600036621094 C 462.0729064941406 354.1600036621094 461.8562316894531 353.73333740234375 461.42291259765625 353.3800048828125 C 460.98956298828125 353.0199890136719 460.146240234375 352.6000061035156 458.8929138183594 352.1199951171875 C 457.6929016113281 351.67333984375 456.8428955078125 351.2833251953125 456.3428955078125 350.95001220703125 C 455.83624267578125 350.6166687011719 455.4595642089844 350.239990234375 455.212890625 349.82000732421875 C 454.96624755859375 349.3999938964844 454.8428955078125 348.89666748046875 454.8428955078125 348.30999755859375 C 454.8428955078125 347.2633361816406 455.2695617675781 346.4366760253906 456.1228942871094 345.8299865722656 C 456.9762268066406 345.22332763671875 458.1429138183594 344.9200134277344 459.6228942871094 344.9200134277344 C 461.00958251953125 344.9200134277344 462.3629150390625 345.2033386230469 463.6828918457031 345.7699890136719 L 462.992919921875 347.3500061035156 C 461.6995849609375 346.8166809082031 460.5295715332031 346.54998779296875 459.48291015625 346.54998779296875 C 458.5628967285156 346.54998779296875 457.86956787109375 346.6933288574219 457.40289306640625 346.9800109863281 C 456.9295654296875 347.2733459472656 456.6929016113281 347.67333984375 456.6929016113281 348.17999267578125 C 456.6929016113281 348.52667236328125 456.78289794921875 348.82000732421875 456.962890625 349.05999755859375 C 457.13623046875 349.29998779296875 457.4195861816406 349.5299987792969 457.8128967285156 349.75 C 458.1995849609375 349.9700012207031 458.9495849609375 350.28668212890625 460.0628967285156 350.70001220703125 C 461.5829162597656 351.2533264160156 462.60955810546875 351.80999755859375 463.1429138183594 352.3699951171875 C 463.6828918457031 352.9366760253906 463.9529113769531 353.64666748046875 463.9529113769531 354.5 ZM 475.90130615234375 358 L 475.90130615234375 349.69000244140625 C 475.90130615234375 348.6433410644531 475.6646423339844 347.86334228515625 475.1913146972656 347.3500061035156 C 474.7113037109375 346.8299865722656 473.9646301269531 346.57000732421875 472.9512939453125 346.57000732421875 C 471.59796142578125 346.57000732421875 470.6112976074219 346.94000244140625 469.9913024902344 347.67999267578125 C 469.3713073730469 348.413330078125 469.0613098144531 349.6166687011719 469.0613098144531 351.2900085449219 L 469.0613098144531 358 L 467.1112976074219 358 L 467.1112976074219 339.7699890136719 L 469.0613098144531 339.7699890136719 L 469.0613098144531 345.2900085449219 C 469.0613098144531 345.95001220703125 469.0279541015625 346.5 468.9613037109375 346.94000244140625 L 469.081298828125 346.94000244140625 C 469.46795654296875 346.32000732421875 470.0146484375 345.8333435058594 470.7213134765625 345.4800109863281 C 471.427978515625 345.1266784667969 472.234619140625 344.95001220703125 473.14129638671875 344.95001220703125 C 474.7079772949219 344.95001220703125 475.8846435546875 345.32000732421875 476.6712951660156 346.05999755859375 C 477.4579772949219 346.8066711425781 477.8512878417969 347.99334716796875 477.8512878417969 349.6199951171875 L 477.8512878417969 358 L 475.90130615234375 358 ZM 487.7015380859375 344.9200134277344 C 488.2748718261719 344.9200134277344 488.7881774902344 344.9666748046875 489.24151611328125 345.05999755859375 L 488.9715270996094 346.8699951171875 C 488.4382019042969 346.75 487.96820068359375 346.69000244140625 487.5615234375 346.69000244140625 C 486.5215148925781 346.69000244140625 485.6348571777344 347.11334228515625 484.9015197753906 347.9599914550781 C 484.1615295410156 348.79998779296875 483.7915344238281 349.8500061035156 483.7915344238281 351.1099853515625 L 483.7915344238281 358 L 481.8415222167969 358 L 481.8415222167969 345.1600036621094 L 483.4515380859375 345.1600036621094 L 483.6715393066406 347.5400085449219 L 483.76153564453125 347.5400085449219 C 484.24151611328125 346.70001220703125 484.81817626953125 346.0533447265625 485.49151611328125 345.6000061035156 C 486.158203125 345.14666748046875 486.8948669433594 344.9200134277344 487.7015380859375 344.9200134277344 ZM 502.7280578613281 351.57000732421875 C 502.7280578613281 353.663330078125 502.2013854980469 355.2966613769531 501.1480712890625 356.4700012207031 C 500.08807373046875 357.6433410644531 498.63140869140625 358.2300109863281 496.778076171875 358.2300109863281 C 495.6247253417969 358.2300109863281 494.604736328125 357.9633483886719 493.71807861328125 357.42999267578125 C 492.8247375488281 356.8900146484375 492.1347351074219 356.1166687011719 491.6480712890625 355.1099853515625 C 491.1680603027344 354.0966796875 490.9280700683594 352.9166564941406 490.9280700683594 351.57000732421875 C 490.9280700683594 349.4766540527344 491.4513854980469 347.84332275390625 492.4980773925781 346.6700134277344 C 493.54473876953125 345.5033264160156 494.9980773925781 344.9200134277344 496.8580627441406 344.9200134277344 C 498.6513977050781 344.9200134277344 500.07806396484375 345.51666259765625 501.1380615234375 346.7099914550781 C 502.19805908203125 347.9100036621094 502.7280578613281 349.5299987792969 502.7280578613281 351.57000732421875 M 492.93804931640625 351.57000732421875 C 492.93804931640625 353.2099914550781 493.26806640625 354.4599914550781 493.9280700683594 355.32000732421875 C 494.5813903808594 356.17999267578125 495.54473876953125 356.6099853515625 496.81805419921875 356.6099853515625 C 498.0914001464844 356.6099853515625 499.0580749511719 356.17999267578125 499.71807861328125 355.32000732421875 C 500.3780517578125 354.4666748046875 500.70806884765625 353.2166748046875 500.70806884765625 351.57000732421875 C 500.70806884765625 349.9366760253906 500.3780517578125 348.6966552734375 499.71807861328125 347.8500061035156 C 499.0580749511719 346.9966735839844 498.084716796875 346.57000732421875 496.7980651855469 346.57000732421875 C 495.52471923828125 346.57000732421875 494.5647277832031 346.989990234375 493.9180603027344 347.8299865722656 C 493.2647399902344 348.663330078125 492.93804931640625 349.9100036621094 492.93804931640625 351.57000732421875 ZM 517.2239379882812 351.57000732421875 C 517.2239379882812 353.663330078125 516.697265625 355.2966613769531 515.6439208984375 356.4700012207031 C 514.5839233398438 357.6433410644531 513.1272583007812 358.2300109863281 511.27392578125 358.2300109863281 C 510.1205749511719 358.2300109863281 509.1005859375 357.9633483886719 508.21392822265625 357.42999267578125 C 507.3205871582031 356.8900146484375 506.6305847167969 356.1166687011719 506.1439208984375 355.1099853515625 C 505.6639099121094 354.0966796875 505.4239196777344 352.9166564941406 505.4239196777344 351.57000732421875 C 505.4239196777344 349.4766540527344 505.9472351074219 347.84332275390625 506.9939270019531 346.6700134277344 C 508.04058837890625 345.5033264160156 509.4939270019531 344.9200134277344 511.3539123535156 344.9200134277344 C 513.147216796875 344.9200134277344 514.5739135742188 345.51666259765625 515.6339111328125 346.7099914550781 C 516.6939086914062 347.9100036621094 517.2239379882812 349.5299987792969 517.2239379882812 351.57000732421875 M 507.43389892578125 351.57000732421875 C 507.43389892578125 353.2099914550781 507.763916015625 354.4599914550781 508.4239196777344 355.32000732421875 C 509.0772399902344 356.17999267578125 510.04058837890625 356.6099853515625 511.31390380859375 356.6099853515625 C 512.5872192382812 356.6099853515625 513.5538940429688 356.17999267578125 514.2139282226562 355.32000732421875 C 514.8739013671875 354.4666748046875 515.2039184570312 353.2166748046875 515.2039184570312 351.57000732421875 C 515.2039184570312 349.9366760253906 514.8739013671875 348.6966552734375 514.2139282226562 347.8500061035156 C 513.5538940429688 346.9966735839844 512.58056640625 346.57000732421875 511.2939147949219 346.57000732421875 C 510.02056884765625 346.57000732421875 509.0605773925781 346.989990234375 508.4139099121094 347.8299865722656 C 507.7605895996094 348.663330078125 507.43389892578125 349.9100036621094 507.43389892578125 351.57000732421875 ZM 536.9996948242188 358 L 536.9996948242188 349.6400146484375 C 536.9996948242188 348.6199951171875 536.7830200195312 347.85333251953125 536.3497314453125 347.3399963378906 C 535.9097290039062 346.82666015625 535.2296752929688 346.57000732421875 534.3096923828125 346.57000732421875 C 533.0963745117188 346.57000732421875 532.19970703125 346.9200134277344 531.6196899414062 347.6199951171875 C 531.04638671875 348.3133239746094 530.7597045898438 349.3833312988281 530.7597045898438 350.8299865722656 L 530.7597045898438 358 L 528.8096923828125 358 L 528.8096923828125 349.6400146484375 C 528.8096923828125 348.6199951171875 528.593017578125 347.85333251953125 528.1597290039062 347.3399963378906 C 527.7197265625 346.82666015625 527.036376953125 346.57000732421875 526.1096801757812 346.57000732421875 C 524.8897094726562 346.57000732421875 523.9963989257812 346.9366760253906 523.4296875 347.6700134277344 C 522.863037109375 348.4033203125 522.5797119140625 349.6000061035156 522.5797119140625 351.260009765625 L 522.5797119140625 358 L 520.6296997070312 358 L 520.6296997070312 345.1600036621094 L 522.209716796875 345.1600036621094 L 522.5297241210938 346.9100036621094 L 522.6196899414062 346.9100036621094 C 522.9930419921875 346.2900085449219 523.5130615234375 345.8033447265625 524.1796875 345.45001220703125 C 524.8463745117188 345.0966796875 525.593017578125 344.9200134277344 526.419677734375 344.9200134277344 C 528.4263916015625 344.9200134277344 529.7396850585938 345.64666748046875 530.3596801757812 347.1000061035156 L 530.44970703125 347.1000061035156 C 530.8363647460938 346.4266662597656 531.39306640625 345.89666748046875 532.1196899414062 345.510009765625 C 532.8463745117188 345.1166687011719 533.6730346679688 344.9200134277344 534.5997314453125 344.9200134277344 C 536.0530395507812 344.9200134277344 537.1397094726562 345.2933349609375 537.8596801757812 346.0400085449219 C 538.5863647460938 346.78668212890625 538.94970703125 347.9800109863281 538.94970703125 349.6199951171875 L 538.94970703125 358 L 536.9996948242188 358 ZM 551.2440185546875 354.5 C 551.2440185546875 355.6933288574219 550.79736328125 356.61334228515625 549.904052734375 357.260009765625 C 549.0173950195312 357.90667724609375 547.7673950195312 358.2300109863281 546.154052734375 358.2300109863281 C 544.4540405273438 358.2300109863281 543.1273803710938 357.9633483886719 542.174072265625 357.42999267578125 L 542.174072265625 355.6199951171875 C 542.787353515625 355.9333190917969 543.4473876953125 356.17999267578125 544.154052734375 356.3599853515625 C 544.8607177734375 356.5400085449219 545.5440673828125 356.6300048828125 546.2040405273438 356.6300048828125 C 547.2173461914062 356.6300048828125 547.9973754882812 356.4666748046875 548.5440673828125 356.1400146484375 C 549.0906982421875 355.82000732421875 549.364013671875 355.32666015625 549.364013671875 354.6600036621094 C 549.364013671875 354.1600036621094 549.1473999023438 353.73333740234375 548.7140502929688 353.3800048828125 C 548.2807006835938 353.0199890136719 547.4373779296875 352.6000061035156 546.1840209960938 352.1199951171875 C 544.9840698242188 351.67333984375 544.134033203125 351.2833251953125 543.634033203125 350.95001220703125 C 543.1273803710938 350.6166687011719 542.750732421875 350.239990234375 542.5040283203125 349.82000732421875 C 542.2573852539062 349.3999938964844 542.134033203125 348.89666748046875 542.134033203125 348.30999755859375 C 542.134033203125 347.2633361816406 542.5607299804688 346.4366760253906 543.4140625 345.8299865722656 C 544.2673950195312 345.22332763671875 545.4340209960938 344.9200134277344 546.9140625 344.9200134277344 C 548.3007202148438 344.9200134277344 549.654052734375 345.2033386230469 550.9740600585938 345.7699890136719 L 550.2840576171875 347.3500061035156 C 548.99072265625 346.8166809082031 547.8207397460938 346.54998779296875 546.7740478515625 346.54998779296875 C 545.8540649414062 346.54998779296875 545.1607055664062 346.6933288574219 544.6940307617188 346.9800109863281 C 544.220703125 347.2733459472656 543.9840698242188 347.67333984375 543.9840698242188 348.17999267578125 C 543.9840698242188 348.52667236328125 544.0740356445312 348.82000732421875 544.2540283203125 349.05999755859375 C 544.4273681640625 349.29998779296875 544.710693359375 349.5299987792969 545.1040649414062 349.75 C 545.49072265625 349.9700012207031 546.24072265625 350.28668212890625 547.3540649414062 350.70001220703125 C 548.8740234375 351.2533264160156 549.9006958007812 351.80999755859375 550.4340209960938 352.3699951171875 C 550.9740600585938 352.9366760253906 551.2440185546875 353.64666748046875 551.2440185546875 354.5 Z" transform="matrix(11.464508056640625, 0, 0, 11.464508056640625, -2757.90869140625, -3489.8994140625)" style="fill: rgb(51, 51, 51); white-space: pre; color: rgb(51, 51, 51); stroke: rgb(0, 0, 0); stroke-width: 2; paint-order: stroke; stroke-opacity: 1; fill-opacity: 1;"/><g transform="matrix(5.064630031585693, 0, 0, 5.064630031585693, -1748.9066162109373, -2558.036376953125)"><g transform="matrix(1, 0, 0, 1, 5.684341886080802e-14, 0)">
	
	
	<g>
		<path class="st0" d="M449.9,564l0.1,1l-1.5,0.3l-0.2,2.2h1.8l2.4-0.2l1.2-1.5l-1.3-0.5l-0.7-0.8l-1.1-1.8l-0.5-2.5l-2.1,0.4&#10;&#9;&#9;&#9;l-0.6,0.9v1l1,0.7L449.9,564z M449.9,564" style="fill: rgb(51, 51, 51); opacity: 1;"/>
		<path class="st0" d="M448.2,564.8l0.1-1.4l-1.2-0.5l-1.7,0.4l-1.3,2v1.3h1.5L448.2,564.8z M448.2,564.8" style="fill: rgb(51, 51, 51); opacity: 1;"/>
		<path class="st0" d="M413.4,570.6l-0.4,1h-1.8v0.9h0.4c0,0,0,0.2,0.1,0.5l1.1-0.1l0.7-0.4l0.2-0.9l0.9-0.1l0.3-0.7l-0.8-0.2&#10;&#9;&#9;&#9;L413.4,570.6z M413.4,570.6" style="fill: rgb(51, 51, 51); opacity: 1;"/>
		<path class="st0" d="M408.8,572.2l-0.1,0.9l1.3-0.1l0.1-0.9l-0.8-0.6L408.8,572.2z M408.8,572.2" style="fill: rgb(51, 51, 51); opacity: 1;"/>
		<path class="st0" d="M487.1,601.3c0-2-0.1-4-0.3-6c-0.6-6.5-2.2-12.8-4.5-18.6c-0.2-0.4-0.3-0.9-0.5-1.3&#10;&#9;&#9;&#9;c-3.1-7.4-7.5-14.1-12.8-19.8c-0.3-0.4-0.7-0.7-1.1-1.1c-1-1-2-2.1-3.1-3.1c-12.2-11.1-28.3-17.9-46.1-17.9&#10;&#9;&#9;&#9;c-17.9,0-34.2,6.9-46.4,18.1c-2.8,2.6-5.5,5.5-7.8,8.5c-9,11.6-14.3,26.1-14.3,41.8c0,37.8,30.7,68.5,68.5,68.5&#10;&#9;&#9;&#9;c26.6,0,49.6-15.2,61-37.4c2.4-4.7,4.3-9.8,5.6-15.1c0.3-1.3,0.6-2.7,0.9-4.1c0.7-3.9,1.1-7.9,1.1-12&#10;&#9;&#9;&#9;C487.1,601.7,487.1,601.5,487.1,601.3L487.1,601.3z M474.2,573.9l0.4-0.5c0.5,1,1,2,1.5,3.1l-0.6,0l-1.2,0.2V573.9z M464.3,562&#10;&#9;&#9;&#9;l0-3.1c1.1,1.1,2.1,2.3,3.1,3.5l-1.2,1.8l-4.3,0l-0.3-0.9L464.3,562z M381.7,554.4v-0.1h1.4l0.1-0.5h2.3v1l-0.6,0.9h-3.1V554.4z&#10;&#9;&#9;&#9; M383.9,557.4c0,0,1.4-0.2,1.5-0.2c0.1,0,0,1.4,0,1.4l-3.1,0.2l-0.6-0.7L383.9,557.4z M478.6,584.6h-5l-3.1-2.3l-3.2,0.3v2h-1&#10;&#9;&#9;&#9;l-1.1-0.8l-5.6-1.4v-3.6l-7.1,0.6l-2.2,1.2h-2.8l-1.4-0.2l-3.4,1.9v3.5l-6.9,5l0.6,2.1h1.4l-0.4,2l-1,0.4l-0.1,5.3l6,6.8h2.6&#10;&#9;&#9;&#9;l0.2-0.4h4.7l1.3-1.2h2.7l1.5,1.5l4,0.4l-0.5,5.3l4.4,7.8l-2.3,4.4l0.2,2.1l1.8,1.8v5l2.4,3.2v4.2h2.1&#10;&#9;&#9;&#9;c-11.5,14.2-29.1,23.2-48.7,23.2c-34.7,0-62.8-28.2-62.8-62.9c0-8.7,1.8-17,5-24.6v-2l2.3-2.7c0.8-1.5,1.6-2.9,2.5-4.3l0.1,1.1&#10;&#9;&#9;&#9;l-2.6,3.2c-0.8,1.5-1.6,3.1-2.2,4.7v3.6l2.6,1.3v5l2.5,4.3l2,0.3l0.3-1.5l-2.4-3.7l-0.5-3.6h1.4l0.6,3.7l3.5,5.1l-0.9,1.6l2.2,3.4&#10;&#9;&#9;&#9;l5.5,1.3v-0.9l2.2,0.3l-0.2,1.6l1.7,0.3l2.7,0.7l3.8,4.3l4.8,0.4l0.5,3.9l-3.3,2.3l-0.2,3.5l-0.5,2.1l4.8,6l0.4,2&#10;&#9;&#9;&#9;c0,0,1.7,0.5,1.9,0.5c0.2,0,3.9,2.8,3.9,2.8v10.8l1.3,0.4l-0.9,5l2.2,2.9l-0.4,4.9l2.9,5.1l3.7,3.2l3.7,0.1l0.4-1.2l-2.7-2.3&#10;&#9;&#9;&#9;l0.2-1.1l0.5-1.4l0.1-1.4l-1.9-0.1l-0.9-1.2l1.5-1.5l0.2-1.1l-1.7-0.5l0.1-1l2.5-0.4l3.7-1.8l1.3-2.3l3.9-5l-0.9-3.9l1.2-2.1&#10;&#9;&#9;&#9;l3.6,0.1l2.4-1.9l0.8-7.6l2.7-3.4l0.5-2.2l-2.5-0.8l-1.6-2.7l-5.5-0.1l-4.4-1.7l-0.2-3.1l-1.5-2.6l-4-0.1l-2.3-3.6l-2-1l-0.1,1.1&#10;&#9;&#9;&#9;l-3.7,0.2l-1.4-1.9l-3.9-0.8l-3.2,3.7l-5-0.8l-0.4-5.7l-3.7-0.6l1.5-2.8l-0.4-1.6l-4.8,3.2l-3-0.4l-1.1-2.4l0.6-2.4l1.7-3.1&#10;&#9;&#9;&#9;l3.8-1.9h7.4l0,2.3l2.7,1.2l-0.2-3.9l1.9-1.9l3.9-2.5l0.3-1.8l3.9-4l4.1-2.3l-0.4-0.3l2.8-2.6l1,0.3l0.5,0.6l1.1-1.2l0.3-0.1&#10;&#9;&#9;&#9;l-1.2-0.2l-1.2-0.4v-1.1l0.6-0.5h1.4l0.6,0.3l0.5,1.1l0.7-0.1v-0.1l0.2,0.1l1.9-0.3l0.3-1l1.1,0.3v1l-1,0.7l0.2,1.1l3.5,1.1l0,0&#10;&#9;&#9;&#9;l0.8-0.1l0.1-1.5l-2.8-1.2l-0.2-0.7l2.3-0.8l0.1-2.2l-2.4-1.5l-0.2-3.7l-3.3,1.6H413l0.3-2.8l-4.5-1.1l-1.9,1.4v4.3l-3.3,1&#10;&#9;&#9;&#9;l-1.3,2.8l-1.5,0.2v-3.6l-3.1-0.4l-1.6-1l-0.6-2.3l5.6-3.3l2.8-0.8l0.3,1.8l1.5-0.1l0.1-0.9l1.6-0.2l0-0.3l-0.7-0.3l-0.2-1l2-0.2&#10;&#9;&#9;&#9;l1.2-1.2l0.1-0.1h0l0.4-0.4l4.1-0.5l1.8,1.6l-4.8,2.5l6.1,1.4l0.8-2h2.7l0.9-1.8l-1.9-0.5V551l-5.9-2.6l-4.1,0.5l-2.3,1.2l0.2,2.9&#10;&#9;&#9;&#9;l-2.4-0.4l-0.4-1.6l2.3-2.1l-4.2-0.2l-1.2,0.4l-0.5,1.4l1.6,0.3l-0.3,1.6l-2.7,0.2l-0.4,1l-3.9,0.1c0,0-0.1-2.2-0.3-2.2&#10;&#9;&#9;&#9;c-0.2,0,3-0.1,3-0.1l2.3-2.3l-1.3-0.6l-1.7,1.6l-2.8-0.2l-1.7-2.3h-3.5l-3.7,2.8h3.4l0.3,1l-0.9,0.8l3.8,0.1l0.6,1.4l-4.2-0.2&#10;&#9;&#9;&#9;l-0.2-1l-2.7-0.6l-1.4-0.8l-3.2,0c10.4-7.6,23.1-12,36.9-12c15.9,0,30.4,5.9,41.5,15.7l-0.7,1.3l-2.9,1.1l-1.2,1.3l0.3,1.6&#10;&#9;&#9;&#9;l1.5,0.2l0.9,2.3l2.6-1l0.4,3h-0.8l-2.1-0.3l-2.4,0.4l-2.3,3.2l-3.3,0.5l-0.5,2.8l1.4,0.3l-0.4,1.8l-3.2-0.6l-3,0.6l-0.6,1.6&#10;&#9;&#9;&#9;l0.5,3.5l1.7,0.8l2.9,0l2-0.2l0.6-1.6l3.1-4l2,0.4l2-1.8l0.4,1.4l4.9,3.3l-0.6,0.8l-2.2-0.1l0.9,1.2l1.4,0.3l1.6-0.7l0-1.9&#10;&#9;&#9;&#9;l0.7-0.4l-0.6-0.6l-3.3-1.8l-0.9-2.4h2.7l0.9,0.9l2.4,2l0.1,2.4l2.4,2.6l0.9-3.5l1.7-0.9l0.3,2.9l1.7,1.8l3.3-0.1&#10;&#9;&#9;&#9;c0.6,1.6,1.2,3.3,1.7,5L478.6,584.6z M387.5,564.6l1.6-0.8l1.5,0.4l-0.5,2l-1.6,0.5L387.5,564.6z M396.2,569.3v1.3h-3.8l-1.4-0.4&#10;&#9;&#9;&#9;l0.4-0.9l1.8-0.7h2.5v0.7H396.2z M398,571.1v1.2L397,573l-1.2,0.2v-2.1H398z M396.9,570.6v-1.5l1.3,1.2L396.9,570.6z M397.5,573.6&#10;&#9;&#9;&#9;v1.2l-0.9,0.9h-2l0.3-1.4l0.9-0.1l0.2-0.5L397.5,573.6z M392.5,571.1h2.1l-2.7,3.7l-1.1-0.6l0.2-1.6L392.5,571.1z M401,573.2v1.2&#10;&#9;&#9;&#9;h-2l-0.5-0.8v-1.1h0.2L401,573.2z M399.2,571.5l0.6-0.6l1,0.6l-0.8,0.6L399.2,571.5z M479.6,587.8l0.2-0.2&#10;&#9;&#9;&#9;c0.1,0.3,0.2,0.7,0.2,1.1L479.6,587.8z M479.6,587.8" style="fill: rgb(51, 51, 51); opacity: 1;"/>
		<path class="st0" d="M360.8,575.4v2c0.7-1.6,1.4-3.2,2.3-4.7L360.8,575.4z M360.8,575.4" style="fill: rgb(51, 51, 51); opacity: 1;"/>
	</g>
</g></g><g transform="matrix(1.3397464752197266, 0.5853171348571777, -0.5853171348571777, 1.3397464752197266, 386.5444641113282, -1086.4334716796877)"><g transform="matrix(1, 0, 0, 1, 1.1368683772161603e-13, 0)"><g transform="matrix(1, 0, 0, 1, -68.63700866699213, -13.428979873657227)">
	<g>
		<g>
			<path class="st1" d="M636,765.7c-0.1-0.1-0.3-0.3-0.4-0.4c-1.9-2.3-1.5-5.7,0.8-7.5l27.6-21.7c2.3-1.9,5.7-1.5,7.6,0.8&#10;&#9;&#9;&#9;&#9;c1.9,2.3,1.5,5.7-0.8,7.6l-27.7,21.7C641,767.8,637.9,767.6,636,765.7z" style="fill: rgb(51, 51, 51); opacity: 1;"/>
		</g>
		<path class="st1" d="M722,762.5l-7.7-7.7l-45.1,64.7c-8.8,8.4-22.8,8.3-31.4-0.3l-23.6-23.6c-8.7-8.7-8.8-22.7-0.3-31.5l63-46.8&#10;&#9;&#9;&#9;l-7.7-7.7l-62,46.1c-0.2,0.2-0.4,0.3-0.6,0.5c-12.9,12.9-12.9,34,0,46.9l23.6,23.6c12.9,12.9,34,12.9,46.9,0&#10;&#9;&#9;&#9;c0.2-0.2,0.4-0.5,0.6-0.7L722,762.5z" style="fill: rgb(51, 51, 51); opacity: 1;"/>
		<g>
			<path class="st1" d="M736.5,682.8c-4,4-10.5,4-14.6,0c-4-4-4-10.5,0-14.6c4-4,10.5-4,14.6,0C740.5,672.2,740.5,678.8,736.5,682.8&#10;&#9;&#9;&#9;&#9;z" style="fill: rgb(51, 51, 51); opacity: 1;"/>
		</g>
		<g>
			<path class="st1" d="M766.4,712.7c-4.3,4.3-11.3,4.3-15.7,0c-4.3-4.3-4.3-11.3,0-15.7c4.3-4.3,11.3-4.3,15.7,0&#10;&#9;&#9;&#9;&#9;C770.7,701.4,770.7,708.4,766.4,712.7z" style="fill: rgb(51, 51, 51); opacity: 1;"/>
		</g>
		<g>
			<path class="st1" d="M727.1,721.3c-4.6,4.6-12,4.6-16.5,0c-4.6-4.6-4.6-12,0-16.5c4.6-4.6,12-4.6,16.5,0&#10;&#9;&#9;&#9;&#9;C731.7,709.3,731.7,716.7,727.1,721.3z" style="fill: rgb(51, 51, 51); opacity: 1;"/>
		</g>
		<g>
			<path class="st1" d="M760.1,754.2c-4.6,4.6-12,4.6-16.5,0c-4.6-4.6-4.6-12,0-16.5c4.6-4.6,12-4.6,16.5,0&#10;&#9;&#9;&#9;&#9;C764.6,742.2,764.6,749.6,760.1,754.2z" style="fill: rgb(51, 51, 51); opacity: 1;"/>
		</g>
		<g>
			<path class="st1" d="M695.3,689.5c-4.6,4.6-12,4.6-16.5,0c-4.6-4.6-4.6-12,0-16.5c4.6-4.6,12-4.6,16.5,0&#10;&#9;&#9;&#9;&#9;C699.9,677.5,699.9,684.9,695.3,689.5z" style="fill: rgb(51, 51, 51); opacity: 1;"/>
		</g>
		<path class="st1" d="M773.5,659.9c-39.6-39.6-104.1-39.6-143.7,0c-2,2-3.8,4-5.6,6.1c-1.8,2.1-1.7,5.3,0.3,7.3l3.9,3.9l12,12&#10;&#9;&#9;&#9;l0.3,0.3l14,14l72.7,72.7l18,18l1,1l13.6,13.6c2,2,5.1,2.1,7.3,0.3c2.1-1.8,4.1-3.6,6.1-5.6C813,764,813.1,699.5,773.5,659.9z&#10;&#9;&#9;&#9; M764.1,797.7l-10-10l-1.8-1.8L649.1,682.8l-1.1-1.1l-12.3-12.3c0.6-0.6,1.1-1.2,1.7-1.8c35.4-35.4,93.1-35.4,128.5,0&#10;&#9;&#9;&#9;c35.4,35.4,35.4,93.1,0,128.5C765.3,796.6,764.7,797.2,764.1,797.7z" style="fill: rgb(51, 51, 51); opacity: 1;"/>
	</g>
</g></g></g><g transform="matrix(1.089945673909056, 0.00016740040586670066, -0.00016740040586670066, 1.089945673909056, -57.67425840287069, -663.4822545266691)"><g transform="matrix(1, 0, 0, 1, 1.1368683772161603e-13, 0)"><g transform="matrix(1, 0, 0, 1, -68.63700866699213, -13.428979873657227)">
	<g>
		<g>
			<path class="st1" d="M636,765.7c-0.1-0.1-0.3-0.3-0.4-0.4c-1.9-2.3-1.5-5.7,0.8-7.5l27.6-21.7c2.3-1.9,5.7-1.5,7.6,0.8&#10;&#9;&#9;&#9;&#9;c1.9,2.3,1.5,5.7-0.8,7.6l-27.7,21.7C641,767.8,637.9,767.6,636,765.7z" style="fill: rgb(51, 51, 51); opacity: 1;"/>
		</g>
		<path class="st1" d="M722,762.5l-7.7-7.7l-45.1,64.7c-8.8,8.4-22.8,8.3-31.4-0.3l-23.6-23.6c-8.7-8.7-8.8-22.7-0.3-31.5l63-46.8&#10;&#9;&#9;&#9;l-7.7-7.7l-62,46.1c-0.2,0.2-0.4,0.3-0.6,0.5c-12.9,12.9-12.9,34,0,46.9l23.6,23.6c12.9,12.9,34,12.9,46.9,0&#10;&#9;&#9;&#9;c0.2-0.2,0.4-0.5,0.6-0.7L722,762.5z" style="fill: rgb(51, 51, 51); opacity: 1;"/>
		<g>
			<path class="st1" d="M736.5,682.8c-4,4-10.5,4-14.6,0c-4-4-4-10.5,0-14.6c4-4,10.5-4,14.6,0C740.5,672.2,740.5,678.8,736.5,682.8&#10;&#9;&#9;&#9;&#9;z" style="fill: rgb(51, 51, 51); opacity: 1;"/>
		</g>
		<g>
			<path class="st1" d="M766.4,712.7c-4.3,4.3-11.3,4.3-15.7,0c-4.3-4.3-4.3-11.3,0-15.7c4.3-4.3,11.3-4.3,15.7,0&#10;&#9;&#9;&#9;&#9;C770.7,701.4,770.7,708.4,766.4,712.7z" style="fill: rgb(51, 51, 51); opacity: 1;"/>
		</g>
		<g>
			<path class="st1" d="M727.1,721.3c-4.6,4.6-12,4.6-16.5,0c-4.6-4.6-4.6-12,0-16.5c4.6-4.6,12-4.6,16.5,0&#10;&#9;&#9;&#9;&#9;C731.7,709.3,731.7,716.7,727.1,721.3z" style="fill: rgb(51, 51, 51); opacity: 1;"/>
		</g>
		<g>
			<path class="st1" d="M760.1,754.2c-4.6,4.6-12,4.6-16.5,0c-4.6-4.6-4.6-12,0-16.5c4.6-4.6,12-4.6,16.5,0&#10;&#9;&#9;&#9;&#9;C764.6,742.2,764.6,749.6,760.1,754.2z" style="fill: rgb(51, 51, 51); opacity: 1;"/>
		</g>
		<g>
			<path class="st1" d="M695.3,689.5c-4.6,4.6-12,4.6-16.5,0c-4.6-4.6-4.6-12,0-16.5c4.6-4.6,12-4.6,16.5,0&#10;&#9;&#9;&#9;&#9;C699.9,677.5,699.9,684.9,695.3,689.5z" style="fill: rgb(51, 51, 51); opacity: 1;"/>
		</g>
		<path class="st1" d="M773.5,659.9c-39.6-39.6-104.1-39.6-143.7,0c-2,2-3.8,4-5.6,6.1c-1.8,2.1-1.7,5.3,0.3,7.3l3.9,3.9l12,12&#10;&#9;&#9;&#9;l0.3,0.3l14,14l72.7,72.7l18,18l1,1l13.6,13.6c2,2,5.1,2.1,7.3,0.3c2.1-1.8,4.1-3.6,6.1-5.6C813,764,813.1,699.5,773.5,659.9z&#10;&#9;&#9;&#9; M764.1,797.7l-10-10l-1.8-1.8L649.1,682.8l-1.1-1.1l-12.3-12.3c0.6-0.6,1.1-1.2,1.7-1.8c35.4-35.4,93.1-35.4,128.5,0&#10;&#9;&#9;&#9;c35.4,35.4,35.4,93.1,0,128.5C765.3,796.6,764.7,797.2,764.1,797.7z" style="fill: rgb(51, 51, 51); opacity: 1;"/>
	</g>
</g></g></g><g transform="matrix(0.7506311535835267, -0.37596735358238226, 0.37596735358238226, 0.7506311535835267, -292.781400948762, -219.21707153320278)"><g transform="matrix(1, 0, 0, 1, 1.1368683772161603e-13, 0)"><g transform="matrix(1, 0, 0, 1, -68.63700866699213, -13.428979873657227)">
	<g>
		<g>
			<path class="st1" d="M636,765.7c-0.1-0.1-0.3-0.3-0.4-0.4c-1.9-2.3-1.5-5.7,0.8-7.5l27.6-21.7c2.3-1.9,5.7-1.5,7.6,0.8&#10;&#9;&#9;&#9;&#9;c1.9,2.3,1.5,5.7-0.8,7.6l-27.7,21.7C641,767.8,637.9,767.6,636,765.7z" style="fill: rgb(51, 51, 51); opacity: 1;"/>
		</g>
		<path class="st1" d="M722,762.5l-7.7-7.7l-45.1,64.7c-8.8,8.4-22.8,8.3-31.4-0.3l-23.6-23.6c-8.7-8.7-8.8-22.7-0.3-31.5l63-46.8&#10;&#9;&#9;&#9;l-7.7-7.7l-62,46.1c-0.2,0.2-0.4,0.3-0.6,0.5c-12.9,12.9-12.9,34,0,46.9l23.6,23.6c12.9,12.9,34,12.9,46.9,0&#10;&#9;&#9;&#9;c0.2-0.2,0.4-0.5,0.6-0.7L722,762.5z" style="fill: rgb(51, 51, 51); opacity: 1;"/>
		<g>
			<path class="st1" d="M736.5,682.8c-4,4-10.5,4-14.6,0c-4-4-4-10.5,0-14.6c4-4,10.5-4,14.6,0C740.5,672.2,740.5,678.8,736.5,682.8&#10;&#9;&#9;&#9;&#9;z" style="fill: rgb(51, 51, 51); opacity: 1;"/>
		</g>
		<g>
			<path class="st1" d="M766.4,712.7c-4.3,4.3-11.3,4.3-15.7,0c-4.3-4.3-4.3-11.3,0-15.7c4.3-4.3,11.3-4.3,15.7,0&#10;&#9;&#9;&#9;&#9;C770.7,701.4,770.7,708.4,766.4,712.7z" style="fill: rgb(51, 51, 51); opacity: 1;"/>
		</g>
		<g>
			<path class="st1" d="M727.1,721.3c-4.6,4.6-12,4.6-16.5,0c-4.6-4.6-4.6-12,0-16.5c4.6-4.6,12-4.6,16.5,0&#10;&#9;&#9;&#9;&#9;C731.7,709.3,731.7,716.7,727.1,721.3z" style="fill: rgb(51, 51, 51); opacity: 1;"/>
		</g>
		<g>
			<path class="st1" d="M760.1,754.2c-4.6,4.6-12,4.6-16.5,0c-4.6-4.6-4.6-12,0-16.5c4.6-4.6,12-4.6,16.5,0&#10;&#9;&#9;&#9;&#9;C764.6,742.2,764.6,749.6,760.1,754.2z" style="fill: rgb(51, 51, 51); opacity: 1;"/>
		</g>
		<g>
			<path class="st1" d="M695.3,689.5c-4.6,4.6-12,4.6-16.5,0c-4.6-4.6-4.6-12,0-16.5c4.6-4.6,12-4.6,16.5,0&#10;&#9;&#9;&#9;&#9;C699.9,677.5,699.9,684.9,695.3,689.5z" style="fill: rgb(51, 51, 51); opacity: 1;"/>
		</g>
		<path class="st1" d="M773.5,659.9c-39.6-39.6-104.1-39.6-143.7,0c-2,2-3.8,4-5.6,6.1c-1.8,2.1-1.7,5.3,0.3,7.3l3.9,3.9l12,12&#10;&#9;&#9;&#9;l0.3,0.3l14,14l72.7,72.7l18,18l1,1l13.6,13.6c2,2,5.1,2.1,7.3,0.3c2.1-1.8,4.1-3.6,6.1-5.6C813,764,813.1,699.5,773.5,659.9z&#10;&#9;&#9;&#9; M764.1,797.7l-10-10l-1.8-1.8L649.1,682.8l-1.1-1.1l-12.3-12.3c0.6-0.6,1.1-1.2,1.7-1.8c35.4-35.4,93.1-35.4,128.5,0&#10;&#9;&#9;&#9;c35.4,35.4,35.4,93.1,0,128.5C765.3,796.6,764.7,797.2,764.1,797.7z" style="fill: rgb(51, 51, 51); opacity: 1;"/>
	</g>
</g></g></g></svg>