<svg xmlns="http://www.w3.org/2000/svg" id="master-artboard" viewBox="0 0 476.46722412109375 443.2333068847656" version="1.1" x="0px" y="0px" style="enable-background:new 0 0 336 235.2;" width="476.46722412109375px" height="443.2333068847656px"><rect id="ee-background" x="0" y="0" width="476.46722412109375" height="443.2333068847656" style="fill: white; fill-opacity: 0; pointer-events: none;"></rect><g transform="matrix(1.952900409698486, 0, 0, 1.952900409698486, -584.0398419779234, -953.7985611448835)"><g transform="matrix(1, 0, 0, 1, 5.684341886080802e-14, 0)"><g><path class="st0" d="M449.9,564l0.1,1l-1.5,0.3l-0.2,2.2h1.8l2.4-0.2l1.2-1.5l-1.3-0.5l-0.7-0.8l-1.1-1.8l-0.5-2.5l-2.1,0.4&#10;&#9;&#9;&#9;l-0.6,0.9v1l1,0.7L449.9,564z M449.9,564" style="fill: rgb(1, 74, 110); opacity: 1; stroke: rgb(1, 74, 110);"></path><path class="st0" d="M448.2,564.8l0.1-1.4l-1.2-0.5l-1.7,0.4l-1.3,2v1.3h1.5L448.2,564.8z M448.2,564.8" style="fill: rgb(1, 74, 110); opacity: 1; stroke: rgb(1, 74, 110);"></path><path class="st0" d="M413.4,570.6l-0.4,1h-1.8v0.9h0.4c0,0,0,0.2,0.1,0.5l1.1-0.1l0.7-0.4l0.2-0.9l0.9-0.1l0.3-0.7l-0.8-0.2&#10;&#9;&#9;&#9;L413.4,570.6z M413.4,570.6" style="fill: rgb(1, 74, 110); opacity: 1; stroke: rgb(1, 74, 110);"></path><path class="st0" d="M408.8,572.2l-0.1,0.9l1.3-0.1l0.1-0.9l-0.8-0.6L408.8,572.2z M408.8,572.2" style="fill: rgb(1, 74, 110); opacity: 1; stroke: rgb(1, 74, 110);"></path><path class="st0" d="M487.1,601.3c0-2-0.1-4-0.3-6c-0.6-6.5-2.2-12.8-4.5-18.6c-0.2-0.4-0.3-0.9-0.5-1.3&#10;&#9;&#9;&#9;c-3.1-7.4-7.5-14.1-12.8-19.8c-0.3-0.4-0.7-0.7-1.1-1.1c-1-1-2-2.1-3.1-3.1c-12.2-11.1-28.3-17.9-46.1-17.9&#10;&#9;&#9;&#9;c-17.9,0-34.2,6.9-46.4,18.1c-2.8,2.6-5.5,5.5-7.8,8.5c-9,11.6-14.3,26.1-14.3,41.8c0,37.8,30.7,68.5,68.5,68.5&#10;&#9;&#9;&#9;c26.6,0,49.6-15.2,61-37.4c2.4-4.7,4.3-9.8,5.6-15.1c0.3-1.3,0.6-2.7,0.9-4.1c0.7-3.9,1.1-7.9,1.1-12&#10;&#9;&#9;&#9;C487.1,601.7,487.1,601.5,487.1,601.3L487.1,601.3z M474.2,573.9l0.4-0.5c0.5,1,1,2,1.5,3.1l-0.6,0l-1.2,0.2V573.9z M464.3,562&#10;&#9;&#9;&#9;l0-3.1c1.1,1.1,2.1,2.3,3.1,3.5l-1.2,1.8l-4.3,0l-0.3-0.9L464.3,562z M381.7,554.4v-0.1h1.4l0.1-0.5h2.3v1l-0.6,0.9h-3.1V554.4z&#10;&#9;&#9;&#9; M383.9,557.4c0,0,1.4-0.2,1.5-0.2c0.1,0,0,1.4,0,1.4l-3.1,0.2l-0.6-0.7L383.9,557.4z M478.6,584.6h-5l-3.1-2.3l-3.2,0.3v2h-1&#10;&#9;&#9;&#9;l-1.1-0.8l-5.6-1.4v-3.6l-7.1,0.6l-2.2,1.2h-2.8l-1.4-0.2l-3.4,1.9v3.5l-6.9,5l0.6,2.1h1.4l-0.4,2l-1,0.4l-0.1,5.3l6,6.8h2.6&#10;&#9;&#9;&#9;l0.2-0.4h4.7l1.3-1.2h2.7l1.5,1.5l4,0.4l-0.5,5.3l4.4,7.8l-2.3,4.4l0.2,2.1l1.8,1.8v5l2.4,3.2v4.2h2.1&#10;&#9;&#9;&#9;c-11.5,14.2-29.1,23.2-48.7,23.2c-34.7,0-62.8-28.2-62.8-62.9c0-8.7,1.8-17,5-24.6v-2l2.3-2.7c0.8-1.5,1.6-2.9,2.5-4.3l0.1,1.1&#10;&#9;&#9;&#9;l-2.6,3.2c-0.8,1.5-1.6,3.1-2.2,4.7v3.6l2.6,1.3v5l2.5,4.3l2,0.3l0.3-1.5l-2.4-3.7l-0.5-3.6h1.4l0.6,3.7l3.5,5.1l-0.9,1.6l2.2,3.4&#10;&#9;&#9;&#9;l5.5,1.3v-0.9l2.2,0.3l-0.2,1.6l1.7,0.3l2.7,0.7l3.8,4.3l4.8,0.4l0.5,3.9l-3.3,2.3l-0.2,3.5l-0.5,2.1l4.8,6l0.4,2&#10;&#9;&#9;&#9;c0,0,1.7,0.5,1.9,0.5c0.2,0,3.9,2.8,3.9,2.8v10.8l1.3,0.4l-0.9,5l2.2,2.9l-0.4,4.9l2.9,5.1l3.7,3.2l3.7,0.1l0.4-1.2l-2.7-2.3&#10;&#9;&#9;&#9;l0.2-1.1l0.5-1.4l0.1-1.4l-1.9-0.1l-0.9-1.2l1.5-1.5l0.2-1.1l-1.7-0.5l0.1-1l2.5-0.4l3.7-1.8l1.3-2.3l3.9-5l-0.9-3.9l1.2-2.1&#10;&#9;&#9;&#9;l3.6,0.1l2.4-1.9l0.8-7.6l2.7-3.4l0.5-2.2l-2.5-0.8l-1.6-2.7l-5.5-0.1l-4.4-1.7l-0.2-3.1l-1.5-2.6l-4-0.1l-2.3-3.6l-2-1l-0.1,1.1&#10;&#9;&#9;&#9;l-3.7,0.2l-1.4-1.9l-3.9-0.8l-3.2,3.7l-5-0.8l-0.4-5.7l-3.7-0.6l1.5-2.8l-0.4-1.6l-4.8,3.2l-3-0.4l-1.1-2.4l0.6-2.4l1.7-3.1&#10;&#9;&#9;&#9;l3.8-1.9h7.4l0,2.3l2.7,1.2l-0.2-3.9l1.9-1.9l3.9-2.5l0.3-1.8l3.9-4l4.1-2.3l-0.4-0.3l2.8-2.6l1,0.3l0.5,0.6l1.1-1.2l0.3-0.1&#10;&#9;&#9;&#9;l-1.2-0.2l-1.2-0.4v-1.1l0.6-0.5h1.4l0.6,0.3l0.5,1.1l0.7-0.1v-0.1l0.2,0.1l1.9-0.3l0.3-1l1.1,0.3v1l-1,0.7l0.2,1.1l3.5,1.1l0,0&#10;&#9;&#9;&#9;l0.8-0.1l0.1-1.5l-2.8-1.2l-0.2-0.7l2.3-0.8l0.1-2.2l-2.4-1.5l-0.2-3.7l-3.3,1.6H413l0.3-2.8l-4.5-1.1l-1.9,1.4v4.3l-3.3,1&#10;&#9;&#9;&#9;l-1.3,2.8l-1.5,0.2v-3.6l-3.1-0.4l-1.6-1l-0.6-2.3l5.6-3.3l2.8-0.8l0.3,1.8l1.5-0.1l0.1-0.9l1.6-0.2l0-0.3l-0.7-0.3l-0.2-1l2-0.2&#10;&#9;&#9;&#9;l1.2-1.2l0.1-0.1h0l0.4-0.4l4.1-0.5l1.8,1.6l-4.8,2.5l6.1,1.4l0.8-2h2.7l0.9-1.8l-1.9-0.5V551l-5.9-2.6l-4.1,0.5l-2.3,1.2l0.2,2.9&#10;&#9;&#9;&#9;l-2.4-0.4l-0.4-1.6l2.3-2.1l-4.2-0.2l-1.2,0.4l-0.5,1.4l1.6,0.3l-0.3,1.6l-2.7,0.2l-0.4,1l-3.9,0.1c0,0-0.1-2.2-0.3-2.2&#10;&#9;&#9;&#9;c-0.2,0,3-0.1,3-0.1l2.3-2.3l-1.3-0.6l-1.7,1.6l-2.8-0.2l-1.7-2.3h-3.5l-3.7,2.8h3.4l0.3,1l-0.9,0.8l3.8,0.1l0.6,1.4l-4.2-0.2&#10;&#9;&#9;&#9;l-0.2-1l-2.7-0.6l-1.4-0.8l-3.2,0c10.4-7.6,23.1-12,36.9-12c15.9,0,30.4,5.9,41.5,15.7l-0.7,1.3l-2.9,1.1l-1.2,1.3l0.3,1.6&#10;&#9;&#9;&#9;l1.5,0.2l0.9,2.3l2.6-1l0.4,3h-0.8l-2.1-0.3l-2.4,0.4l-2.3,3.2l-3.3,0.5l-0.5,2.8l1.4,0.3l-0.4,1.8l-3.2-0.6l-3,0.6l-0.6,1.6&#10;&#9;&#9;&#9;l0.5,3.5l1.7,0.8l2.9,0l2-0.2l0.6-1.6l3.1-4l2,0.4l2-1.8l0.4,1.4l4.9,3.3l-0.6,0.8l-2.2-0.1l0.9,1.2l1.4,0.3l1.6-0.7l0-1.9&#10;&#9;&#9;&#9;l0.7-0.4l-0.6-0.6l-3.3-1.8l-0.9-2.4h2.7l0.9,0.9l2.4,2l0.1,2.4l2.4,2.6l0.9-3.5l1.7-0.9l0.3,2.9l1.7,1.8l3.3-0.1&#10;&#9;&#9;&#9;c0.6,1.6,1.2,3.3,1.7,5L478.6,584.6z M387.5,564.6l1.6-0.8l1.5,0.4l-0.5,2l-1.6,0.5L387.5,564.6z M396.2,569.3v1.3h-3.8l-1.4-0.4&#10;&#9;&#9;&#9;l0.4-0.9l1.8-0.7h2.5v0.7H396.2z M398,571.1v1.2L397,573l-1.2,0.2v-2.1H398z M396.9,570.6v-1.5l1.3,1.2L396.9,570.6z M397.5,573.6&#10;&#9;&#9;&#9;v1.2l-0.9,0.9h-2l0.3-1.4l0.9-0.1l0.2-0.5L397.5,573.6z M392.5,571.1h2.1l-2.7,3.7l-1.1-0.6l0.2-1.6L392.5,571.1z M401,573.2v1.2&#10;&#9;&#9;&#9;h-2l-0.5-0.8v-1.1h0.2L401,573.2z M399.2,571.5l0.6-0.6l1,0.6l-0.8,0.6L399.2,571.5z M479.6,587.8l0.2-0.2&#10;&#9;&#9;&#9;c0.1,0.3,0.2,0.7,0.2,1.1L479.6,587.8z M479.6,587.8" style="fill: rgb(1, 74, 110); opacity: 1; stroke: rgb(1, 74, 110);"></path><path class="st0" d="M360.8,575.4v2c0.7-1.6,1.4-3.2,2.3-4.7L360.8,575.4z M360.8,575.4" style="fill: rgb(1, 74, 110); opacity: 1; stroke: rgb(1, 74, 110);"></path></g></g></g><g transform="matrix(-0.26268038153648376, 0.23326237499713895, 0.23326237499713895, 0.26268038153648376, 245.78387323203765, -195.53301243882868)"><g transform="matrix(1, 0, 0, 1, 0, 2.842170943040401e-14)"><path d="M 729.7999877929688 345.70001220703125 L 671.9000244140625 345.70001220703125 L 654.9000244140625 393.6000061035156 L 654.9000244140625 415.6000061035156 L 729.7999877929688 380 Z" class="st3" style="fill: rgb(1, 74, 110); opacity: 1; stroke: rgb(1, 74, 110);" transform="matrix(1, 0, 0, 1, 0, 5.684341886080802e-14)"></path><path class="st5" d="M678.8,444.8c7-7.6,17-12.4,28.2-12.4c11.1,0,21.2,4.8,28.2,12.4h11.6V332.9c-8.6-0.9-57-0.2-88.2,0.4&#10;&#9;&#9;l-21.9,63.6v47.9H678.8z M651,393.3c0-0.2,0-0.4,0.1-0.7l17.6-49.5c0.3-0.8,1-1.3,1.8-1.3h61.3c1.1,0,2,0.9,2,2v37.5&#10;&#9;&#9;c0,0.8-0.4,1.4-1.1,1.8l-78.9,37.5c-0.3,0.1-0.6,0.2-0.8,0.2c-0.4,0-0.7-0.1-1-0.3c-0.6-0.4-0.9-1-0.9-1.7V393.3z" style="fill: rgb(1, 74, 110); opacity: 1; stroke: rgb(1, 74, 110);" transform="matrix(1, 0, 0, 1, 0, 5.684341886080802e-14)"></path><path class="st2" d="M675.7,448.7h-39v30l6.3,9.3h29.8c-2.6-5.2-4.1-11-4.1-17.2C668.6,462.6,671.2,454.9,675.7,448.7z" style="fill: rgb(1, 74, 110); opacity: 1; stroke: rgb(1, 74, 110);" transform="matrix(1, 0, 0, 1, 0, 5.684341886080802e-14)"></path><path class="st4" d="M707,453.6c-9.5,0-17.2,7.7-17.2,17.2S697.5,488,707,488s17.2-7.7,17.2-17.2S716.5,453.6,707,453.6z" style="fill: rgb(1, 74, 110); opacity: 1; stroke: rgb(1, 74, 110);" transform="matrix(1, 0, 0, 1, 0, 5.684341886080802e-14)"></path><path class="st4" d="M944,453.6c-9.5,0-17.2,7.7-17.2,17.2S934.5,488,944,488c9.5,0,17.2-7.7,17.2-17.2S953.5,453.6,944,453.6z" style="fill: rgb(1, 74, 110); opacity: 1; stroke: rgb(1, 74, 110);" transform="matrix(1, 0, 0, 1, 0, 5.684341886080802e-14)"></path><path class="st0" d="M944,436.3c-19,0-34.5,15.5-34.5,34.5c0,19,15.5,34.5,34.5,34.5c19,0,34.5-15.5,34.5-34.5&#10;&#9;&#9;C978.6,451.8,963.1,436.3,944,436.3z M944,491.9c-11.6,0-21.1-9.5-21.1-21.1c0-11.6,9.5-21.1,21.1-21.1c11.6,0,21.1,9.5,21.1,21.1&#10;&#9;&#9;C965.1,482.5,955.7,491.9,944,491.9z" style="fill: rgb(1, 74, 110); opacity: 1; stroke: rgb(1, 74, 110);" transform="matrix(1, 0, 0, 1, 0, 5.684341886080802e-14)"></path><path class="st2" d="M912.4,449c-0.7,0-1.5,0-2.4,0c-2.6,0-6.1-0.1-10.8-0.2c3.5,5.1,5.9,11,6.7,17.4&#10;&#9;&#9;C906.6,459.9,908.9,454,912.4,449z" style="fill: rgb(1, 74, 110); opacity: 1; stroke: rgb(1, 74, 110);" transform="matrix(1, 0, 0, 1, 0, 5.684341886080802e-14)"></path><path class="st4" d="M750.7,414.7v30.1h88.8c7-7.6,17-12.4,28.2-12.4c11.2,0,21.2,4.8,28.2,12.4c8.5,0.3,17.7,0.5,19.7,0.2&#10;&#9;&#9;c7-7.7,17.1-12.6,28.4-12.6c11.1,0,21.2,4.8,28.2,12.4h15.9c-0.6-18.4-0.5-26.4-0.3-30.1H750.7z" style="fill: rgb(1, 74, 110); opacity: 1; stroke: rgb(1, 74, 110);" transform="matrix(1, 0, 0, 1, 0, 5.684341886080802e-14)"></path><path class="st2" d="M975.4,448.7c2.7,3.9,4.8,8.3,5.9,13h15.1v-13H975.4z" style="fill: rgb(1, 74, 110); opacity: 1; stroke: rgb(1, 74, 110);" transform="matrix(1, 0, 0, 1, 0, 5.684341886080802e-14)"></path><path class="st2" d="M738.4,448.7c4.4,6.3,7.1,13.9,7.1,22.2c0,4.9-1,9.6-2.6,13.9h35.5l52-22.8c1.2-4.8,3.2-9.3,6-13.2H738.4z" style="fill: rgb(1, 74, 110); opacity: 1; stroke: rgb(1, 74, 110);" transform="matrix(1, 0, 0, 1, 0, 5.684341886080802e-14)"></path><path class="st0" d="M867.7,436.3c-19,0-34.5,15.5-34.5,34.5c0,19,15.5,34.5,34.5,34.5c19,0,34.5-15.5,34.5-34.5&#10;&#9;&#9;C902.3,451.8,886.8,436.3,867.7,436.3z M867.7,491.9c-11.6,0-21.1-9.5-21.1-21.1c0-11.6,9.5-21.1,21.1-21.1&#10;&#9;&#9;c11.6,0,21.1,9.5,21.1,21.1C888.8,482.5,879.3,491.9,867.7,491.9z" style="fill: rgb(1, 74, 110); opacity: 1; stroke: rgb(1, 74, 110);" transform="matrix(1, 0, 0, 1, 0, 5.684341886080802e-14)"></path><path class="st0" d="M707,436.3c-19,0-34.5,15.5-34.5,34.5c0,19,15.5,34.5,34.5,34.5s34.5-15.5,34.5-34.5&#10;&#9;&#9;C741.6,451.8,726.1,436.3,707,436.3z M707,491.9c-11.6,0-21.1-9.5-21.1-21.1c0-11.6,9.5-21.1,21.1-21.1c11.6,0,21.1,9.5,21.1,21.1&#10;&#9;&#9;C728.1,482.5,718.7,491.9,707,491.9z" style="fill: rgb(1, 74, 110); opacity: 1; stroke: rgb(1, 74, 110);" transform="matrix(1, 0, 0, 1, 0, 5.684341886080802e-14)"></path><path class="st4" d="M867.7,453.6c-9.5,0-17.2,7.7-17.2,17.2s7.7,17.2,17.2,17.2s17.2-7.7,17.2-17.2S877.2,453.6,867.7,453.6z" style="fill: rgb(1, 74, 110); opacity: 1; stroke: rgb(1, 74, 110);" transform="matrix(1, 0, 0, 1, 0, 5.684341886080802e-14)"></path><path d="M 750.700012 401 H 996.400009 V 410.8 H 750.700012 V 401 Z" class="st1" style="fill: rgb(1, 74, 110); opacity: 1; stroke: rgb(1, 74, 110);" transform="matrix(1, 0, 0, 1, 0, 5.684341886080802e-14)"></path></g></g><g transform="matrix(-0.05233139172196388, -0.17868095636367798, 0.17868095636367798, -0.05233139172196388, -17.232192365496303, 276.30204005140547)"><g transform="matrix(1, 0, 0, 1, 1.1368683772161603e-13, 0)"><g transform="matrix(1, 0, 0, 1, -68.63700866699213, -13.428979873657227)"><g><g><path class="st1" d="M636,765.7c-0.1-0.1-0.3-0.3-0.4-0.4c-1.9-2.3-1.5-5.7,0.8-7.5l27.6-21.7c2.3-1.9,5.7-1.5,7.6,0.8&#10;&#9;&#9;&#9;&#9;c1.9,2.3,1.5,5.7-0.8,7.6l-27.7,21.7C641,767.8,637.9,767.6,636,765.7z" style="fill: rgb(1, 74, 110); opacity: 1; stroke: rgb(1, 74, 110);"></path></g><path class="st1" d="M722,762.5l-7.7-7.7l-45.1,64.7c-8.8,8.4-22.8,8.3-31.4-0.3l-23.6-23.6c-8.7-8.7-8.8-22.7-0.3-31.5l63-46.8&#10;&#9;&#9;&#9;l-7.7-7.7l-62,46.1c-0.2,0.2-0.4,0.3-0.6,0.5c-12.9,12.9-12.9,34,0,46.9l23.6,23.6c12.9,12.9,34,12.9,46.9,0&#10;&#9;&#9;&#9;c0.2-0.2,0.4-0.5,0.6-0.7L722,762.5z" style="fill: rgb(1, 74, 110); opacity: 1; stroke: rgb(1, 74, 110);"></path><g><path class="st1" d="M736.5,682.8c-4,4-10.5,4-14.6,0c-4-4-4-10.5,0-14.6c4-4,10.5-4,14.6,0C740.5,672.2,740.5,678.8,736.5,682.8&#10;&#9;&#9;&#9;&#9;z" style="fill: rgb(1, 74, 110); opacity: 1; stroke: rgb(1, 74, 110);"></path></g><g><path class="st1" d="M766.4,712.7c-4.3,4.3-11.3,4.3-15.7,0c-4.3-4.3-4.3-11.3,0-15.7c4.3-4.3,11.3-4.3,15.7,0&#10;&#9;&#9;&#9;&#9;C770.7,701.4,770.7,708.4,766.4,712.7z" style="fill: rgb(1, 74, 110); opacity: 1; stroke: rgb(1, 74, 110);"></path></g><g><path class="st1" d="M727.1,721.3c-4.6,4.6-12,4.6-16.5,0c-4.6-4.6-4.6-12,0-16.5c4.6-4.6,12-4.6,16.5,0&#10;&#9;&#9;&#9;&#9;C731.7,709.3,731.7,716.7,727.1,721.3z" style="fill: rgb(1, 74, 110); opacity: 1; stroke: rgb(1, 74, 110);"></path></g><g><path class="st1" d="M760.1,754.2c-4.6,4.6-12,4.6-16.5,0c-4.6-4.6-4.6-12,0-16.5c4.6-4.6,12-4.6,16.5,0&#10;&#9;&#9;&#9;&#9;C764.6,742.2,764.6,749.6,760.1,754.2z" style="fill: rgb(1, 74, 110); opacity: 1; stroke: rgb(1, 74, 110);"></path></g><g><path class="st1" d="M695.3,689.5c-4.6,4.6-12,4.6-16.5,0c-4.6-4.6-4.6-12,0-16.5c4.6-4.6,12-4.6,16.5,0&#10;&#9;&#9;&#9;&#9;C699.9,677.5,699.9,684.9,695.3,689.5z" style="fill: rgb(1, 74, 110); opacity: 1; stroke: rgb(1, 74, 110);"></path></g><path class="st1" d="M773.5,659.9c-39.6-39.6-104.1-39.6-143.7,0c-2,2-3.8,4-5.6,6.1c-1.8,2.1-1.7,5.3,0.3,7.3l3.9,3.9l12,12&#10;&#9;&#9;&#9;l0.3,0.3l14,14l72.7,72.7l18,18l1,1l13.6,13.6c2,2,5.1,2.1,7.3,0.3c2.1-1.8,4.1-3.6,6.1-5.6C813,764,813.1,699.5,773.5,659.9z&#10;&#9;&#9;&#9; M764.1,797.7l-10-10l-1.8-1.8L649.1,682.8l-1.1-1.1l-12.3-12.3c0.6-0.6,1.1-1.2,1.7-1.8c35.4-35.4,93.1-35.4,128.5,0&#10;&#9;&#9;&#9;c35.4,35.4,35.4,93.1,0,128.5C765.3,796.6,764.7,797.2,764.1,797.7z" style="fill: rgb(1, 74, 110); opacity: 1; stroke: rgb(1, 74, 110);"></path></g></g></g></g><g transform="matrix(-0.0025144282262772317, -0.15018288791179654, 0.15018288791179654, -0.0025144282262772317, -4.34091123756707, 208.27542872328056)"><g transform="matrix(1, 0, 0, 1, 1.1368683772161603e-13, 0)"><g transform="matrix(1, 0, 0, 1, -68.63700866699213, -13.428979873657227)"><g><g><path class="st1" d="M636,765.7c-0.1-0.1-0.3-0.3-0.4-0.4c-1.9-2.3-1.5-5.7,0.8-7.5l27.6-21.7c2.3-1.9,5.7-1.5,7.6,0.8&#10;&#9;&#9;&#9;&#9;c1.9,2.3,1.5,5.7-0.8,7.6l-27.7,21.7C641,767.8,637.9,767.6,636,765.7z" style="fill: rgb(1, 74, 110); opacity: 1; stroke: rgb(1, 74, 110);"></path></g><path class="st1" d="M722,762.5l-7.7-7.7l-45.1,64.7c-8.8,8.4-22.8,8.3-31.4-0.3l-23.6-23.6c-8.7-8.7-8.8-22.7-0.3-31.5l63-46.8&#10;&#9;&#9;&#9;l-7.7-7.7l-62,46.1c-0.2,0.2-0.4,0.3-0.6,0.5c-12.9,12.9-12.9,34,0,46.9l23.6,23.6c12.9,12.9,34,12.9,46.9,0&#10;&#9;&#9;&#9;c0.2-0.2,0.4-0.5,0.6-0.7L722,762.5z" style="fill: rgb(1, 74, 110); opacity: 1; stroke: rgb(1, 74, 110);"></path><g><path class="st1" d="M736.5,682.8c-4,4-10.5,4-14.6,0c-4-4-4-10.5,0-14.6c4-4,10.5-4,14.6,0C740.5,672.2,740.5,678.8,736.5,682.8&#10;&#9;&#9;&#9;&#9;z" style="fill: rgb(1, 74, 110); opacity: 1; stroke: rgb(1, 74, 110);"></path></g><g><path class="st1" d="M766.4,712.7c-4.3,4.3-11.3,4.3-15.7,0c-4.3-4.3-4.3-11.3,0-15.7c4.3-4.3,11.3-4.3,15.7,0&#10;&#9;&#9;&#9;&#9;C770.7,701.4,770.7,708.4,766.4,712.7z" style="fill: rgb(1, 74, 110); opacity: 1; stroke: rgb(1, 74, 110);"></path></g><g><path class="st1" d="M727.1,721.3c-4.6,4.6-12,4.6-16.5,0c-4.6-4.6-4.6-12,0-16.5c4.6-4.6,12-4.6,16.5,0&#10;&#9;&#9;&#9;&#9;C731.7,709.3,731.7,716.7,727.1,721.3z" style="fill: rgb(1, 74, 110); opacity: 1; stroke: rgb(1, 74, 110);"></path></g><g><path class="st1" d="M760.1,754.2c-4.6,4.6-12,4.6-16.5,0c-4.6-4.6-4.6-12,0-16.5c4.6-4.6,12-4.6,16.5,0&#10;&#9;&#9;&#9;&#9;C764.6,742.2,764.6,749.6,760.1,754.2z" style="fill: rgb(1, 74, 110); opacity: 1; stroke: rgb(1, 74, 110);"></path></g><g><path class="st1" d="M695.3,689.5c-4.6,4.6-12,4.6-16.5,0c-4.6-4.6-4.6-12,0-16.5c4.6-4.6,12-4.6,16.5,0&#10;&#9;&#9;&#9;&#9;C699.9,677.5,699.9,684.9,695.3,689.5z" style="fill: rgb(1, 74, 110); opacity: 1; stroke: rgb(1, 74, 110);"></path></g><path class="st1" d="M773.5,659.9c-39.6-39.6-104.1-39.6-143.7,0c-2,2-3.8,4-5.6,6.1c-1.8,2.1-1.7,5.3,0.3,7.3l3.9,3.9l12,12&#10;&#9;&#9;&#9;l0.3,0.3l14,14l72.7,72.7l18,18l1,1l13.6,13.6c2,2,5.1,2.1,7.3,0.3c2.1-1.8,4.1-3.6,6.1-5.6C813,764,813.1,699.5,773.5,659.9z&#10;&#9;&#9;&#9; M764.1,797.7l-10-10l-1.8-1.8L649.1,682.8l-1.1-1.1l-12.3-12.3c0.6-0.6,1.1-1.2,1.7-1.8c35.4-35.4,93.1-35.4,128.5,0&#10;&#9;&#9;&#9;c35.4,35.4,35.4,93.1,0,128.5C765.3,796.6,764.7,797.2,764.1,797.7z" style="fill: rgb(1, 74, 110); opacity: 1; stroke: rgb(1, 74, 110);"></path></g></g></g></g><g transform="matrix(0.07633744925260542, -0.1433919072151184, 0.1433919072151184, 0.07633744925260542, -23.925248472063913, 127.3184585084368)"><g transform="matrix(1, 0, 0, 1, 1.1368683772161603e-13, 0)"><g transform="matrix(1, 0, 0, 1, -68.63700866699213, -13.428979873657227)"><g><g><path class="st1" d="M636,765.7c-0.1-0.1-0.3-0.3-0.4-0.4c-1.9-2.3-1.5-5.7,0.8-7.5l27.6-21.7c2.3-1.9,5.7-1.5,7.6,0.8&#10;&#9;&#9;&#9;&#9;c1.9,2.3,1.5,5.7-0.8,7.6l-27.7,21.7C641,767.8,637.9,767.6,636,765.7z" style="fill: rgb(1, 74, 110); opacity: 1; stroke: rgb(1, 74, 110);"></path></g><path class="st1" d="M722,762.5l-7.7-7.7l-45.1,64.7c-8.8,8.4-22.8,8.3-31.4-0.3l-23.6-23.6c-8.7-8.7-8.8-22.7-0.3-31.5l63-46.8&#10;&#9;&#9;&#9;l-7.7-7.7l-62,46.1c-0.2,0.2-0.4,0.3-0.6,0.5c-12.9,12.9-12.9,34,0,46.9l23.6,23.6c12.9,12.9,34,12.9,46.9,0&#10;&#9;&#9;&#9;c0.2-0.2,0.4-0.5,0.6-0.7L722,762.5z" style="fill: rgb(1, 74, 110); opacity: 1; stroke: rgb(1, 74, 110);"></path><g><path class="st1" d="M736.5,682.8c-4,4-10.5,4-14.6,0c-4-4-4-10.5,0-14.6c4-4,10.5-4,14.6,0C740.5,672.2,740.5,678.8,736.5,682.8&#10;&#9;&#9;&#9;&#9;z" style="fill: rgb(1, 74, 110); opacity: 1; stroke: rgb(1, 74, 110);"></path></g><g><path class="st1" d="M766.4,712.7c-4.3,4.3-11.3,4.3-15.7,0c-4.3-4.3-4.3-11.3,0-15.7c4.3-4.3,11.3-4.3,15.7,0&#10;&#9;&#9;&#9;&#9;C770.7,701.4,770.7,708.4,766.4,712.7z" style="fill: rgb(1, 74, 110); opacity: 1; stroke: rgb(1, 74, 110);"></path></g><g><path class="st1" d="M727.1,721.3c-4.6,4.6-12,4.6-16.5,0c-4.6-4.6-4.6-12,0-16.5c4.6-4.6,12-4.6,16.5,0&#10;&#9;&#9;&#9;&#9;C731.7,709.3,731.7,716.7,727.1,721.3z" style="fill: rgb(1, 74, 110); opacity: 1; stroke: rgb(1, 74, 110);"></path></g><g><path class="st1" d="M760.1,754.2c-4.6,4.6-12,4.6-16.5,0c-4.6-4.6-4.6-12,0-16.5c4.6-4.6,12-4.6,16.5,0&#10;&#9;&#9;&#9;&#9;C764.6,742.2,764.6,749.6,760.1,754.2z" style="fill: rgb(1, 74, 110); opacity: 1; stroke: rgb(1, 74, 110);"></path></g><g><path class="st1" d="M695.3,689.5c-4.6,4.6-12,4.6-16.5,0c-4.6-4.6-4.6-12,0-16.5c4.6-4.6,12-4.6,16.5,0&#10;&#9;&#9;&#9;&#9;C699.9,677.5,699.9,684.9,695.3,689.5z" style="fill: rgb(1, 74, 110); opacity: 1; stroke: rgb(1, 74, 110);"></path></g><path class="st1" d="M773.5,659.9c-39.6-39.6-104.1-39.6-143.7,0c-2,2-3.8,4-5.6,6.1c-1.8,2.1-1.7,5.3,0.3,7.3l3.9,3.9l12,12&#10;&#9;&#9;&#9;l0.3,0.3l14,14l72.7,72.7l18,18l1,1l13.6,13.6c2,2,5.1,2.1,7.3,0.3c2.1-1.8,4.1-3.6,6.1-5.6C813,764,813.1,699.5,773.5,659.9z&#10;&#9;&#9;&#9; M764.1,797.7l-10-10l-1.8-1.8L649.1,682.8l-1.1-1.1l-12.3-12.3c0.6-0.6,1.1-1.2,1.7-1.8c35.4-35.4,93.1-35.4,128.5,0&#10;&#9;&#9;&#9;c35.4,35.4,35.4,93.1,0,128.5C765.3,796.6,764.7,797.2,764.1,797.7z" style="fill: rgb(1, 74, 110); opacity: 1; stroke: rgb(1, 74, 110);"></path></g></g></g></g><g transform="matrix(-0.18100148439407346, -0.35684147477149963, -0.35684147477149963, 0.18100148439407346, 550.0812517720769, 137.9690627564838)"><g transform="matrix(1, 0, 0, 1, -103.45663452148426, -51.728858947753906)"><path class="st4" d="M444,414.4c4,0,3-11.5,5-12c1-0.2,2.5-0.5,3.9-0.3l-0.9-59.8H246.7l2.1,72.1&#10;&#9;&#9;&#9;C281.5,414.4,440.4,414.4,444,414.4z" style="fill: rgb(1, 74, 110); opacity: 1;" transform="matrix(1, 0, 0, 0.9999999999999999, -26.932788848876925, 11.274645805358887)"></path><path class="st7" d="M449,402.4c-2,0.5-1,12-5,12c-3.6,0-162.5,0-195.2,0l0.4,13.5h200c1,0,1.9,0.2,2.8,0.5&#10;&#9;&#9;&#9;c0.2-3.7,0.6-7.2,0.8-8.5c0.4-2.1,0.9-3.9,2.5-4.8c0.5-5.2,0.9-9.7,0.7-10.8c-0.3-1.6-1.6-2.2-3.1-2.3&#10;&#9;&#9;&#9;C451.5,401.9,450,402.2,449,402.4z" style="fill: rgb(1, 74, 110); opacity: 1;" transform="matrix(1, 0, 0, 0.9999999999999999, -24.932788848876925, 14.274645805358887)"></path><g transform="matrix(1, 0, 0, 0.9999999999999999, -545.3392333984375, 229.711181640625)"><path class="st5" d="M145.5,200.9c1,2.4,1.8,7.3,2.2,12h101.6l-0.4-13.5l-2.3-79.5c0,0-78.5-2.5-81.5,3c-2.2,4-13.8,51.4-20,77.3&#10;&#9;&#9;&#9;C145.2,200.4,145.4,200.6,145.5,200.9z M193,129.9c3,0,44.4-4.6,47.7,0c2.1,3,0,51-2.5,53.5c-2.5,2.5-46.5,2.5-45.6-0.5&#10;&#9;&#9;&#9;S190,129.9,193,129.9z M169,131.9c2-2,13.7-3.4,15.5-1c1.5,2,2,51-1.5,52s-23,1-23.5-0.5S167,133.9,169,131.9z" style="fill: rgb(1, 74, 110); opacity: 1;" transform="matrix(1, 0, 0, 0.9999999999999999, 520.9274902343751, -0.49295341968536377)"></path><path class="st4" d="M147.7,212.9c0.4,5.1,0.1,9.9-1.2,11.5c-0.8,1-1.7,1.7-2.6,2.1h89.5v-2.9c0-4.7,3.8-8.5,8.5-8.5H291&#10;&#9;&#9;&#9;c4.7,0,8.5,3.8,8.5,8.5v2.9H453c0.6,0,1.2,0.1,1.8,0.1c-0.8-0.3-1.5-0.7-2-1.2c-1.2-1.2-1.1-6.9-0.8-12c-0.9-0.4-1.8-0.5-2.8-0.5&#10;&#9;&#9;&#9;h-200H147.7z" style="fill: rgb(1, 74, 110); opacity: 1;" transform="matrix(1, 0, 0, 0.9999999999999999, 520.9274902343751, -1.4929533004760742)"></path><path class="st4" d="M204.6,231.4c-16.2,0-29.8,11-33.9,25.9c-0.7,2.7-1.2,5.5-1.2,8.5c0,0.3,0,0.5,0,0.8&#10;&#9;&#9;&#9;c0,19.4,15.7,35.1,35.1,35.1c19.4,0,35.1-15.7,35.1-35.1c0-0.3,0-0.5,0-0.8c-0.1-2.9-0.5-5.8-1.2-8.5&#10;&#9;&#9;&#9;C234.4,242.3,220.8,231.4,204.6,231.4z M224.5,266.5c0,11-8.9,19.9-19.9,19.9c-11,0-19.9-8.9-19.9-19.9c0-11,8.9-19.9,19.9-19.9&#10;&#9;&#9;&#9;C215.6,246.6,224.5,255.5,224.5,266.5z" style="fill: rgb(1, 74, 110); opacity: 1;" transform="matrix(0.9000853896141052, 0, 0, 0.9000853896141051, 663.9700317382814, 29.139268875122056)"></path><path class="st3" d="M454.8,226.7c-0.6-0.1-1.2-0.1-1.8-0.1H299.5v9.3c0,4.7-3.8,8.5-8.5,8.5h-49.1c-4.7,0-8.5-3.8-8.5-8.5v-9.3&#10;&#9;&#9;&#9;h-89.5c-1.4,0.7-3,0.7-4.9,0.2c-0.5,0.1-1,0.2-1.5,0.3c-5.5,1.5-9.5,6.5-9.5,12.5v4.7c0,7.2,5.8,13,13,13h29.7&#10;&#9;&#9;&#9;c4.1-14.9,17.7-25.9,33.9-25.9c16.2,0,29.8,11,33.9,25.9h54.9c4.1-14.9,17.7-25.9,33.9-25.9c16.2,0,29.8,11,33.9,25.9H376&#10;&#9;&#9;&#9;c4.1-14.9,17.7-25.9,33.9-25.9c16.2,0,29.8,11,33.9,25.9h9.2c7.2,0,13-5.8,13-13v-4.7c0-5.8-3.7-10.6-8.9-12.3&#10;&#9;&#9;&#9;C456.3,227.1,455.5,226.9,454.8,226.7z" style="fill: rgb(1, 74, 110); opacity: 1;" transform="matrix(1, 0, 0, 0.9999999999999999, 520.9274902343751, 2.507046699523926)"></path><path class="st4" d="M204.6,231.4c-16.2,0-29.8,11-33.9,25.9c-0.7,2.7-1.2,5.5-1.2,8.5c0,0.3,0,0.5,0,0.8&#10;&#9;&#9;&#9;c0,19.4,15.7,35.1,35.1,35.1c19.4,0,35.1-15.7,35.1-35.1c0-0.3,0-0.5,0-0.8c-0.1-2.9-0.5-5.8-1.2-8.5&#10;&#9;&#9;&#9;C234.4,242.3,220.8,231.4,204.6,231.4z M224.5,266.5c0,11-8.9,19.9-19.9,19.9c-11,0-19.9-8.9-19.9-19.9c0-11,8.9-19.9,19.9-19.9&#10;&#9;&#9;&#9;C215.6,246.6,224.5,255.5,224.5,266.5z" style="fill: rgb(1, 74, 110); opacity: 1;" transform="matrix(0.9000853896141052, 0, 0, 0.9000853896141051, 541.3699951171875, 29.139295578002915)"></path><path d="M 209.300006 266.5 A 4.7 4.7 0 0 1 204.600006 271.2 A 4.7 4.7 0 0 1 199.900006 266.5 A 4.7 4.7 0 0 1 204.600006 261.8 A 4.7 4.7 0 0 1 209.300006 266.5 Z" class="st4" style="fill: rgb(1, 74, 110); opacity: 1;" transform="matrix(1, 0, 0, 0.9999999999999999, 520.9274902343751, 2.507046699523926)"></path><path class="st4" d="M204.6,231.4c-16.2,0-29.8,11-33.9,25.9c-0.7,2.7-1.2,5.5-1.2,8.5c0,0.3,0,0.5,0,0.8&#10;&#9;&#9;&#9;c0,19.4,15.7,35.1,35.1,35.1c19.4,0,35.1-15.7,35.1-35.1c0-0.3,0-0.5,0-0.8c-0.1-2.9-0.5-5.8-1.2-8.5&#10;&#9;&#9;&#9;C234.4,242.3,220.8,231.4,204.6,231.4z M224.5,266.5c0,11-8.9,19.9-19.9,19.9c-11,0-19.9-8.9-19.9-19.9c0-11,8.9-19.9,19.9-19.9&#10;&#9;&#9;&#9;C215.6,246.6,224.5,255.5,224.5,266.5z" style="fill: rgb(1, 74, 110); opacity: 1;" transform="matrix(0.9000853896141052, 0, 0, 0.9000853896141051, 746.6700439453126, 29.139284133911133)"></path><path class="st0" d="M143.9,226.5c0.9-0.4,1.8-1.2,2.6-2.1c1.3-1.6,1.5-6.4,1.2-11.5c-0.3-4.7-1.2-9.6-2.2-12&#10;&#9;&#9;&#9;c-0.1-0.3-0.3-0.5-0.5-0.7c-1.9-1.6-7.6,1-9,3.7c-1.5,3-3,20,1,22c0.2,0.1,0.3,0.2,0.5,0.2c0.5,0.2,1,0.4,1.5,0.6&#10;&#9;&#9;&#9;C140.8,227.3,142.4,227.2,143.9,226.5z" style="fill: rgb(1, 74, 110); opacity: 1;" transform="matrix(0.6493002176284791, 0, 0, 0.6493002176284789, 568.8310546875001, 74.22113037109374)"></path><path class="st6" d="M452.8,205c-0.2,1.3-0.6,4.7-0.8,8.5c-0.3,5.2-0.3,10.9,0.8,12c0.5,0.5,1.2,0.9,2,1.2&#10;&#9;&#9;&#9;c0.7,0.3,1.5,0.4,2.3,0.5c2,0.2,4.2-0.1,5.8-1.2c3-2,4-27-5-26.5c-1.1,0.1-1.9,0.3-2.5,0.7C453.7,201.1,453.2,202.9,452.8,205z" style="fill: rgb(1, 74, 110); opacity: 1;" transform="matrix(0.7440940737724305, 0, 0, 0.7440940737724303, 638.5202026367189, 55.700046539306626)"></path><path d="M 331.999988 266.5 A 4.7 4.7 0 0 1 327.299988 271.2 A 4.7 4.7 0 0 1 322.599988 266.5 A 4.7 4.7 0 0 1 327.299988 261.8 A 4.7 4.7 0 0 1 331.999988 266.5 Z" class="st4" style="fill: rgb(1, 74, 110); opacity: 1;" transform="matrix(1, 0, 0, 0.9999999999999999, 520.9274902343751, 2.507046699523926)"></path><path d="M 414.800006 266.5 A 4.7 4.7 0 0 1 410.100006 271.2 A 4.7 4.7 0 0 1 405.400006 266.5 A 4.7 4.7 0 0 1 410.100006 261.8 A 4.7 4.7 0 0 1 414.800006 266.5 Z" class="st4" style="fill: rgb(1, 74, 110); opacity: 1;" transform="matrix(1, 0, 0, 0.9999999999999999, 520.9274902343751, 2.507046699523926)"></path><path class="st5" d="M291,215.1h-49.1c-4.7,0-8.5,3.8-8.5,8.5v2.9v9.3c0,4.7,3.8,8.5,8.5,8.5H291c4.7,0,8.5-3.8,8.5-8.5v-9.3v-2.9&#10;&#9;&#9;&#9;C299.5,218.9,295.7,215.1,291,215.1z" style="fill: rgb(1, 74, 110); opacity: 1;" transform="matrix(0.7645903825759889, 0, 0, 0.7645903825759885, 583.65234375, 54.58063888549803)"></path></g></g></g><g transform="matrix(-1.9316710233688354, 0.5544322729110718, -0.5544322729110718, -1.9316710233688354, 1173.8482195455142, 926.5353011598045)"><path class="st1" d="M265.7,355.9c0,0,13,6.8,15.3,7.8c2.3,0.9,4.2,0.3,4.2,0.3c6-2.8,18.4-7.6,18.4-7.6s-5.6-3.7-6.6-4.2&#10;&#9;&#9;c-1-0.5-0.8-0.8-0.2-1.9c0.6-1,2.1-0.7,2.1-0.7l13.5,3.1c0,0,12.5-5.7,22-9.3c9.4-3.6,12-1.7,13.3-0.9c1.2,0.8,3,0,4.1,1.4&#10;&#9;&#9;c1.1,1.4-0.5,3.6-2.8,5.5c-2.4,1.9-13.9,6.2-18.1,7.9c-4.3,1.7-6,2.5-7.6,3.7c-1.7,1.2-4.8,2.7-4.8,2.7s-0.2,0.3-0.5,0.7&#10;&#9;&#9;c0.7-0.1,1.1-0.1,1.1-0.1s1.5,0.6,2.1,2.4c0.6,1.7-0.5,3.4-0.5,3.4s-2.3,0.8-6,0.6c-0.4,0-0.7-0.1-1-0.1c-1.7,2.4-3.3,4.6-3.7,5.2&#10;&#9;&#9;c-0.9,1.3-2,2.1-3.2,2.5c-1.2,0.4-2.8,1.1-2.1-0.4c0.7-1.5,4.2-10.4,4.2-10.4c-7.6,1.5-18.8,5.6-23.4,6.7c-4.6,1.1-9,1.6-9,1.6&#10;&#9;&#9;c-0.7,0.3-4.4,2.8-5.1,2.6c-0.7-0.3,1.2-2.4,1.2-2.4c-1.5-0.1-2.3-1.3-2.4-2.3c-0.1-1,2.3-2.6,2.3-2.6s-9.5-10.1-11.3-12.1&#10;&#9;&#9;c-1.8-2-0.4-2.2,1.5-2.9C264.2,355,265.7,355.9,265.7,355.9L265.7,355.9z M297.7,362.2c0.9,0,1.6,0.6,1.6,1.5&#10;&#9;&#9;c0,0.9-0.6,1.6-1.5,1.6c-0.9,0-1.6-0.6-1.6-1.5C296.2,362.9,296.8,362.2,297.7,362.2L297.7,362.2z M303.6,359.9&#10;&#9;&#9;c0.9,0,1.6,0.6,1.6,1.5c0,0.9-0.6,1.6-1.5,1.6c-0.9,0-1.6-0.6-1.6-1.5S302.8,359.9,303.6,359.9L303.6,359.9z M309.5,357.5&#10;&#9;&#9;c0.9,0,1.6,0.6,1.6,1.5c0,0.9-0.6,1.6-1.5,1.6c-0.9,0-1.6-0.6-1.6-1.5C308,358.3,308.7,357.5,309.5,357.5L309.5,357.5z&#10;&#9;&#9; M315.4,355.2c0.9,0,1.6,0.6,1.6,1.5c0,0.9-0.6,1.6-1.5,1.6c-0.9,0-1.6-0.6-1.6-1.5C313.9,355.9,314.6,355.2,315.4,355.2&#10;&#9;&#9;L315.4,355.2z M321.3,352.8c0.9,0,1.6,0.6,1.6,1.5c0,0.9-0.6,1.6-1.5,1.6c-0.9,0-1.6-0.6-1.6-1.5&#10;&#9;&#9;C319.8,353.6,320.5,352.9,321.3,352.8L321.3,352.8z M327.2,350.5c0.9,0,1.6,0.6,1.6,1.5s-0.6,1.6-1.5,1.6c-0.9,0-1.6-0.6-1.6-1.5&#10;&#9;&#9;C325.7,351.2,326.4,350.5,327.2,350.5L327.2,350.5z M333.2,348.2c0.9,0,1.6,0.6,1.6,1.5c0,0.9-0.6,1.6-1.5,1.6&#10;&#9;&#9;c-0.9,0-1.6-0.6-1.6-1.5C331.6,348.9,332.3,348.2,333.2,348.2L333.2,348.2z M345.3,342.1l0.2-0.1c0,0,0.9,0.3,1.2,0.5&#10;&#9;&#9;c0.3,0.3,0.9,0.6,1.5,0.6c-3.4,2.2-7.8,3.6-7.8,3.6c0-0.9,1.3-3.2,1.3-3.2C343.2,343.1,344.4,342.5,345.3,342.1L345.3,342.1z" style="fill-rule: evenodd; clip-rule: evenodd; fill: rgb(1, 74, 110); opacity: 1;" transform="matrix(1, 0, 0, 1, 6, 31.33333396911621)"></path></g><g transform="matrix(0.17057055234909055, 0.3328049480915069, 0.3328049480915069, -0.17057055234909055, -50.659089414446726, 266.7524795045306)"><g transform="matrix(1, 0, 0, 1, 0, 0)"><path class="st4" d="M191.1,377.9c11.2,1.5,25.6,2.2,42.8,2.2c45.7,0,108.5-5.8,120.8-13.3c17.3-10.5,38.1-65.2,39-67.6l0.9-2.3&#10;&#9;&#9;&#9;l-2.5,0.2c-6.3,0.6-12.6,1.1-18.8,1.5v-15.5h-4.8V264h-66.3v19.1h-12.8v16c-5.3-0.3-10.5-0.6-15.5-1.1v-65.7h13.3v-19.3h-23.5&#10;&#9;&#9;&#9;v-18.9c1,0,2.1,0.1,3.1,0.1c16.5,0,38.3-4.3,39.3-4.5l5-1l-4.7-2c-20.8-8.7-39.3-23-42.8-25.7v-0.8h-10.5v52.8h-90v19.3h13.3v49.2&#10;&#9;&#9;&#9;c-31.9-8.7-48.9-17.3-49.2-17.4l-1.8-0.9l-0.4,2c-4.1,18.7,4.1,56.5,22.9,83.1C160.1,365.6,175,375.8,191.1,377.9z M300.6,187.7&#10;&#9;&#9;&#9;c-8.2,1.4-24.9,3.9-36.9,3.5v-26.1C269.3,169.4,283.9,179.9,300.6,187.7z M256.3,163.4h4.2v49.7h-4.2V163.4z M166.3,216.2h86.9&#10;&#9;&#9;&#9;h10.5H284v13.1H166.3V216.2z M353.1,364.2c-10.7,6.5-69.7,12.8-119.2,12.8c-17,0-31.3-0.7-42.4-2.2c-15.2-2-29.4-11.8-41-28.3&#10;&#9;&#9;&#9;c-12.6-17.9-20.3-40.9-22.6-59.3c4.4,1.9,14.6,6.1,30,10.9c-0.3,0.3-0.6,0.6-0.8,0.9c-0.6,0.8-1.2,1.6-1.7,2.6l-0.1-0.1l-0.8,1.9&#10;&#9;&#9;&#9;l-0.5,1.1l0,0c-1.9,5.3-1.4,11.1,1.5,15.9l0,0l0.7,1l1.2,1.7l0.1-0.1c0.7,0.9,1.4,1.6,2.2,2.2c0.8,0.6,1.6,1.2,2.6,1.7l-0.1,0.1&#10;&#9;&#9;&#9;l1.9,0.8l1.1,0.5l0,0c2,0.7,4.2,1.1,6.3,1.1c3.4,0,6.6-0.9,9.5-2.6l0,0l1-0.7l1.7-1.2l-0.1-0.1c0.8-0.7,1.6-1.4,2.2-2.2&#10;&#9;&#9;&#9;c0.6-0.8,1.2-1.6,1.7-2.6l0.1,0.1l0.8-1.9l0.5-1.1l0,0c1.3-3.4,1.5-7.1,0.6-10.5c4.9,1.2,10.1,2.3,15.6,3.4&#10;&#9;&#9;&#9;c-0.2,0.2-0.5,0.5-0.7,0.8c-0.6,0.8-1.2,1.6-1.7,2.6l-0.1-0.1l-0.8,1.9l-0.5,1.1l0,0c-1.9,5.3-1.4,11.1,1.5,15.9l0,0l0.7,1&#10;&#9;&#9;&#9;l1.2,1.7l0.1-0.1c0.7,0.9,1.4,1.6,2.2,2.2c0.8,0.6,1.6,1.2,2.6,1.7l-0.1,0.1l1.9,0.8l1.1,0.5l0,0c2,0.7,4.2,1.1,6.3,1.1&#10;&#9;&#9;&#9;c3.4,0,6.6-0.9,9.5-2.6l0,0l1-0.7c0,0,0,0,0.1,0l1.6-1.1l-0.1-0.1c0.9-0.7,1.6-1.4,2.2-2.2c0.6-0.8,1.2-1.6,1.7-2.6l0.1,0.1&#10;&#9;&#9;&#9;l0.8-1.9l0.5-1.1l0,0c1.6-4.5,1.5-9.3-0.4-13.7c5.9,0.9,12,1.6,18.3,2.4c-0.6,0.7-1.1,1.5-1.5,2.3l-0.1-0.1l-0.8,1.9l-0.5,1.1l0,0&#10;&#9;&#9;&#9;c-1.9,5.3-1.4,11.1,1.5,15.9l0,0l0.7,1l1.2,1.7l0.1-0.1c0.7,0.8,1.4,1.6,2.2,2.2c0.8,0.6,1.6,1.2,2.6,1.7l-0.1,0.1l1.9,0.8&#10;&#9;&#9;&#9;l1.1,0.5l0,0c2,0.7,4.2,1.1,6.3,1.1c3.4,0,6.6-0.9,9.5-2.6l0,0l1-0.7c0,0,0,0,0.1,0l1.6-1.1l-0.1-0.1c0.9-0.7,1.6-1.4,2.2-2.2&#10;&#9;&#9;&#9;c0.6-0.8,1.2-1.6,1.7-2.6l0.1,0.1l0.8-1.9l0.5-1.1l0,0c1.8-5,1.4-10.6-1.2-15.2c5.4,0.3,11,0.6,16.6,0.8c0,0.1-0.1,0.2-0.1,0.2&#10;&#9;&#9;&#9;l-0.1-0.1l-0.8,1.9c0,0,0,0,0,0l-0.5,1l0,0c-1.9,5.3-1.4,11.1,1.5,15.9l0,0l0.7,1c0,0,0,0,0,0l1.1,1.7l0.1-0.1&#10;&#9;&#9;&#9;c0.7,0.8,1.4,1.6,2.2,2.2c0.8,0.6,1.6,1.2,2.6,1.7l-0.1,0.1l1.9,0.8c0,0,0,0,0,0l1,0.5l0,0c2,0.7,4.2,1.1,6.3,1.1&#10;&#9;&#9;&#9;c3.4,0,6.6-0.9,9.5-2.6l0,0l1-0.7l1.7-1.2l-0.1-0.1c0.8-0.7,1.6-1.4,2.2-2.2c0.6-0.8,1.2-1.6,1.7-2.6l0.1,0.1l0.8-1.9l0.5-1.1l0,0&#10;&#9;&#9;&#9;c1.9-5.1,1.4-10.7-1.3-15.5c15.3-0.2,31.3-0.9,48-2.3C374.2,336.4,362.8,358.3,353.1,364.2z M175.6,296.1l-5.1,6.1l-6.1-5.1&#10;&#9;&#9;&#9;C167.9,295.4,172,295,175.6,296.1z M186.3,315.1l-6.1-5.1l5.1-6.1C187,307.4,187.4,311.4,186.3,315.1z M164.2,314.9&#10;&#9;&#9;&#9;c0.5,0.9,1.2,1.8,2,2.4c0.8,0.7,1.8,1.2,2.8,1.5l-4.8,5.8c-1-0.5-1.9-1.1-2.6-1.7c-0.8-0.6-1.5-1.4-2.2-2.3L164.2,314.9z&#10;&#9;&#9;&#9; M159.5,301c0.6-0.8,1.4-1.5,2.3-2.2l5.8,4.8c-0.9,0.5-1.8,1.2-2.4,2c-0.7,0.8-1.2,1.8-1.5,2.8l-5.8-4.8&#10;&#9;&#9;&#9;C158.3,302.6,158.8,301.8,159.5,301z M176.5,310.4L176.5,310.4l0,0.2c0.1,1.3-0.3,2.7-1.2,3.7c-0.8,1-2,1.7-3.4,1.8l-0.6,0&#10;&#9;&#9;&#9;c-1.2,0-2.4-0.4-3.3-1.2c-1-0.9-1.7-2.1-1.8-3.4l0-0.1l0-0.1c-0.1-1.3,0.3-2.7,1.2-3.7c0.8-1,2-1.6,3.3-1.8l0.7-0.1&#10;&#9;&#9;&#9;c1.2,0,2.3,0.4,3.3,1.2C175.7,307.8,176.4,309,176.5,310.4z M156.6,306.7l6.1,5.1l-5.1,6.1C155.9,314.4,155.5,310.4,156.6,306.7z&#10;&#9;&#9;&#9; M172.3,319.7l6.1,5.1c-3.4,1.7-7.5,2.1-11.2,1.1L172.3,319.7z M175.4,318.2c0.9-0.5,1.8-1.2,2.4-2c0.7-0.8,1.2-1.8,1.5-2.8&#10;&#9;&#9;&#9;l5.8,4.8c-0.5,1-1.1,1.9-1.7,2.6c-0.6,0.8-1.4,1.5-2.3,2.2L175.4,318.2z M178.7,307c-0.5-0.9-1.2-1.8-2-2.4&#10;&#9;&#9;&#9;c-0.8-0.7-1.8-1.2-2.8-1.5l4.8-5.8c1,0.5,1.9,1.1,2.6,1.7c0.8,0.6,1.5,1.4,2.2,2.3L178.7,307z M223,307.9L218,314l-6.1-5.1&#10;&#9;&#9;&#9;C215.3,307.2,219.3,306.8,223,307.9z M230.8,313l-4.8,5.8c-0.5-0.9-1.2-1.8-2-2.4c-0.8-0.7-1.8-1.2-2.8-1.5l4.8-5.8&#10;&#9;&#9;&#9;c1,0.5,1.9,1.1,2.6,1.7C229.4,311.4,230.1,312.1,230.8,313z M232.6,315.8c1.8,3.5,2.1,7.4,1.1,11.2l-6.1-5.1l2.2-2.7L232.6,315.8z&#10;&#9;&#9;&#9; M225.8,336.6c-3.4,1.7-7.5,2.1-11.2,1.1l5.1-6.1l1.4,1.2L225.8,336.6z M211.5,326.7c0.5,0.9,1.2,1.8,2,2.4&#10;&#9;&#9;&#9;c0.8,0.7,1.8,1.2,2.8,1.5l-4.8,5.8c-1-0.5-1.9-1.1-2.6-1.7c-0.8-0.6-1.5-1.4-2.2-2.3L211.5,326.7z M206.8,312.9&#10;&#9;&#9;&#9;c0.6-0.8,1.4-1.5,2.3-2.2l5.8,4.8c-0.9,0.5-1.8,1.2-2.4,2c-0.7,0.8-1.2,1.8-1.5,2.8l-5.8-4.8C205.6,314.5,206.2,313.6,206.8,312.9&#10;&#9;&#9;&#9;z M223.9,322.2L223.9,322.2l0,0.2c0.1,1.3-0.3,2.7-1.2,3.7c-0.8,1-2,1.6-3.3,1.8l-0.7,0.1c-1.2,0-2.3-0.4-3.3-1.2&#10;&#9;&#9;&#9;c-1-0.8-1.7-2.1-1.8-3.4l0-0.1l0-0.1c-0.1-1.3,0.3-2.7,1.2-3.7c0.8-1,2-1.6,3.3-1.8l0.7-0.1c1.2,0,2.3,0.4,3.3,1.2&#10;&#9;&#9;&#9;C223.1,319.6,223.8,320.8,223.9,322.2z M203.9,318.5l6.1,5.1l-5.1,6.1C203.2,326.2,202.9,322.3,203.9,318.5z M222.7,330&#10;&#9;&#9;&#9;c0.9-0.5,1.8-1.2,2.4-2c0.7-0.8,1.2-1.8,1.5-2.8l5.8,4.8c-0.5,1-1.1,1.9-1.7,2.6c-0.6,0.7-1.4,1.4-2.3,2.2L222.7,330z M273,314.5&#10;&#9;&#9;&#9;l-5.1,6.1l-6.1-5.1C265.2,313.9,269.3,313.5,273,314.5z M278.6,317.4c0.8,0.6,1.5,1.4,2.2,2.3l-4.8,5.8c-0.5-0.9-1.2-1.8-2-2.4&#10;&#9;&#9;&#9;c-0.8-0.7-1.8-1.2-2.8-1.5l4.8-5.8C277,316.3,277.9,316.8,278.6,317.4z M282.6,322.5c1.8,3.5,2.1,7.4,1.1,11.2l-6.1-5.1l2.3-2.7&#10;&#9;&#9;&#9;L282.6,322.5z M275.7,343.2c-3.4,1.7-7.5,2.1-11.2,1.1l5.1-6.1l1.3,1L275.7,343.2z M256.8,319.5c0.6-0.8,1.4-1.5,2.3-2.2l5.8,4.8&#10;&#9;&#9;&#9;c-0.9,0.5-1.8,1.2-2.4,2c-0.7,0.8-1.2,1.8-1.5,2.8l-5.8-4.8C255.6,321.1,256.2,320.3,256.8,319.5z M273.9,328.8L273.9,328.8l0,0.2&#10;&#9;&#9;&#9;c0.1,1.3-0.3,2.7-1.2,3.7c-0.8,1-2,1.6-3.3,1.8l-0.7,0.1c-1.2,0-2.3-0.4-3.3-1.2c-1-0.8-1.7-2.1-1.8-3.4l0-0.1l0-0.1&#10;&#9;&#9;&#9;c-0.1-1.3,0.3-2.7,1.2-3.7c0.8-1,2-1.6,3.3-1.8l0.7-0.1c1.2,0,2.3,0.4,3.3,1.2C273.1,326.3,273.7,327.5,273.9,328.8z M253.9,325.2&#10;&#9;&#9;&#9;l6.1,5.1l-5.1,6.1C253.2,332.9,252.8,328.9,253.9,325.2z M261.5,333.3c0.5,0.9,1.2,1.8,2,2.4c0.8,0.7,1.8,1.2,2.8,1.5l-4.8,5.8&#10;&#9;&#9;&#9;c-1-0.5-1.9-1.1-2.6-1.7c-0.8-0.6-1.5-1.4-2.2-2.3L261.5,333.3z M272.7,336.7c0.9-0.5,1.8-1.2,2.4-2c0.7-0.8,1.2-1.8,1.5-2.8&#10;&#9;&#9;&#9;l5.8,4.8c-0.5,1-1.1,1.9-1.7,2.6c-0.6,0.7-1.4,1.4-2.3,2.2L272.7,336.7z M305.7,320.9c0.6-0.8,1.4-1.5,2.3-2.2l5.8,4.8&#10;&#9;&#9;&#9;c-0.9,0.5-1.8,1.2-2.4,2c-0.7,0.8-1.2,1.8-1.5,2.8l-5.8-4.8C304.5,322.6,305,321.7,305.7,320.9z M327.5,318.9&#10;&#9;&#9;&#9;c0.8,0.6,1.5,1.4,2.2,2.3l-4.8,5.8c-0.5-0.9-1.2-1.8-2-2.4c-0.8-0.7-1.8-1.2-2.8-1.5l4.8-5.8C325.9,317.7,326.8,318.2,327.5,318.9&#10;&#9;&#9;&#9;z M331.3,338.1c-0.5,1-1.1,1.9-1.7,2.6c-0.6,0.8-1.4,1.5-2.3,2.2l-5.8-4.8c0.9-0.5,1.8-1.2,2.4-2c0.7-0.8,1.2-1.8,1.5-2.8&#10;&#9;&#9;&#9;L331.3,338.1z M305.6,340.5l4.8-5.8c0.5,0.9,1.2,1.8,2,2.4c0.8,0.7,1.8,1.2,2.8,1.5l-4.8,5.8c-1-0.5-1.9-1.1-2.6-1.7&#10;&#9;&#9;&#9;C307,342.2,306.3,341.4,305.6,340.5z M313.7,327.5c0.8-1,2-1.6,3.3-1.8l0.7-0.1c1.2,0,2.3,0.4,3.3,1.2c1,0.9,1.7,2.1,1.8,3.4&#10;&#9;&#9;&#9;l0,0.1l0,0.1c0.1,1.3-0.3,2.7-1.2,3.7c-0.8,1-2,1.6-3.3,1.8l-0.7,0.1c-1.2,0-2.3-0.4-3.3-1.2c-1-0.9-1.7-2.1-1.8-3.4l0-0.1l0-0.1&#10;&#9;&#9;&#9;C312.4,329.9,312.8,328.6,313.7,327.5z M302.8,326.6l6.1,5.1l-5.1,6.1C302.1,334.3,301.7,330.3,302.8,326.6z M318.5,339.6l6.1,5.1&#10;&#9;&#9;&#9;c-3.4,1.7-7.5,2.1-11.2,1.1L318.5,339.6z M332.5,335.1l-6.1-5.1l5.1-6.1C333.2,327.3,333.6,331.3,332.5,335.1z M316.8,322.1&#10;&#9;&#9;&#9;l-6.1-5.1c3.4-1.7,7.5-2.1,11.2-1.1L316.8,322.1z M305.2,267.2h60.1v16h-60.1V267.2z M292.4,286.3h77.7v12.6&#10;&#9;&#9;&#9;c-14.9,0.9-29.7,1.4-44.2,1.4c-11.6,0-22.8-0.3-33.4-0.8V286.3z M179.6,232.8h91.1v65.1c-37.4-3.2-67.9-9.3-91.1-15.4V232.8z&#10;&#9;&#9;&#9; M127.8,267.9c12,5.6,81.5,35.5,198.1,35.5c20.9,0,42.4-1,64-2.8c-1.2,3-3.5,8.8-6.6,15.7c-18,1.5-35.2,2.3-51.5,2.4l0,0l0,0&#10;&#9;&#9;&#9;c0,0-0.1,0-0.1,0c-0.7-0.8-1.4-1.6-2.2-2.2c-0.8-0.6-1.6-1.2-2.6-1.7l0.1-0.1l-1.9-0.8l-1.1-0.5l0,0c-5.2-1.9-11.1-1.3-15.9,1.5&#10;&#9;&#9;&#9;l0,0l-1,0.7l-1.7,1.2l0.1,0.1c-0.6,0.5-1.1,1-1.6,1.5c-7.2-0.2-14.1-0.6-20.9-1l-0.1-0.1l-0.1,0.1c-0.7-0.8-1.4-1.6-2.2-2.2&#10;&#9;&#9;&#9;c-0.8-0.6-1.6-1.2-2.6-1.7l0.1-0.1l-1.9-0.8c0,0,0,0,0,0l-1-0.5l0,0c-5.2-1.9-11.1-1.3-15.9,1.5l0,0l-1,0.7l-1.3,0.9&#10;&#9;&#9;&#9;c-8-0.9-15.7-1.9-23-3l-1-1.5l-0.1,0.1c-0.7-0.8-1.4-1.6-2.2-2.2c-0.8-0.6-1.6-1.2-2.6-1.7l0.1-0.1l-1.9-0.8c0,0,0,0,0,0l-1-0.5&#10;&#9;&#9;&#9;l0,0c-5.2-1.9-11.1-1.3-15.9,1.5l0,0l-1,0.7l-0.2,0.1c-7-1.4-13.6-2.8-19.8-4.3c-0.3-0.6-0.6-1.3-1-1.9l0,0l-0.7-1l-1.2-1.7&#10;&#9;&#9;&#9;l-0.1,0.1c-0.7-0.9-1.4-1.6-2.2-2.2c-0.8-0.6-1.6-1.2-2.6-1.7l0.1-0.1l-1.9-0.8c0,0,0,0,0,0l-1-0.5l0,0&#10;&#9;&#9;&#9;c-5.2-1.9-11.1-1.3-15.9,1.5l0,0l-1,0.7l-0.2,0.1c-18.9-5.8-30.3-10.8-33.2-12.1C127,277.7,127,272.3,127.8,267.9z" style="fill: rgb(1, 74, 110); opacity: 1; stroke: rgb(1, 74, 110); stroke-width: 4;"></path><path class="st4" d="M186.9,276.7h23.8V239h-23.8V276.7z M190,242.1h17.6v31.5H190V242.1z" style="fill: rgb(1, 74, 110); opacity: 1; stroke: rgb(1, 74, 110); stroke-width: 4;"></path><path class="st4" d="M219.6,239v37.7h23.8V239H219.6z M240.3,273.6h-17.6v-31.5h17.6V273.6z" style="fill: rgb(1, 74, 110); opacity: 1; stroke: rgb(1, 74, 110); stroke-width: 4;"></path></g></g><g transform="matrix(-0.17971862852573395, 0.02114174328744411, -0.02114174328744411, -0.17971862852573395, 221.96859613242805, 454.74422449964766)"><g transform="matrix(1, 0, 0, 1, 1.1368683772161603e-13, 0)"><g transform="matrix(1, 0, 0, 1, -68.63700866699213, -13.428979873657227)"><g><g><path class="st1" d="M636,765.7c-0.1-0.1-0.3-0.3-0.4-0.4c-1.9-2.3-1.5-5.7,0.8-7.5l27.6-21.7c2.3-1.9,5.7-1.5,7.6,0.8&#10;&#9;&#9;&#9;&#9;c1.9,2.3,1.5,5.7-0.8,7.6l-27.7,21.7C641,767.8,637.9,767.6,636,765.7z" style="fill: rgb(1, 74, 110); opacity: 1; stroke: rgb(1, 74, 110);"></path></g><path class="st1" d="M722,762.5l-7.7-7.7l-45.1,64.7c-8.8,8.4-22.8,8.3-31.4-0.3l-23.6-23.6c-8.7-8.7-8.8-22.7-0.3-31.5l63-46.8&#10;&#9;&#9;&#9;l-7.7-7.7l-62,46.1c-0.2,0.2-0.4,0.3-0.6,0.5c-12.9,12.9-12.9,34,0,46.9l23.6,23.6c12.9,12.9,34,12.9,46.9,0&#10;&#9;&#9;&#9;c0.2-0.2,0.4-0.5,0.6-0.7L722,762.5z" style="fill: rgb(1, 74, 110); opacity: 1; stroke: rgb(1, 74, 110);"></path><g><path class="st1" d="M736.5,682.8c-4,4-10.5,4-14.6,0c-4-4-4-10.5,0-14.6c4-4,10.5-4,14.6,0C740.5,672.2,740.5,678.8,736.5,682.8&#10;&#9;&#9;&#9;&#9;z" style="fill: rgb(1, 74, 110); opacity: 1; stroke: rgb(1, 74, 110);"></path></g><g><path class="st1" d="M766.4,712.7c-4.3,4.3-11.3,4.3-15.7,0c-4.3-4.3-4.3-11.3,0-15.7c4.3-4.3,11.3-4.3,15.7,0&#10;&#9;&#9;&#9;&#9;C770.7,701.4,770.7,708.4,766.4,712.7z" style="fill: rgb(1, 74, 110); opacity: 1; stroke: rgb(1, 74, 110);"></path></g><g><path class="st1" d="M727.1,721.3c-4.6,4.6-12,4.6-16.5,0c-4.6-4.6-4.6-12,0-16.5c4.6-4.6,12-4.6,16.5,0&#10;&#9;&#9;&#9;&#9;C731.7,709.3,731.7,716.7,727.1,721.3z" style="fill: rgb(1, 74, 110); opacity: 1; stroke: rgb(1, 74, 110);"></path></g><g><path class="st1" d="M760.1,754.2c-4.6,4.6-12,4.6-16.5,0c-4.6-4.6-4.6-12,0-16.5c4.6-4.6,12-4.6,16.5,0&#10;&#9;&#9;&#9;&#9;C764.6,742.2,764.6,749.6,760.1,754.2z" style="fill: rgb(1, 74, 110); opacity: 1; stroke: rgb(1, 74, 110);"></path></g><g><path class="st1" d="M695.3,689.5c-4.6,4.6-12,4.6-16.5,0c-4.6-4.6-4.6-12,0-16.5c4.6-4.6,12-4.6,16.5,0&#10;&#9;&#9;&#9;&#9;C699.9,677.5,699.9,684.9,695.3,689.5z" style="fill: rgb(1, 74, 110); opacity: 1; stroke: rgb(1, 74, 110);"></path></g><path class="st1" d="M773.5,659.9c-39.6-39.6-104.1-39.6-143.7,0c-2,2-3.8,4-5.6,6.1c-1.8,2.1-1.7,5.3,0.3,7.3l3.9,3.9l12,12&#10;&#9;&#9;&#9;l0.3,0.3l14,14l72.7,72.7l18,18l1,1l13.6,13.6c2,2,5.1,2.1,7.3,0.3c2.1-1.8,4.1-3.6,6.1-5.6C813,764,813.1,699.5,773.5,659.9z&#10;&#9;&#9;&#9; M764.1,797.7l-10-10l-1.8-1.8L649.1,682.8l-1.1-1.1l-12.3-12.3c0.6-0.6,1.1-1.2,1.7-1.8c35.4-35.4,93.1-35.4,128.5,0&#10;&#9;&#9;&#9;c35.4,35.4,35.4,93.1,0,128.5C765.3,796.6,764.7,797.2,764.1,797.7z" style="fill: rgb(1, 74, 110); opacity: 1; stroke: rgb(1, 74, 110);"></path></g></g></g></g><g transform="matrix(0.230488121509552, -0.031587693840265274, 0.031587693840265274, 0.230488121509552, 229.58523431602225, -46.39011387925845)"><g transform="matrix(1, 0, 0, 1, 1.1368683772161603e-13, 0)"><g transform="matrix(1, 0, 0, 1, -68.63700866699213, -13.428979873657227)"><g><g><path class="st1" d="M636,765.7c-0.1-0.1-0.3-0.3-0.4-0.4c-1.9-2.3-1.5-5.7,0.8-7.5l27.6-21.7c2.3-1.9,5.7-1.5,7.6,0.8&#10;&#9;&#9;&#9;&#9;c1.9,2.3,1.5,5.7-0.8,7.6l-27.7,21.7C641,767.8,637.9,767.6,636,765.7z" style="fill: rgb(1, 74, 110); opacity: 1;"></path></g><path class="st1" d="M722,762.5l-7.7-7.7l-45.1,64.7c-8.8,8.4-22.8,8.3-31.4-0.3l-23.6-23.6c-8.7-8.7-8.8-22.7-0.3-31.5l63-46.8&#10;&#9;&#9;&#9;l-7.7-7.7l-62,46.1c-0.2,0.2-0.4,0.3-0.6,0.5c-12.9,12.9-12.9,34,0,46.9l23.6,23.6c12.9,12.9,34,12.9,46.9,0&#10;&#9;&#9;&#9;c0.2-0.2,0.4-0.5,0.6-0.7L722,762.5z" style="fill: rgb(1, 74, 110); opacity: 1;"></path><g><path class="st1" d="M736.5,682.8c-4,4-10.5,4-14.6,0c-4-4-4-10.5,0-14.6c4-4,10.5-4,14.6,0C740.5,672.2,740.5,678.8,736.5,682.8&#10;&#9;&#9;&#9;&#9;z" style="fill: rgb(1, 74, 110); opacity: 1;"></path></g><g><path class="st1" d="M766.4,712.7c-4.3,4.3-11.3,4.3-15.7,0c-4.3-4.3-4.3-11.3,0-15.7c4.3-4.3,11.3-4.3,15.7,0&#10;&#9;&#9;&#9;&#9;C770.7,701.4,770.7,708.4,766.4,712.7z" style="fill: rgb(1, 74, 110); opacity: 1;"></path></g><g><path class="st1" d="M727.1,721.3c-4.6,4.6-12,4.6-16.5,0c-4.6-4.6-4.6-12,0-16.5c4.6-4.6,12-4.6,16.5,0&#10;&#9;&#9;&#9;&#9;C731.7,709.3,731.7,716.7,727.1,721.3z" style="fill: rgb(1, 74, 110); opacity: 1;"></path></g><g><path class="st1" d="M760.1,754.2c-4.6,4.6-12,4.6-16.5,0c-4.6-4.6-4.6-12,0-16.5c4.6-4.6,12-4.6,16.5,0&#10;&#9;&#9;&#9;&#9;C764.6,742.2,764.6,749.6,760.1,754.2z" style="fill: rgb(1, 74, 110); opacity: 1;"></path></g><g><path class="st1" d="M695.3,689.5c-4.6,4.6-12,4.6-16.5,0c-4.6-4.6-4.6-12,0-16.5c4.6-4.6,12-4.6,16.5,0&#10;&#9;&#9;&#9;&#9;C699.9,677.5,699.9,684.9,695.3,689.5z" style="fill: rgb(1, 74, 110); opacity: 1;"></path></g><path class="st1" d="M773.5,659.9c-39.6-39.6-104.1-39.6-143.7,0c-2,2-3.8,4-5.6,6.1c-1.8,2.1-1.7,5.3,0.3,7.3l3.9,3.9l12,12&#10;&#9;&#9;&#9;l0.3,0.3l14,14l72.7,72.7l18,18l1,1l13.6,13.6c2,2,5.1,2.1,7.3,0.3c2.1-1.8,4.1-3.6,6.1-5.6C813,764,813.1,699.5,773.5,659.9z&#10;&#9;&#9;&#9; M764.1,797.7l-10-10l-1.8-1.8L649.1,682.8l-1.1-1.1l-12.3-12.3c0.6-0.6,1.1-1.2,1.7-1.8c35.4-35.4,93.1-35.4,128.5,0&#10;&#9;&#9;&#9;c35.4,35.4,35.4,93.1,0,128.5C765.3,796.6,764.7,797.2,764.1,797.7z" style="fill: rgb(1, 74, 110); opacity: 1;"></path></g></g></g></g><g transform="matrix(0.1463489681482315, 0.10592436790466309, -0.10592436790466309, 0.1463489681482315, 400.99616876426444, -37.76978306871169)"><g transform="matrix(1, 0, 0, 1, 1.1368683772161603e-13, 0)"><g transform="matrix(1, 0, 0, 1, -68.63700866699213, -13.428979873657227)"><g><g><path class="st1" d="M636,765.7c-0.1-0.1-0.3-0.3-0.4-0.4c-1.9-2.3-1.5-5.7,0.8-7.5l27.6-21.7c2.3-1.9,5.7-1.5,7.6,0.8&#10;&#9;&#9;&#9;&#9;c1.9,2.3,1.5,5.7-0.8,7.6l-27.7,21.7C641,767.8,637.9,767.6,636,765.7z" style="fill: rgb(1, 74, 110); opacity: 1;"></path></g><path class="st1" d="M722,762.5l-7.7-7.7l-45.1,64.7c-8.8,8.4-22.8,8.3-31.4-0.3l-23.6-23.6c-8.7-8.7-8.8-22.7-0.3-31.5l63-46.8&#10;&#9;&#9;&#9;l-7.7-7.7l-62,46.1c-0.2,0.2-0.4,0.3-0.6,0.5c-12.9,12.9-12.9,34,0,46.9l23.6,23.6c12.9,12.9,34,12.9,46.9,0&#10;&#9;&#9;&#9;c0.2-0.2,0.4-0.5,0.6-0.7L722,762.5z" style="fill: rgb(1, 74, 110); opacity: 1;"></path><g><path class="st1" d="M736.5,682.8c-4,4-10.5,4-14.6,0c-4-4-4-10.5,0-14.6c4-4,10.5-4,14.6,0C740.5,672.2,740.5,678.8,736.5,682.8&#10;&#9;&#9;&#9;&#9;z" style="fill: rgb(1, 74, 110); opacity: 1;"></path></g><g><path class="st1" d="M766.4,712.7c-4.3,4.3-11.3,4.3-15.7,0c-4.3-4.3-4.3-11.3,0-15.7c4.3-4.3,11.3-4.3,15.7,0&#10;&#9;&#9;&#9;&#9;C770.7,701.4,770.7,708.4,766.4,712.7z" style="fill: rgb(1, 74, 110); opacity: 1;"></path></g><g><path class="st1" d="M727.1,721.3c-4.6,4.6-12,4.6-16.5,0c-4.6-4.6-4.6-12,0-16.5c4.6-4.6,12-4.6,16.5,0&#10;&#9;&#9;&#9;&#9;C731.7,709.3,731.7,716.7,727.1,721.3z" style="fill: rgb(1, 74, 110); opacity: 1;"></path></g><g><path class="st1" d="M760.1,754.2c-4.6,4.6-12,4.6-16.5,0c-4.6-4.6-4.6-12,0-16.5c4.6-4.6,12-4.6,16.5,0&#10;&#9;&#9;&#9;&#9;C764.6,742.2,764.6,749.6,760.1,754.2z" style="fill: rgb(1, 74, 110); opacity: 1;"></path></g><g><path class="st1" d="M695.3,689.5c-4.6,4.6-12,4.6-16.5,0c-4.6-4.6-4.6-12,0-16.5c4.6-4.6,12-4.6,16.5,0&#10;&#9;&#9;&#9;&#9;C699.9,677.5,699.9,684.9,695.3,689.5z" style="fill: rgb(1, 74, 110); opacity: 1;"></path></g><path class="st1" d="M773.5,659.9c-39.6-39.6-104.1-39.6-143.7,0c-2,2-3.8,4-5.6,6.1c-1.8,2.1-1.7,5.3,0.3,7.3l3.9,3.9l12,12&#10;&#9;&#9;&#9;l0.3,0.3l14,14l72.7,72.7l18,18l1,1l13.6,13.6c2,2,5.1,2.1,7.3,0.3c2.1-1.8,4.1-3.6,6.1-5.6C813,764,813.1,699.5,773.5,659.9z&#10;&#9;&#9;&#9; M764.1,797.7l-10-10l-1.8-1.8L649.1,682.8l-1.1-1.1l-12.3-12.3c0.6-0.6,1.1-1.2,1.7-1.8c35.4-35.4,93.1-35.4,128.5,0&#10;&#9;&#9;&#9;c35.4,35.4,35.4,93.1,0,128.5C765.3,796.6,764.7,797.2,764.1,797.7z" style="fill: rgb(1, 74, 110); opacity: 1;"></path></g></g></g></g></svg>